<svg xmlns="http://www.w3.org/2000/svg" width="49" height="49" fill="none" viewBox="0 0 49 49">
    <path fill="#fff" d="M3.19 18.726v2.7h3.472v-.771L24.79 9.083 42.92 20.655v.771h3.471v-2.7L24.79 4.84 3.19 18.726zM44.462 41.483H4.733v3.471h39.729v-3.471z"/>
    <path fill="#fff" d="M42.919 24.898v-3.472h-7.33v3.472h1.93v10.8h-5.4c-1.93 1.543-4.63 2.7-7.33 2.7s-5.4-1.157-7.328-2.7h-5.4v-10.8h1.929v-3.472H6.66v3.472H8.59v10.8H6.66v3.471H42.92v-3.471h-1.93v-10.8h1.93z"/>
    <path fill="#fff" d="M23.247 23.74h2.7c.772 0 1.543.772 1.543 1.543h2.7c0-2.314-1.928-4.243-3.857-4.243v-1.157h-3.086v1.157c-1.928 0-3.857 1.929-3.857 4.243 0 2.315 1.929 4.243 4.243 4.243h2.7c.771 0 1.543.772 1.543 1.543 0 .771-.772 1.543-1.543 1.543h-3.086c-.771 0-1.543-.772-1.543-1.543H19.39c0 2.314 1.929 4.243 4.243 4.243v1.543h2.7v-1.543c2.314 0 4.243-1.929 4.243-4.243s-2.314-4.629-4.243-4.629h-3.086c-.771 0-1.543-.771-1.543-1.542.386-.386 1.158-1.158 1.543-1.158z"/>
</svg>
