<svg width="56" height="56" viewBox="0 0 56 56" fill="none" xmlns="http://www.w3.org/2000/svg">
    <path d="M28 8.167c.494 0 .988.126 1.359.357l18.53 10.5C48.554 19.4 49 20.031 49 20.765v6.3c0 1.155-1.112 2.1-2.47 2.1-.495 0-.989-.125-1.36-.357L28 19.086 10.83 28.81c-.371.232-.865.358-1.359.358-1.359 0-2.47-.946-2.47-2.1v-6.3c0-.735.444-1.366 1.111-1.744l18.53-10.5c.37-.23.864-.356 1.358-.356z" fill="#26324D"/>
    <path d="M28 26.833c.494 0 .988.126 1.359.358l18.53 10.5c.666.377 1.111 1.007 1.111 1.742v6.3c0 1.155-1.112 2.1-2.47 2.1-.495 0-.989-.126-1.36-.357L28 37.753l-17.17 9.723c-.371.231-.865.357-1.359.357-1.359 0-2.47-.945-2.47-2.1v-6.3c0-.735.444-1.365 1.111-1.743l18.53-10.5c.37-.23.864-.357 1.358-.357z" fill="#26324D"/>
</svg>
