<svg xmlns="http://www.w3.org/2000/svg" width="49" height="49" fill="none" viewBox="0 0 49 49">
    <path fill="#fff" d="M15.352 5.697c-4.83 0-8.76 4.292-8.76 9.567s3.93 9.567 8.76 9.567c4.831 0 8.762-4.292 8.762-9.567s-3.93-9.567-8.762-9.567zM35.272 7.066h-.06c-2.028.018-3.921.9-5.333 2.483-1.386 1.556-2.14 3.608-2.122 5.78.017 2.17.804 4.21 2.215 5.741 1.422 1.544 3.306 2.392 5.31 2.392h.061c2.028-.017 3.921-.899 5.333-2.483 1.386-1.555 2.14-3.608 2.122-5.779-.035-4.498-3.406-8.134-7.526-8.134zM35.641 25.028h-.727c-3.389 0-6.48 1.327-8.815 3.501.584.462 1.14.965 1.667 1.507 1.554 1.601 2.775 3.467 3.628 5.544.769 1.872 1.208 3.843 1.31 5.874H48.79V38.57c0-7.467-5.898-13.542-13.149-13.542zM29.886 41.454c-.266-4.402-2.432-8.274-5.666-10.755-2.352-1.806-5.27-2.874-8.43-2.874h-.875C7.114 27.825.79 34.337.79 42.37v1.726h29.124v-1.726c0-.308-.01-.614-.028-.917z"/>
</svg>
