<svg width="56" height="56" viewBox="0 0 56 56" fill="none" xmlns="http://www.w3.org/2000/svg">
    <path fill-rule="evenodd" clip-rule="evenodd" d="m28.933 1.738 13.89 42.01a2.704 2.704 0 0 1-.11 1.976 2.507 2.507 0 0 1-1.409 1.315l-23.267 8.478c-1.285.468-2.688-.246-3.134-1.595L1.012 11.912c-.446-1.35.234-2.823 1.519-3.29L25.798.142a2.356 2.356 0 0 1 1.882.116c.588.299 1.038.83 1.253 1.479zm-6.478 3.131c-.55-.28-1.214-.038-1.48.54a1.216 1.216 0 0 0-.05.889c.095.292.298.531.563.666l3.505 1.782 1.699-3.679a1.213 1.213 0 0 0-.08-1.16 1.09 1.09 0 0 0-.997-.508 1.11 1.11 0 0 0-.918.653l-.732 1.586-1.51-.769zm-.24 43.428-1.698 3.68-3.505-1.784a1.165 1.165 0 0 1-.622-.963 1.185 1.185 0 0 1 .483-1.047c.328-.233.75-.266 1.105-.084l1.51.768.732-1.585a1.11 1.11 0 0 1 .918-.653c.395-.03.775.163.997.507.223.344.253.786.08 1.16v.001zm-8.899-17.516 11.37 5.969 5.368-12.01c1.023-2.42.079-5.25-2.165-6.49.118.064-3.79-2.754-5.916 2.136l-1.658 3.283-3.249-1.512a4.12 4.12 0 0 0-3.407-.277 4.337 4.337 0 0 0-2.509 2.412c-1.023 2.419-.078 5.249 2.166 6.489z" fill="#26324D"/>
    <path d="M50.365 10.59 36.048 5.067 33.825 11.2l7.857 25.454 8.684-26.065z" fill="#26324D"/>
    <path d="M35.426.116c-1.002-.377-2.096.197-2.444 1.283l-.912 2.845.029.087 1.191 3.72 1.492-4.653c.139-.435.577-.665.978-.514L51.73 8.89c.4.151.613.625.474 1.06l-9.944 29.04s1.498 4.934 1.665 4.412L54.76 9.588a2.24 2.24 0 0 0-.087-1.59 1.981 1.981 0 0 0-1.098-1.059L35.426.116z" fill="#26324D"/>
</svg>
