<svg width="33" height="33" viewBox="0 0 33 33" fill="none" xmlns="http://www.w3.org/2000/svg">
<path d="M24.6445 25.9155H23.7032H8.42057H7.47933H6.53809V28.2012H25.5857V25.9155H24.6445Z" fill="white"/>
<path d="M9.37019 9.91553L8.06201 13.1346L8.90697 13.5546L9.75256 13.9746L10.7843 14.487L11.5509 13.3819L12.0925 12.6013L12.6334 11.8214L9.37019 9.91553Z" fill="white"/>
<path d="M23.5434 9.91553L20.2524 11.8575L20.7884 12.6374L21.3238 13.4179L22.0577 14.487L23.1508 13.9385L23.987 13.5185L24.8239 13.0985L23.5434 9.91553Z" fill="white"/>
<path d="M29.7991 10.0139C28.4472 10.0139 27.3297 11.0204 27.1741 12.3153C27.1616 12.4172 27.1554 12.5209 27.1554 12.6259C27.1554 12.8618 27.1872 13.0909 27.2472 13.3083C27.3304 13.6127 27.4685 13.8955 27.6497 14.145L25.7697 15.0595L24.9266 15.4696L24.8216 15.5208H24.821L24.0835 15.879L21.6554 17.0603L19.901 14.5847L19.4291 13.9184V13.9178L19.361 13.822L18.8216 13.0606L17.0079 10.5004C17.3254 10.4276 17.6216 10.2979 17.8841 10.1225C18.1485 9.94716 18.3791 9.72424 18.5641 9.46735C18.8716 9.04065 19.0529 8.51886 19.0529 7.95631C19.0529 6.51566 17.8672 5.34424 16.4091 5.34424C14.9516 5.34424 13.7654 6.51566 13.7654 7.95631C13.7654 8.5133 13.9429 9.03016 14.2447 9.45439C14.4285 9.71251 14.6579 9.93666 14.921 10.1139C15.1822 10.2905 15.4772 10.422 15.7941 10.4967L14.0022 13.0254L13.4629 13.7868L13.3472 13.9505L12.9229 14.5495L11.1441 17.0603L8.78725 15.9142L8.011 15.5362L7.94475 15.5041L7.10162 15.0941L5.05537 14.0993C5.26475 13.8683 5.4335 13.6003 5.54975 13.307C5.666 13.0137 5.72975 12.6951 5.73037 12.3622V12.3573C5.73037 10.9167 4.54475 9.74462 3.08662 9.74462C1.62912 9.74462 0.442871 10.9167 0.442871 12.3573C0.442871 13.6782 1.441 14.7742 2.73162 14.9459C2.84787 14.9613 2.966 14.9694 3.08662 14.9694C3.30037 14.9694 3.50787 14.9441 3.70725 14.8965C4.01912 14.8224 4.30975 14.6933 4.56787 14.5204L7.51287 22.7037L7.846 23.63H24.9529L25.286 22.7037L28.1729 14.6835C28.421 14.8755 28.7041 15.0243 29.0116 15.1194C29.2604 15.1966 29.5247 15.238 29.7991 15.238C29.8554 15.238 29.911 15.2361 29.966 15.2324C31.346 15.1472 32.4429 14.0104 32.4429 12.6259C32.4429 11.1853 31.2566 10.0139 29.7991 10.0139Z" fill="white"/>
</svg>
