<svg width="48" height="48" viewBox="0 0 48 48" fill="none" xmlns="http://www.w3.org/2000/svg">
<path d="M24.5337 48.0003C32.0003 48.0003 38.4003 44.8698 42.6669 40.6959H6.40039C10.667 44.8698 17.067 48.0003 24.5337 48.0003Z" fill="#CB0028"/>
<path d="M6.40039 8.34783H42.6669C38.4003 3.13043 32.0003 0 24.5337 0C17.067 0 10.667 3.13043 6.40039 8.34783Z" fill="#CB0028"/>
<path d="M6.39972 39.6521H42.6663C44.7996 37.5652 46.9329 34.4348 47.9996 31.3043H1.06641C2.13307 35.4782 4.2664 37.5652 6.39972 39.6521Z" fill="white"/>
<path d="M1.06641 15.6521H46.9329C45.8663 12.5217 44.7996 10.4347 42.6663 8.34778H6.39972C4.2664 10.4347 2.13307 12.5217 1.06641 15.6521Z" fill="white"/>
<path d="M0 23.9997C0 27.1301 1.06666 29.2171 1.06666 32.3475H46.9332C47.9999 30.2605 47.9999 27.1301 47.9999 23.9997C47.9999 20.8692 46.9332 18.7823 46.9332 16.6953H1.06666C1.06666 18.7823 0 20.8692 0 23.9997Z" fill="#1A237B"/>
</svg>
