<svg width="48" height="48" viewBox="0 0 48 48" fill="none" xmlns="http://www.w3.org/2000/svg">
<path d="M48 24C48 10.4348 37.5652 0 24 0C10.4348 0 0 10.4348 0 24C0 37.5652 10.4348 48 24 48C37.5652 48 48 37.5652 48 24ZM33.3913 38.6087L24 31.3043L14.6087 38.6087L18.7826 27.1304L8.34783 20.8696H19.8261L24 9.3913L27.1304 20.8696H38.6087L30.2609 27.1304L33.3913 38.6087Z" fill="#C8172B"/>
<path d="M27.1303 20.8697L23.9998 9.39148L19.8259 20.8697H8.34766L17.739 27.1306L14.6085 38.6089L23.9998 31.3045L33.3911 38.6089L30.2607 27.1306L39.652 20.8697H27.1303Z" fill="#FCFF2C"/>
</svg>
