<svg width="68" height="128" fill="none" xmlns="http://www.w3.org/2000/svg">
    <path fill-rule="evenodd" clip-rule="evenodd" d="M68-4C30.5-4 0 26.5 0 64c0 37.488 30.5 68 68 68 37.488 0 68-30.512 68-68 0-37.5-30.512-68-68-68zm39.973 87.907-22.854-2.975-9.962-26.242 16.184-21.08 18.465 5.68 7.621 28.952-9.454 15.66v.005zm-43.265 18.961-24.67-7.214-11.52-26.996 14.908-17.895 29.354 4.845 9.959 26.225-18.034 21.035h.003zm46.67-76.812L109.82 36.63l-19.442-5.981-18.36-17.728 2.958-6.177c14.464 1.757 27.268 8.877 36.399 19.315h.006l-.003-.003zM68 6.285c1.445 0 2.867.119 4.284.221l-2.737 5.706-26.871 10.523h-14.94C38.133 12.581 52.334 6.282 67.996 6.282H68v.003zM25.333 25.268h16.32v23.667L26.455 67.176H10.447c-.063-1.068-.17-2.11-.17-3.179 0-14.914 5.743-28.475 15.056-38.732v.003zm5.33 82.657 8.86-9.792 24.864 7.276 10.917 14.257v1.53c-2.394.304-4.825.516-7.296.516-14.245 0-27.267-5.205-37.343-13.787h-.003zm47.18 12.875v-.717l24.593-9.888c-7.123 5.321-15.487 9.032-24.593 10.602v.003zm29.382-14.592 2.638-20.507 9.644-15.983h5.91c-1.416 14.37-8.174 27.171-18.195 36.493v-.003h.003z" fill="#F4F4F6"/>
</svg>
