<svg width="24" height="25" fill="none" xmlns="http://www.w3.org/2000/svg">
    <path d="M12 23.341c5.865 0 10.62-4.755 10.62-10.62 0-5.865-4.755-10.62-10.62-10.62-5.865 0-10.62 4.755-10.62 10.62 0 5.866 4.755 10.62 10.62 10.62z" fill="url(#a)"/>
    <path d="M21.66 10.981c-.36-1.08-1.44-1.92-2.64-1.92-1.56 0-2.76 1.26-2.76 2.76 0 1.5 1.26 2.76 2.76 2.76.6 0 1.14-.18 1.62-.48-.12.18-.24.42-.42.54-.54.48-1.26.78-2.1.72-.48 0-.96-.12-1.38-.36l-1.56-.9-.18.06c.18-.42.3-.9.3-1.38 0-1.92-1.56-3.54-3.54-3.54s-3.54 1.56-3.54 3.54c0 .48.06.9.24 1.26v.06l-1.5.84c-.42.24-.9.42-1.44.42-1.44 0-2.64-1.2-2.64-2.64 0-1.44 1.2-2.64 2.64-2.64.72 0 1.44.3 1.92.78l.6-.72c-.54-.6-1.44-1.02-2.4-1.02a3.61 3.61 0 0 0-3.6 3.6c0 1.98 1.62 3.6 3.6 3.6.66 0 1.26-.18 1.8-.48l1.56-.9c.66.84 1.68 1.38 2.82 1.38 1.08 0 2.1-.48 2.7-1.32v-.06l.06.06 1.44.84c.06 0 .12.06.18.06.54.3 1.14.48 1.8.48h.12c1.08 0 1.98-.36 2.64-1.02.72-.72 1.14-1.74 1.14-2.88.06-.54-.06-1.02-.24-1.5zm-9.9 4.38a2.56 2.56 0 0 1-2.58-2.58 2.56 2.56 0 0 1 2.58-2.58 2.56 2.56 0 0 1 2.58 2.58c0 .36-.06.72-.18 1.02-.72-.42-1.5-.6-2.34-.6-.66 0-1.32.12-1.92.3.12.3.3.6.54.84.42-.12.9-.18 1.38-.18.6 0 1.26.18 1.8.48v.06c-.42.36-1.08.66-1.86.66zm7.26-1.62a1.87 1.87 0 0 1-1.86-1.86c0-1.02.84-1.86 1.86-1.86s1.86.84 1.86 1.86-.84 1.86-1.86 1.86z" fill="#231F20"/>
    <path d="M4.02 14.281c-.06 0-.06-.06-.12-.06-.06-.06-.06-.06-.06-.12s-.06-.06-.06-.12v-.12c0-.06 0-.06.06-.12 0-.06.06-.06.12-.12.06 0 .06-.06.12-.06h.12c.06 0 .06 0 .12.06.06 0 .06.06.12.12 0 .06.06.06.06.12v.12h-.12v-.06s0-.06-.06-.06l-.06-.06h-.12s-.06 0-.06.06l-.06.06s0 .06-.06.06v.06s0 .06.06.06l.06.06s.06 0 .06.06l.06-.06-.06-.12v-.12l.12.18-.24.18zM4.68 14.041l.12.06-.12.66-.12-.06.06-.12-.18-.12-.24.06-.12-.06.6-.42zm-.06.18-.18.12.12.06.06-.18zM4.92 14.281l.18.06.06.42.24-.36.18.06-.12.6-.12-.06.12-.48-.3.42h-.12l-.06-.48-.12.48-.06-.06.12-.6zM5.76 14.461h.12l.12.6h-.12l-.12-.6zM6.06 14.401l.18-.06.42.3-.18-.42.12-.06.24.54-.18.06-.42-.3.18.42-.12.06-.24-.54zM7.5 14.341c0 .06-.06.06-.12.12-.06 0-.06.06-.12.06h-.24c-.06 0-.06-.06-.12-.06s-.06-.06-.06-.12-.06-.06-.06-.12v-.12c0-.06.06-.06.06-.12s.06-.06.12-.06.06-.06.12-.06h.12v.12h-.12s-.06 0-.06.06c0 0 0 .06-.06.06v.12s0 .06.06.06l.06.06h.12s.06 0 .06-.06l.06-.06-.06-.12-.06.12-.06-.12.24-.12.12.36z" fill="#231F20"/>
    <defs>
        <linearGradient id="a" x1="11.998" y1="2.33" x2="11.998" y2="22.928" gradientUnits="userSpaceOnUse">
            <stop stop-color="#FDD500"/>
            <stop offset=".011" stop-color="#FDD401"/>
            <stop offset=".247" stop-color="#FAB90D"/>
            <stop offset=".488" stop-color="#F8A616"/>
            <stop offset=".736" stop-color="#F79B1B"/>
            <stop offset="1" stop-color="#F7971D"/>
        </linearGradient>
    </defs>
</svg>
