<svg width="24" height="25" fill="none" xmlns="http://www.w3.org/2000/svg">
    <g clip-path="url(#a)" fill-rule="evenodd" clip-rule="evenodd">
        <path d="M13.02 4.261c.3 0 .48-.24.48-.48v-1.5c0-.3-.24-.48-.48-.48-.3 0-.48.24-.48.48v1.44c-.06.3.18.54.48.54z" fill="url(#b)"/>
        <path d="M10.98 5.581c.3 0 .48-.24.48-.48v-1.5c0-.3-.24-.48-.48-.48-.3 0-.48.24-.48.48v1.44c0 .3.18.54.48.54z" fill="url(#c)"/>
        <path d="M10.98 2.221c.3 0 .48-.24.48-.48 0-.3-.24-.48-.48-.48-.3 0-.48.24-.48.48s.18.48.48.48z" fill="url(#d)"/>
        <path d="M15 5.941c.3 0 .48-.24.48-.48 0-.3-.24-.48-.48-.48-.3 0-.48.24-.48.48 0 .3.24.48.48.48z" fill="url(#e)"/>
        <path d="M19.08 9.721c-.3 0-.48.24-.48.48v.3c0 .24-.24.48-.48.48-.3 0-.48-.24-.48-.48v-1.26c0-.3-.24-.48-.48-.48-.3 0-.48.24-.48.48 0 .3-.24.48-.48.48-.3 0-.48-.24-.48-.48v-2.1c0-.3-.24-.48-.48-.48-.3 0-.48.24-.48.48v.78c0 .3-.24.48-.48.48-.3 0-.48-.24-.48-.48v-2.28c0-.3-.24-.48-.48-.48-.3 0-.48.24-.48.48v1.92c0 .3-.24.48-.48.48-.3 0-.48-.24-.48-.48v-.72c0-.3-.24-.48-.48-.48-.3 0-.48.24-.48.48v1.5c0 .3-.24.48-.48.48-.3 0-.48-.24-.48-.48v-2.04c0-.3-.24-.48-.48-.48-.3 0-.48.24-.48.48V9.541c0 .3-.24.48-.48.48-.3 0-.48-.24-.48-.48v-.84c0-.3-.24-.48-.48-.48-.3 0-.48.24-.48.48v2.4c0 .3-.24.48-.48.48-.3 0-.48-.24-.48-.48v-.78c0-.3-.24-.48-.48-.48-.3 0-.48.24-.48.48v9.54l6.84 4.32 7.56-4.38v-9.54c0-.3-.24-.54-.48-.54zm-3.54 8.58h-2.4v-1.8h-2.4v1.8h-2.4v-5.7h2.4v1.92h2.4v-1.92h2.4v5.7z" fill="url(#f)"/>
    </g>
    <defs>
        <linearGradient id="b" x1="4.638" y1="2.996" x2="19.616" y2="2.996" gradientUnits="userSpaceOnUse">
            <stop stop-color="#ED334D"/>
            <stop offset="1" stop-color="#F79826"/>
        </linearGradient>
        <linearGradient id="c" x1="5.182" y1="4.337" x2="20.029" y2="4.337" gradientUnits="userSpaceOnUse">
            <stop stop-color="#ED334D"/>
            <stop offset="1" stop-color="#F79826"/>
        </linearGradient>
        <linearGradient id="d" x1="4.845" y1="1.694" x2="19.753" y2="1.694" gradientUnits="userSpaceOnUse">
            <stop stop-color="#ED334D"/>
            <stop offset="1" stop-color="#F79826"/>
        </linearGradient>
        <linearGradient id="e" x1="4.767" y1="5.46" x2="19.54" y2="5.46" gradientUnits="userSpaceOnUse">
            <stop stop-color="#ED334D"/>
            <stop offset="1" stop-color="#F79826"/>
        </linearGradient>
        <linearGradient id="f" x1="4.409" y1="14.647" x2="19.573" y2="14.647" gradientUnits="userSpaceOnUse">
            <stop stop-color="#ED334D"/>
            <stop offset="1" stop-color="#F79826"/>
        </linearGradient>
        <clipPath id="a">
            <path fill="#fff" transform="translate(0 .721)" d="M0 0h24v24H0z"/>
        </clipPath>
    </defs>
</svg>
