<svg width="36" height="24" fill="none" xmlns="http://www.w3.org/2000/svg">
    <path d="M3.84 10.745c.497 0 .9-.128.9-.285 0-.157-.403-.284-.9-.284s-.9.127-.9.284c0 .157.403.285.9.285zM2.54 12.14c.498 0 .9-.13.9-.29 0-.16-.402-.29-.9-.29-.496 0-.9.13-.9.29 0 .16.404.29.9.29zM2.54 13.801c.609 0 1.101-.157 1.101-.352 0-.194-.492-.351-1.1-.351-.608 0-1.1.157-1.1.351 0 .195.492.352 1.1.352zM4.011 15.643c.702 0 1.27-.179 1.27-.4 0-.22-.568-.4-1.27-.4-.702 0-1.27.18-1.27.4 0 .221.568.4 1.27.4zM25.628 17.137c.69 0 1.25-.125 1.25-.28 0-.154-.56-.28-1.25-.28s-1.25.126-1.25.28c0 .155.56.28 1.25.28zM7.12 16.976c.762 0 1.38-.179 1.38-.4 0-.22-.618-.399-1.38-.399-.762 0-1.38.179-1.38.4 0 .22.618.4 1.38.4zM21.059 17.936c.762 0 1.38-.179 1.38-.4 0-.22-.618-.399-1.38-.399-.762 0-1.38.18-1.38.4 0 .22.618.4 1.38.4zM33.26 15.17c-.203.051-.41.076-.62.074-.496 0-.9-.12-.9-.27 0-.148.404-.268.9-.268.177-.001.353.016.525.05a6.846 6.846 0 0 1-.049-.888V9.326a4.466 4.466 0 0 0-.29-1.525 2.904 2.904 0 0 0-.794-1.235 3.654 3.654 0 0 0-1.792-.828 16.364 16.364 0 0 0-2.848-.199 12.093 12.093 0 0 0-2.053.164 4.86 4.86 0 0 0-1.492.466c-.455.236-.85.572-1.157.983a4.237 4.237 0 0 0-.615 1.56l3.768.397c.096-.362.311-.682.61-.91.446-.235.95-.343 1.453-.31.376-.04.753.065 1.056.291.23.286.338.652.3 1.017a13.43 13.43 0 0 1-1.395.469c-.44.12-1.4.328-2.88.625-.94.107-1.826.5-2.538 1.123a2.753 2.753 0 0 0-.687 1.929 2.71 2.71 0 0 0 .954 2.101c.793.62 1.789.923 2.793.852a6.425 6.425 0 0 0 2.431-.426 3.2 3.2 0 0 0 .341-.167.41.41 0 0 1 .087-.047 5.704 5.704 0 0 0 1.112-.852c.03.221.075.44.136.654 0 .014.015.035.02.05.613.018 1.088.134 1.088.276 0 .12-.346.223-.826.261l.008.018h3.7a5.486 5.486 0 0 1-.347-.894zm-3.998-3.36c.016.412-.066.824-.24 1.2a1.94 1.94 0 0 1-.804.78 2.458 2.458 0 0 1-1.226.318 1.372 1.372 0 0 1-.953-.295 1.007 1.007 0 0 1 0-1.487c.456-.315.974-.53 1.52-.63.588-.149 1.153-.32 1.696-.513l.007.626zM19.75 15.094V5.725h-3.557v1.466a4.168 4.168 0 0 0-1.406-1.298 4.114 4.114 0 0 0-1.91-.392 3.803 3.803 0 0 0-2.932 1.214 5.026 5.026 0 0 0-1.122 3.53 5.549 5.549 0 0 0 .87 3.26 3.759 3.759 0 0 0 3.213 1.737 3.7 3.7 0 0 0 3.016-1.429v1.504a2.252 2.252 0 0 1-.407 1.532 1.59 1.59 0 0 1-1.227.44 1.819 1.819 0 0 1-1.056-.291 1.2 1.2 0 0 1-.43-.71l-3.689-.42a8.27 8.27 0 0 0-.018.505 2.92 2.92 0 0 0 1.115 2.4 6.828 6.828 0 0 0 4.105.896c.78.01 1.559-.069 2.321-.233a4.137 4.137 0 0 0 1.672-.757 3.742 3.742 0 0 0 1.056-1.368 4.144 4.144 0 0 0 .396-1.778l-.01-.44zm-8.532 2.684c-.899 0-1.627-.18-1.627-.4 0-.222.728-.4 1.627-.4s1.627.178 1.627.4c0 .22-.726.4-1.627.4zm4.252-5.669a1.623 1.623 0 0 1-2.4.018 2.353 2.353 0 0 1-.457-1.591 2.779 2.779 0 0 1 .433-1.752 1.44 1.44 0 0 1 1.164-.528 1.579 1.579 0 0 1 1.232.575c.365.472.545 1.061.504 1.657a2.365 2.365 0 0 1-.476 1.621zm.499 6.148c-.899 0-1.628-.197-1.628-.44 0-.242.73-.44 1.628-.44.899 0 1.627.197 1.627.44 0 .244-.728.44-1.627.44z" fill="#9399A6"/>
</svg>
