<svg width="199" height="48" fill="none" xmlns="http://www.w3.org/2000/svg">
    <path d="M181.001 19.753h-1.013v-2.86h-.922v-.83h2.949v.83h-1.014v2.86zM187.267 19.752h-1.014l.092-2.86-.921 2.86h-.829l-.922-2.86.092 2.86h-1.013V15.97h1.566l.737 2.4.645-2.4h1.659v3.783h-.092zM64.078 31.655H59.84v-6.274h-5.528v6.274h-4.239V15.693h4.239v5.997h5.528v-5.997h4.238v15.962zM70.896 28.887l-.737 2.768h-4.423l4.791-15.962h6.45l4.883 15.962h-4.33l-.83-2.768h-5.804zm2.856-9.965-1.935 6.92h3.962l-2.027-6.92zM83.335 15.693h8.66c1.475 0 2.58.276 3.502.83.83.554 1.29 1.66 1.29 3.23 0 .922-.092 1.753-.369 2.398-.276.646-.92 1.108-2.119 1.292v.092c1.106.093 1.843.462 2.212 1.015.368.554.553 1.384.553 2.4 0 1.753-.37 2.952-1.106 3.598-.737.646-2.027.923-3.87.923h-8.753V15.693zm7.002 6.366h.369c.553 0 .921-.092 1.29-.184.369-.093.553-.462.553-1.2 0-.553-.092-.923-.277-1.2-.184-.184-.553-.276-1.198-.276h-3.5v2.86h2.763zm.185 6.09c.645 0 1.197 0 1.658-.185.46-.092.645-.553.645-1.384 0-.738-.184-1.2-.553-1.291a5.764 5.764 0 0 0-1.474-.185h-3.133v3.045h2.857zM102.684 28.887l-.737 2.768h-4.423l4.792-15.962h6.449l4.884 15.962h-4.331l-.829-2.768h-5.805zm2.856-9.965-1.935 6.92h3.962l-2.027-6.92zM130.602 31.655h-7.187L118.9 19.383h-.184l.184 12.272h-4.146V15.693h7.187l4.514 12.087h.185l-.185-12.087h4.239v15.962h-.092zM136.959 22.06h6.819v2.952h-6.819v3.137h7.371v3.506h-11.701V15.693h11.517v3.506h-7.279v2.86h.092zM146.357 15.693h8.016c2.027 0 3.502.369 4.331 1.015.829.646 1.29 2.122 1.29 4.244 0 1.2-.092 2.122-.369 2.86-.276.738-1.105 1.292-2.58 1.569v.184c1.014.093 1.751.37 2.212.923.46.554.737 1.292.737 2.215v2.86h-4.423V29.44c0-.646-.092-1.108-.368-1.477-.277-.369-.737-.553-1.382-.553h-3.133v4.244h-4.331V15.693zm7.648 8.12c.737 0 1.29-.185 1.382-.554.184-.37.276-.923.276-1.569 0-.738-.092-1.384-.276-1.753-.184-.37-.737-.554-1.659-.554h-3.132v4.43h3.409zM161.744 22.797v-.922c0-.277 0-.646.093-.923 0-.37.092-.646.092-.923.276-1.753 1.105-2.952 2.395-3.506 1.29-.554 2.764-.83 4.239-.83h.552c2.765 0 4.7.461 5.805 1.384 1.106.922 1.659 2.86 1.659 5.72 0 2.953-.277 5.167-.922 6.736s-2.764 2.307-6.357 2.307H167.641c-1.197-.093-2.303-.277-3.409-.738-1.105-.462-1.75-1.292-2.211-2.676a5.24 5.24 0 0 1-.277-1.661c0-.554-.092-1.107-.092-1.661v-1.2c.092-.46.092-.738.092-1.107zm4.331.923v.923c0 1.107.092 2.03.369 2.583.276.554 1.013.923 2.303.923 1.474 0 2.396-.277 2.764-.738.369-.462.553-1.384.553-2.768V22.428c0-1.107-.184-1.845-.461-2.306-.276-.462-1.013-.739-2.211-.739-1.659 0-2.672.185-2.948.646-.185.37-.277 1.569-.369 3.691 0-.092 0-.092 0 0z" fill="#000"/>
    <path fill-rule="evenodd" clip-rule="evenodd" d="M26.302 7.112c.46 0 .83-.37.83-.83V3.973a.826.826 0 0 0-.83-.83c-.46 0-.83.37-.83.83v2.307c0 .462.37.83.83.83z" fill="url(#a)"/>
    <path fill-rule="evenodd" clip-rule="evenodd" d="M23.077 9.234c.461 0 .83-.37.83-.83V6.096a.826.826 0 0 0-.83-.83c-.46 0-.829.368-.829.83v2.306c.092.462.46.83.83.83z" fill="url(#b)"/>
    <path fill-rule="evenodd" clip-rule="evenodd" d="M23.077 3.882c.461 0 .83-.369.83-.83a.826.826 0 0 0-.83-.83c-.46 0-.829.368-.829.83.092.461.46.83.83.83z" fill="url(#c)"/>
    <path fill-rule="evenodd" clip-rule="evenodd" d="M29.435 9.787c.46 0 .829-.369.829-.83a.826.826 0 0 0-.83-.83c-.46 0-.829.369-.829.83.093.554.461.83.83.83z" fill="url(#d)"/>
    <path fill-rule="evenodd" clip-rule="evenodd" d="M35.792 15.693c-.46 0-.83.369-.83.83V16.984c0 .462-.368.738-.829.738a.826.826 0 0 1-.829-.83V14.954a.826.826 0 0 0-.829-.83c-.46 0-.83.37-.83.83 0 .462-.368.83-.828.83-.461 0-.83-.368-.83-.83v-3.321a.826.826 0 0 0-.829-.83c-.46 0-.83.368-.83.83v1.292c0 .46-.368.83-.828.83-.461 0-.83-.37-.83-.83V9.326a.826.826 0 0 0-.829-.83c-.46 0-.83.369-.83.83V12.463c0 .462-.368.83-.828.83a.826.826 0 0 1-.83-.83V11.264a.826.826 0 0 0-.829-.83c-.46 0-.83.368-.83.83v2.399c0 .461-.368.83-.828.83a.826.826 0 0 1-.83-.83V10.34a.826.826 0 0 0-.829-.83c-.46 0-.83.369-.83.83v5.075c0 .461-.368.83-.828.83a.826.826 0 0 1-.83-.83v-1.384a.826.826 0 0 0-.829-.83c-.46 0-.829.368-.829.83V17.815c0 .461-.369.83-.83.83-.46 0-.829-.369-.829-.83V16.615a.826.826 0 0 0-.829-.83c.553 0 .184.369.184.83v15.04l11.978 6.92 11.978-6.92V16.523c-.092-.461-.46-.83-.921-.83zm-5.436 13.563h-3.778v-2.86h-3.777v2.86h-3.778v-8.95H22.8v3.045h3.778v-3.045h3.778v8.95z" fill="url(#e)"/>
    <defs>
        <linearGradient id="a" x1="13.118" y1="5.154" x2="36.697" y2="5.154" gradientUnits="userSpaceOnUse">
            <stop stop-color="#ED334D"/>
            <stop offset="1" stop-color="#F79826"/>
        </linearGradient>
        <linearGradient id="b" x1="13.975" y1="7.269" x2="37.347" y2="7.269" gradientUnits="userSpaceOnUse">
            <stop stop-color="#ED334D"/>
            <stop offset="1" stop-color="#F79826"/>
        </linearGradient>
        <linearGradient id="c" x1="13.445" y1="3.102" x2="36.914" y2="3.102" gradientUnits="userSpaceOnUse">
            <stop stop-color="#ED334D"/>
            <stop offset="1" stop-color="#F79826"/>
        </linearGradient>
        <linearGradient id="d" x1="13.321" y1="9.039" x2="36.577" y2="9.039" gradientUnits="userSpaceOnUse">
            <stop stop-color="#ED334D"/>
            <stop offset="1" stop-color="#F79826"/>
        </linearGradient>
        <linearGradient id="e" x1="12.758" y1="23.522" x2="36.629" y2="23.522" gradientUnits="userSpaceOnUse">
            <stop stop-color="#ED334D"/>
            <stop offset="1" stop-color="#F79826"/>
        </linearGradient>
    </defs>
</svg>
