<svg width="161" height="40" fill="none" xmlns="http://www.w3.org/2000/svg">
    <path d="M139.184 12.73c3.215-.478 3.919-2.14 3.919-4.989v-3c0-3.155-2.53-4.741-7.609-4.741-5.078 0-7.608 1.586-7.608 4.74v3.536c0 2.485.551 3.785 3.481 4.282-2.93.65-3.481 2.466-3.481 5.122v3.88c0 3.193 2.53 4.779 7.608 4.779 5.079 0 7.609-1.586 7.609-4.778v-3.842c0-2.925-.704-4.588-3.919-4.99zm-3.728-1.663c-1.122 0-1.674-.535-1.674-1.586V4.434c0-1.032.552-1.529 1.674-1.529 1.141 0 1.712.516 1.712 1.53V9.48c0 1.05-.571 1.586-1.712 1.586zm0 12.214c-1.122 0-1.674-.535-1.674-1.587V15.98c0-1.09.552-1.624 1.674-1.624 1.141 0 1.712.535 1.712 1.624v5.715c0 1.052-.571 1.587-1.712 1.587z" fill="url(#a)"/>
    <path d="M156.066 12.73c3.215-.478 3.918-2.14 3.918-4.989v-3c0-3.155-2.529-4.741-7.608-4.741s-7.608 1.586-7.608 4.74v3.536c0 2.485.551 3.785 3.48 4.282-2.929.65-3.48 2.466-3.48 5.122v3.88c0 3.193 2.529 4.779 7.608 4.779s7.608-1.586 7.608-4.778v-3.842c0-2.925-.703-4.588-3.918-4.99zm-3.728-1.663c-1.122 0-1.674-.535-1.674-1.586V4.434c0-1.032.552-1.529 1.674-1.529 1.141 0 1.712.516 1.712 1.53V9.48c0 1.05-.571 1.586-1.712 1.586zm0 12.214c-1.122 0-1.674-.535-1.674-1.587V15.98c0-1.09.552-1.624 1.674-1.624 1.141 0 1.712.535 1.712 1.624v5.715c0 1.052-.571 1.587-1.712 1.587z" fill="url(#b)"/>
    <path d="M132.582 29.845a8.004 8.004 0 1 0-14.72-6.292 8.004 8.004 0 1 0 14.72 6.292z" fill="#fff"/>
    <path d="M129.124 33.21c3.532-2.09 4.768-6.622 2.914-10.33.676 4.326-6.828 11.153-14.038 6.857.088.206.206.382.324.588 2.266 3.767 7.092 5.062 10.8 2.884z" fill="#C2C2C2"/>
    <path d="M123.68 26.234c.294-1.089 1.295-2.619 1.765-3.001.53-.06 3.208 1.088 3.326 1.236.088.147.118 1.324-.412 3.207-1.295.5-3.002.766-3.002.766s-1-1.001-1.677-2.208zM124.533 21.409l-2.59.117s-.353-.824-.382-1.265c1.442-1.148 3.619-1.207 3.619-1.207s1.001.53 1.06.765c-.353.442-1.707 1.59-1.707 1.59zM117.97 24.998c.383-.294 2.178-1.118 2.325-1.059.559.677.971 2.296.971 2.296s-.264 1.53-1.206 2.442c-.5.03-2.207-.56-2.207-.56s-.206-1.883.117-3.119zM130.448 23.38s-.559-2.384-.706-2.914l.294-.206c2.06 1.177 3.002 4.326 3.002 4.326l-.529.618-2.061-1.824zM128.771 32.297l1.03-2.384 2.679-.765.176.736s-.53 2.06-3.208 3.178c-.117-.147-.677-.765-.677-.765zM120.942 32.856l.736-2.002 2.619-.117 1.619 2.09s-1.972 1.47-2.178 1.47c-.206.03-2.796-1.441-2.796-1.441z" fill="#000"/>
    <path d="m118.001 25.293-.618-1.177.824.883-.206.294zM118.177 27.853l-.854 1 .53-1.088.324.088zM122.003 20.614l-1.236-.47 1.206.117.03.353zM125.298 19.348l.029-.765-.294.56.265.205zM121.297 33.003l-1.295-.236 1.207-.088.088.324zM123.827 33.974l.353.736-.53-.442.177-.294zM119.942 24.233s.883-1.088 1.148-1.412c-.618.941-.736 1.618-.736 1.618l-.412-.206zM122.326 21.202s-.882 1.089-1.147 1.413c.618-.942.735-1.619.735-1.619l.412.206zM128.447 27.382c-.03.353.471 1.236.677 1.619-.618-.913-1.207-1.325-1.207-1.325s.147-.353.53-.294zM124.534 20.702c-.059.353.353 1.295.529 1.678-.529-.971-1.088-1.442-1.088-1.442s.206-.354.559-.236z" fill="#000"/>
    <path d="M129.712 30.325c.03-.353-.529-1.207-.735-1.59.676.884 1.265 1.266 1.265 1.266s-.177.353-.53.324zM132.773 24.793c-.206.294-.117 1.589-.117 2.03-.118-1.118-.501-2.03-.501-2.03s.324-.236.618 0zM130.478 32.061c-.206.294-1.325 1.442-1.325 1.442l.707-1.442s.353-.235.618 0zM131.949 29.324c.265-.235.53-1.206.677-1.618-.206 1.088-.088 1.795-.088 1.795s-.383.147-.589-.177zM125.74 19.348c.235.265 1.471.618 1.912.706-1.118-.147-2.03-.117-2.03-.117s-.177-.353.118-.589zM129.89 21.085c-.148-.324-1.148-.707-1.501-.942 1.03.441 1.824.383 1.824.383s0 .441-.323.559zM125.593 28.324c-.323.177-.765 1.089-.971 1.471.412-1.03.412-1.736.412-1.736s.412-.088.559.265z" fill="#000"/>
    <path d="M123.857 31.002c.295-.177.707-1.118.913-1.501-.353 1.06-.324 1.766-.324 1.766s-.441.059-.589-.265zM124.033 26.676c-.265-.235-1.295-.294-1.736-.353 1.118 0 1.766-.265 1.766-.265s.206.353-.03.618z" fill="#000"/>
    <path d="M120.884 26.117c.295.206 1.325.235 1.737.265-1.119.058-1.766.353-1.766.353s-.206-.353.029-.618zM129.065 32.591c-.323-.147-1.265-.088-1.707-.059 1.089-.265 1.619-.559 1.619-.559s.265.294.088.618zM125.593 32.444c.294.176 1.324.118 1.766.118-1.118.176-1.707.5-1.707.5s-.265-.324-.059-.618zM131.096 23.35c-.353-.029-1.236.471-1.618.677.912-.618 1.324-1.206 1.324-1.206s.353.176.294.53z" fill="#000"/>
    <path d="M128.154 24.587c.353.03 1.206-.53 1.589-.736-.883.677-1.266 1.265-1.266 1.265s-.382-.147-.323-.53zM120.178 28.353c0 .353.559 1.207.765 1.59-.677-.883-1.442-1.443-1.442-1.443s.324-.206.677-.147z" fill="#000"/>
    <path d="M121.62 31.208c0-.353-.618-1.177-.853-1.53.735.853 1.353 1.177 1.353 1.177s-.117.383-.5.353zM125.24 23.792c.117-.353-.236-1.324-.324-1.736.441 1.03.912 1.53.912 1.53s-.235.353-.588.206z" fill="#000"/>
    <path d="M127.917 28.03c.647.177 1.383 1.648 1.383 1.648l-.353.147c-.029 0-.235-.97-1.03-1.795zM124.563 28.295c.353.56-.501 2.236-.501 2.236l-.382-.117c0-.03.883-.942.883-2.12z" fill="#C2C2C2"/>
    <path d="M121.943 30.385c.295.5 2.09.147 2.09.147l.059-.383s-1.177.589-2.149.236zM124.033 23.763c.353.56-.5 2.237-.5 2.237l-.383-.118c0-.03.883-.971.883-2.119z" fill="#C2C2C2"/>
    <path d="M121.413 25.852c.294.5 2.09.147 2.09.147l.058-.382s-1.177.559-2.148.235zM129.39 21.114c.529.324.765 2.149.765 2.149l-.353.058s.176-1.206-.412-2.207z" fill="#C2C2C2"/>
    <path d="M128.506 24.116c.471.294 1.618-.824 1.618-.824l-.147-.382s-.588 1.06-1.471 1.206zM119.912 29.413c.618.088 1.501 1.707 1.501 1.707l-.294.177c-.03 0-.295-1.178-1.207-1.884z" fill="#C2C2C2"/>
    <path d="M120.207 32.532c.559.089 1.207-1.383 1.207-1.383l-.265-.294c-.03.03-.177 1.207-.942 1.677zM130.419 23.792c.647.059 1.854 1.648 1.854 1.648l-.324.235s-.588-1.206-1.53-1.883zM119.972 23.704s.559-.913 1.501-2.855c.176.942-1.501 2.855-1.501 2.855zM126.387 19.23s1 .354 3.119.854c-.883.383-3.119-.854-3.119-.854z" fill="#C2C2C2"/>
    <path d="M0 1.183C0 .893.258.635.58.635h43.134c.322 0 .547.258.547.548v38.27a.543.543 0 0 1-.547.547H.58c-.322 0-.58-.258-.58-.547V1.183z" fill="#D4B372"/>
    <path d="M2.19 3.373c0-.322.258-.547.58-.547h38.753c.322 0 .548.257.548.547v33.889a.543.543 0 0 1-.548.548H2.738c-.322 0-.58-.258-.58-.548V3.373h.032z" fill="url(#c)"/>
    <path d="M32.826 28.532v-17.33s1.095-.645 2.222-2.127c0 0-1.417.548-1.997 0-.612-.548-1.804-2.287-1.804-2.287s-4.123 2.577-4.574 2.835V6.466h-.902v3.511s-.838.354-1.418-.129c-.612-.515-1.16-.45-2.126-3.189 0 0-5.67 2.77-8.214 4.446-2.545 1.707-2.448 1.9-2.642 4.638 0 1.74.13 2.9-.547 2.932-.902-.033-2.513-.258-2.996 2.255-.258 1.256.322 2.19.934 2.287 0 0 .193-1.45 1.9-1.45.548 0 .742.13.774 1.192.032.709 0 2.255 0 3.06a4.15 4.15 0 0 1-.322 1.643c-.194.387-.419.806-.773.934 0 0 1.965.033 3.479-1.481.515-.548.547-1.16.612-2.9.064-1.739 0-11.758 0-11.758s.257-1.417 2.19-2.126v17.01s.29 3.543-2.03 3.736c-2.319-.097-2.222-.58-3.543-.805-1.256-.226-3.221.483-4.026 3.124-.033.097.096.226.193.13.354-.259.999-.58 1.707-.29 1.063.386 2.223 1.127 3.834 1.095 1.61-.033 4.348-1.128 4.67-6.54.065-5.25.065-5.573.065-5.573h2.803v7.86s-1.676 1.128-1.74 2.352c0 .097.097.225.226.193.386-.096.773-.193 1.192-.225.45-.065 2.77 1.256 3.06 1.771.547.323 1.417-.805 1.836-1.127.387-.322 3.286-2.416 4.252-2.9.548 0 .644.259.838 1.386.128 1.127 1.224 2.545 3.06 2.835l2.61-3.866c-.065-.193-2.32.032-2.803-1.965zM20.552 18.74h-3.06V9.72c.548-.032.773-.128 1.16-.128.45 1.191 1.9 1.74 1.9 1.74v7.408zm4.865 12.016-1.611-1.128V11.942c.612-.966 1.965-1.192 1.965-1.192v20.005h-.354zm4.187-1.804-2.834 1.772h-.097v-8.634h2.931v6.862zm0-10.212h-2.931l.032-8.15c.548-.709 1.418-.773 1.418-.773.193.934 1.514 1.546 1.514 1.546v7.345h-.033v.032z" fill="#fff"/>
    <path opacity=".2" fill-rule="evenodd" clip-rule="evenodd" d="M.58.635c-.322 0-.58.258-.58.548v27.704l44.261-11.984V1.183a.543.543 0 0 0-.547-.548H.58z" fill="#fff"/>
    <path d="M51.298 38.07a291.589 291.589 0 0 1 13.284-3.944c.581-1.245.996-2.74 1.204-4.4l1.494-12.08h-8.053l-.664 5.437h2.615l-.872 7.016c-.332 2.74-1.619 3.695-3.445 3.695-1.827 0-2.865-.996-2.533-3.695L56.902 9.55c.332-2.74 1.62-3.736 3.446-3.736s2.864 1.038 2.532 3.736l-.498 4.068h5.438l.457-3.694c.747-6.103-1.744-9.59-7.39-9.59-5.645 0-9.008 3.487-9.755 9.59l-2.45 19.802c-.54 3.985.374 6.85 2.616 8.344zM51.96 38.443c1.122.54 2.45.872 4.07.872 3.237 0 5.687-1.121 7.389-3.238-4.608.83-8.47 1.66-11.458 2.366zM74.71 31.635a6.538 6.538 0 0 1 .042-1.536l2.574-20.59c.332-2.74 1.62-3.737 3.446-3.737s2.864 1.038 2.532 3.736L80.73 30.1c0 .083-.041.166-.041.25 1.992-.416 3.985-.79 5.895-1.163L88.99 9.924c.748-6.103-1.91-9.59-7.555-9.59-5.646 0-9.175 3.487-9.922 9.59l-2.45 19.802a12.478 12.478 0 0 0-.04 3.28c1.909-.499 3.819-.956 5.687-1.37zM78.613 33.628c-.415.166-.872.249-1.37.249h-.332c-2.615.373-5.148.747-7.472 1.162.996 2.782 3.404 4.317 7.14 4.317 4.65 0 7.846-2.366 9.257-6.6-2.49.249-4.898.54-7.223.872zM95.8 27.65l5.354-20.134h.125l.373 19.303c1.993-.249 3.861-.498 5.646-.664L106.551.75h-8.427L90.402 28.48c1.827-.29 3.653-.581 5.397-.83zM89.323 32.34l-1.827 6.519h5.272l1.868-7.016c-1.785.166-3.57.332-5.313.498zM101.694 31.344l.125 7.556h5.812l-.249-7.846c-1.91.041-3.82.166-5.688.29zM117.762 25.242l3.03-24.493h-5.77l-3.114 24.95c2.2-.208 4.152-.333 5.854-.457zM117.097 30.722c-1.951.042-3.861.083-5.771.166l-.996 8.012h15.236l.664-5.438h-9.465l.332-2.74z" fill="#fff"/>
    <path d="M44.134.318H0V39.69h44.134V.318z" fill="#C9AA71"/>
    <path d="M41.593 2.54H2.54v34.927h39.054V2.54z" fill="url(#d)"/>
    <path d="M17.86 19.346v12.35c0 .27-.061.45-.305.45s-.335-.18-.335-.45v-1.623h-.61c-.58 0-2.867 1.892-3.416 2.283-1.006-.57-2.226-1.142-3.141-1.442-.518.48-.884.811-1.128 1.051-.244.24-.336.361-.458.361-.183 0-.366-.21-.366-.36s.366-.571 2.104-2.344c1.19-1.202 1.678-2.704 1.678-4.927 0-3.696-1.616-6.85-3.446-6.85-.61 0-.915.24-1.037.87-.03.301-.183.391-.305.391-.275 0-.427-.45-.427-1.202 0-1.712 1.19-3.064 2.684-3.064 1.28 0 1.768 1.021 2.53.931v-2.524c0-.63-.243-1.201-.7-1.592-.397-.33-2.532-1.773-3.325-1.773-.274 0-.396.12-.58.12-.121 0-.121-.03-.121-.12 0-.12.06-.18.274-.39l2.684-2.644c.122-.12.213-.18.335-.18.915 0 4.605 2.944 5.063 2.944.701 0 4.483-2.854 5.458-2.854.275 0 .55.24 2.623 1.892.335.27 1.037.872 1.647 1.262.549.33.58.39.58 1.052.335-.06.7-.33 2.866-2.073.61-.51 2.44-1.953 2.561-1.953.183 0 1.678.63 3.904 1.532.64.27.762.33.762.751v17.577c0 .57.061.78.305.991 1.037.871 1.647 1.232 1.982 1.232.122 0 .244-.03.336-.12.183-.24.213-.27.305-.27.122 0 .213.12.213.27 0 .21-1.524 2.103-3.11 3.335-.946-.33-2.592-1.442-3.507-2.404-.305-.33-.366-.42-.366-.991V16.22c0-1.441.457-2.463 2.196-4.716.884-1.142.945-1.503.792-1.503-.121 0-2.226 1.503-2.622 1.743-1.86-1.051-2.41-1.382-3.385-1.382-.55 0-.915.27-.915.631v20.911c0 .27-.122.481-.335.481-.183 0-.275-.18-.275-.45v-1.563c-1.464.24-2.684 1.953-2.989 1.953-.366 0-2.592-2.644-2.592-2.854V19.346H17.86zm-.64-8.682c0-.692-.061-.932-.214-.932-.305 0-1.403.691-1.403.932v9.434c0 4.657-.549 5.137-1.768 6.43-.55.57-.702.69-1.098 1.201.701.992 3.11 1.442 4.482 1.382V10.664zm.64 5.468h3.995v-3.756c0-.691-2.562-2.644-3.416-2.644-.366 0-.58.24-.58.691v5.709zm9.576-4.838c0-.06-.031-.12-.122-.12a.755.755 0 0 0-.366.12l-.793.481c-.458.27-.58.42-.58.631v3.395c0 .24.305.39.55.39h1.341l-.03-4.897zm0 7.992h-1.281c-.366 0-.55.27-.55.782v6.97c0 1.382.58 2.013 1.861 2.103v-9.855h-.03z" fill="#fff"/>
    <path opacity=".2" fill-rule="evenodd" clip-rule="evenodd" d="M.58.318C.258.318 0 .576 0 .866v27.703l44.261-11.983V.866a.543.543 0 0 0-.547-.548H.58z" fill="#fff"/>
    <defs>
        <radialGradient id="c" cx="0" cy="0" r="1" gradientUnits="userSpaceOnUse" gradientTransform="matrix(70.804 0 0 62.128 23.084 4.662)">
            <stop stop-color="#BF2026"/>
            <stop offset=".505" stop-color="#BE2126"/>
            <stop offset="1" stop-color="#C62127"/>
        </radialGradient>
        <radialGradient id="d" cx="0" cy="0" r="1" gradientUnits="userSpaceOnUse" gradientTransform="matrix(69.3091 0 0 34.9058 22.9 4.4)">
            <stop stop-color="#C12127"/>
            <stop offset=".505" stop-color="#BE2129"/>
            <stop offset="1" stop-color="#C82127"/>
        </radialGradient>
        <linearGradient id="a" x1="135.494" y1="0" x2="135.494" y2="26.339" gradientUnits="userSpaceOnUse">
            <stop stop-color="#CC4D52"/>
            <stop offset=".708" stop-color="#BF2127"/>
        </linearGradient>
        <linearGradient id="b" x1="152.376" y1="0" x2="152.376" y2="26.339" gradientUnits="userSpaceOnUse">
            <stop stop-color="#CC4D52"/>
            <stop offset=".771" stop-color="#BF2127"/>
        </linearGradient>
    </defs>
</svg>
