<svg width="167" height="40" fill="none" xmlns="http://www.w3.org/2000/svg">
    <path fill="#D3B271" d="M.549 1.242h43.636V39.96H.549z"/>
    <path fill="url(#a)" d="M2.704 3.393h39.327v34.416H2.704z"/>
    <path fill-rule="evenodd" clip-rule="evenodd" d="M16.963 20.445V34.39c0 .303-.079.495-.35.495-.273 0-.387-.192-.387-.495V32.55h-.693c-.498 0-2.104 1.23-3.124 2.011-.327.251-.594.456-.745.559-1.124-.651-2.519-1.303-3.563-1.65-.187.174-.358.331-.514.474-.325.3-.58.533-.758.716-.067.066-.124.125-.174.176-.154.16-.24.25-.326.25-.193 0-.43-.227-.43-.426 0-.191.43-.651 2.404-2.657 1.351-1.381 1.895-3.031 1.895-5.567 0-4.185-1.816-7.763-3.904-7.763-.694 0-1.045.27-1.159.964-.035.347-.193.46-.35.46-.308 0-.466-.503-.466-1.346 0-1.919 1.352-3.456 3.019-3.456.774 0 1.299.339 1.753.631.384.248.717.463 1.107.411v-2.805c0-.73-.272-1.346-.816-1.806-.465-.382-2.86-1.997-3.755-1.997-.172 0-.296.035-.407.066-.087.025-.166.047-.251.047-.114 0-.158-.035-.158-.113 0-.1.062-.173.235-.376l.072-.084L8.17 6.273l.077-.057c.109-.081.18-.134.31-.134.616 0 2.328 1.155 3.727 2.1.97.655 1.789 1.208 1.993 1.208.37 0 1.469-.68 2.657-1.416 1.402-.868 2.93-1.814 3.538-1.814.288 0 .585.237 2.568 1.828l.407.325c.095.076.215.175.351.289.413.344.98.816 1.509 1.136.623.382.658.46.658 1.19.386-.079.816-.383 3.246-2.345.693-.573 2.747-2.232 2.905-2.232.193 0 1.895.695 4.413 1.728.737.304.851.382.851.842V28.79c0 .65.08.885.351 1.111 1.158.999 1.86 1.38 2.246 1.38a.569.569 0 0 0 .386-.155c.194-.27.237-.304.351-.304.114 0 .237.156.237.303 0 .235-1.737 2.38-3.518 3.77-1.08-.383-2.94-1.65-3.984-2.728-.35-.382-.42-.46-.42-1.111V16.832c0-1.65.534-2.77 2.473-5.34 1.01-1.303 1.08-1.694.887-1.694-.094 0-.97.601-1.76 1.144-.538.368-1.036.71-1.224.819l-.245-.14c-1.894-1.08-2.511-1.432-3.589-1.432-.614 0-1.044.304-1.044.695v23.628c0 .304-.158.538-.386.538-.193 0-.307-.19-.307-.494v-1.772c-1.09.176-2.045 1.057-2.683 1.646-.339.312-.588.542-.722.542-.421 0-2.94-2.995-2.94-3.23V20.445h-4.527zm-.701-9.796c0-.772-.08-1.033-.229-1.033-.342 0-1.588.773-1.588 1.033v10.638c0 5.161-.59 5.778-1.93 7.176l-.08.084c-.622.65-.771.807-1.236 1.345.816 1.112 3.518 1.616 5.071 1.538V10.65h-.008zm5.229 6.149h-4.528v-6.452c0-.504.228-.773.658-.773.965 0 3.87 2.188 3.87 2.995v4.23zm6.344-5.463c0-.078-.035-.113-.158-.113-.114 0-.307.079-.43.157l-.886.538c-.5.304-.658.46-.658.695v3.838c0 .27.35.46.623.46h1.509v-5.575zm-1.474 9.031h1.465v11.142c-1.43-.113-2.088-.843-2.088-2.38v-7.876c0-.573.201-.886.623-.886z" fill="#fff"/>
    <path d="M52.185 26.497h4.833c.11.907.366 1.617.77 2.13.611.797 1.48 1.196 2.605 1.196.982 0 1.785-.311 2.407-.934.623-.622.934-1.403.934-2.342 0-.667-.147-1.218-.442-1.655-.284-.437-.743-.824-1.376-1.163-.339-.186-1.529-.677-3.571-1.474-1.387-.535-2.425-1.098-3.113-1.688-.677-.59-1.206-1.326-1.588-2.21a7.19 7.19 0 0 1-.574-2.884c0-1.321.317-2.539.95-3.653a6.552 6.552 0 0 1 2.654-2.605 7.481 7.481 0 0 1 3.62-.933c1.136 0 2.184.224 3.145.671.961.448 1.748 1 2.36 1.655.61.655 1.064 1.36 1.359 2.113.295.743.48 1.622.557 2.637H63.03c-.142-.917-.366-1.561-.672-1.933-.47-.568-1.146-.851-2.031-.851-.797 0-1.436.24-1.917.72-.48.47-.72 1.087-.72 1.851 0 .83.284 1.486.851 1.966.426.36 1.344.781 2.752 1.261 1.41.47 2.425.874 3.047 1.213.95.513 1.698 1.092 2.245 1.736a6.604 6.604 0 0 1 1.277 2.228c.306.84.459 1.78.459 2.817 0 2.61-.994 4.658-2.981 6.143-1.431 1.07-3.086 1.606-4.964 1.606a8.705 8.705 0 0 1-2.801-.459 8.324 8.324 0 0 1-2.392-1.261 7.764 7.764 0 0 1-1.703-1.802 7.347 7.347 0 0 1-.967-2.08c-.153-.536-.262-1.207-.328-2.016zM71.646 33.607V8.773h6.241c1.573 0 2.79.082 3.653.246.863.153 1.628.415 2.294.786.677.36 1.3.863 1.867 1.507a6.904 6.904 0 0 1 1.343 2.26c.317.853.475 1.82.475 2.9 0 1.638-.387 3.063-1.163 4.276-.764 1.212-1.747 2.08-2.948 2.604-1.19.524-3.03.787-5.52.787h-1.639v9.468h-4.603zm4.603-13.76h1.475c1.944 0 3.292-.279 4.046-.836.764-.568 1.146-1.42 1.146-2.555 0-.72-.185-1.349-.557-1.884-.37-.535-.89-.917-1.556-1.147-.655-.229-1.627-.344-2.916-.344H76.25v6.766zM87.847 21.256c0-1.726.322-3.375.967-4.948.644-1.572 1.529-2.926 2.653-4.062a13.398 13.398 0 0 1 3.735-2.687 12.825 12.825 0 0 1 5.635-1.277c1.857 0 3.582.36 5.177 1.08 1.594.71 2.926 1.617 3.997 2.72 1.081 1.092 1.927 2.283 2.539 3.571a12.679 12.679 0 0 1 1.261 5.57c0 1.463-.229 2.845-.688 4.144-.448 1.3-1.048 2.452-1.802 3.457a13.971 13.971 0 0 1-2.686 2.702c-1.038.809-2.239 1.442-3.604 1.9a13.082 13.082 0 0 1-4.194.689c-1.944 0-3.707-.366-5.29-1.098-1.584-.742-2.917-1.66-3.998-2.752-1.07-1.103-1.9-2.288-2.49-3.555a12.852 12.852 0 0 1-1.212-5.454zm4.603-.033c0 1.19.219 2.299.655 3.325a8.977 8.977 0 0 0 1.72 2.67 8.967 8.967 0 0 0 2.605 1.868c1.027.491 2.162.737 3.407.737 1.442 0 2.823-.377 4.145-1.13 1.321-.754 2.359-1.813 3.112-3.178.754-1.366 1.13-2.802 1.13-4.309 0-1.507-.376-2.943-1.13-4.308-.753-1.376-1.791-2.44-3.112-3.194-1.311-.754-2.692-1.13-4.145-1.13-1.267 0-2.402.245-3.407.737a9.148 9.148 0 0 0-2.605 1.867c-.742.765-1.326 1.682-1.752 2.752a8.95 8.95 0 0 0-.623 3.293zM117.055 33.607V8.773h7.617c1.889 0 3.44.251 4.652.754a6.72 6.72 0 0 1 2.228 1.49 7.939 7.939 0 0 1 1.556 2.114c.535 1.048.803 2.195.803 3.44 0 1.102-.208 2.14-.623 3.112-.404.972-.923 1.78-1.556 2.424a7.52 7.52 0 0 1-2.031 1.475c-.721.35-1.584.639-2.589.868l6.749 9.157h-5.569l-6.569-9.501h-.065v9.5h-4.603zm4.603-20.526v7.585h2.948c.918 0 1.753-.175 2.506-.524.557-.262 1.016-.688 1.376-1.278a3.72 3.72 0 0 0 .541-1.982c0-.721-.18-1.387-.541-1.999a3.379 3.379 0 0 0-1.441-1.36c-.601-.294-1.414-.442-2.441-.442h-2.948zM138.383 33.607V13.08h-4.603V8.773h13.825v4.308h-4.636v20.526h-4.586zM148.08 26.497h4.833c.109.907.365 1.617.77 2.13.611.797 1.479 1.196 2.604 1.196.983 0 1.786-.311 2.408-.934.623-.622.934-1.403.934-2.342 0-.667-.148-1.218-.442-1.655-.284-.437-.743-.824-1.376-1.163-.339-.186-1.529-.677-3.572-1.474-1.386-.535-2.424-1.098-3.112-1.688a6.08 6.08 0 0 1-1.589-2.21 7.194 7.194 0 0 1-.573-2.884c0-1.321.316-2.539.95-3.653a6.549 6.549 0 0 1 2.654-2.605 7.478 7.478 0 0 1 3.62-.933c1.136 0 2.184.224 3.145.671.961.448 1.747 1 2.359 1.655.611.655 1.065 1.36 1.359 2.113.295.743.481 1.622.557 2.637h-4.685c-.142-.917-.365-1.561-.671-1.933-.47-.568-1.147-.851-2.031-.851-.798 0-1.436.24-1.917.72-.48.47-.721 1.087-.721 1.851 0 .83.284 1.486.852 1.966.426.36 1.343.781 2.752 1.261 1.409.47 2.424.874 3.047 1.213.95.513 1.698 1.092 2.244 1.736a6.606 6.606 0 0 1 1.278 2.228c.306.84.459 1.78.459 2.817 0 2.61-.994 4.658-2.982 6.143-1.43 1.07-3.085 1.606-4.963 1.606a8.702 8.702 0 0 1-2.801-.459 8.32 8.32 0 0 1-2.392-1.261 7.766 7.766 0 0 1-1.704-1.802 7.327 7.327 0 0 1-.966-2.08c-.153-.536-.262-1.207-.328-2.016z" fill="#000"/>
    <defs>
        <radialGradient id="a" cx="0" cy="0" r="1" gradientUnits="userSpaceOnUse" gradientTransform="matrix(69.8192 0 0 61.1005 23.233 5.21)">
            <stop stop-color="#C01617"/>
            <stop offset=".505" stop-color="#BE181B"/>
            <stop offset="1" stop-color="#C7120C"/>
        </radialGradient>
    </defs>
</svg>
