<svg width="80" height="16" fill="none" xmlns="http://www.w3.org/2000/svg">
    <path d="M8.4 14.96h4.88c1.12 0 2-.88 2-2V6.08H13.6v6.8c0 .16-.16.32-.32.32H6.4c.16 1.04.96 1.76 2 1.76z" fill="#9399A6"/>
    <path d="M15.92 3.52H8.96v1.76h6.96c.16 0 .32.16.32.32v6.88c.96-.16 1.76-.96 1.76-2V5.52c-.08-1.12-.96-2-2.08-2z" fill="#9399A6"/>
    <path d="M13.36.88H8.48c-1.12 0-2.08.96-2.08 2V9.68h1.76v-6.8c0-.16.16-.32.32-.32h6.88c-.16-.88-1.04-1.68-2-1.68z" fill="#9399A6"/>
    <path d="M5.76 12.4h6.96v-1.76H5.76c-.16 0-.32-.16-.32-.32v-6.8c-.88.08-1.68.96-1.68 2v4.88c0 1.04.96 2 2 2zM21.884 5.559l.73-.323c.492.656.982 1.326 1.469 2.01.4-.725.745-1.447 1.035-2.166l.842.26a25.596 25.596 0 0 1-1.35 2.662c.474.68.945 1.376 1.412 2.088l-.842.375c-.343-.548-.696-1.1-1.06-1.656a22.497 22.497 0 0 1-1.642 2.27l-.743-.359v2.172h-.93v-9.52h10.557v8.354c0 .743-.475 1.114-1.424 1.114-.53 0-1.161-.007-1.896-.02-.042-.223-.1-.494-.174-.813.694.049 1.285.073 1.772.073.529 0 .793-.191.793-.573V4.122h-8.698v6.552a25.643 25.643 0 0 0 1.877-2.63 80.064 80.064 0 0 0-1.728-2.485zm4.126.5.718-.354c.413.562.84 1.158 1.283 1.786a19.82 19.82 0 0 0 1.208-2.349l.842.271a29.02 29.02 0 0 1-1.53 2.834c.52.75 1.06 1.545 1.617 2.385l-.83.396a93.511 93.511 0 0 0-1.289-2 25.415 25.415 0 0 1-1.635 2.198l-.756-.407a28.774 28.774 0 0 0 1.883-2.552A91.01 91.01 0 0 0 26.01 6.06zM45.463 8.674l.632.604c-.81.479-1.611.923-2.404 1.333.752.667 1.718 1.139 2.9 1.417-.257.291-.471.555-.645.791-2.404-.757-3.957-2.243-4.659-4.458h-1.164v3.396c.66-.264 1.383-.576 2.168-.938.008.32.029.601.062.844-.636.257-1.425.608-2.367 1.052-.115.063-.289.18-.52.354l-.657-.718c.265-.23.397-.486.397-.771V3.267h6.133v5.355h-.905v-.26h-2.242c.24.652.566 1.225.979 1.718.81-.445 1.573-.913 2.292-1.406zm-6.803 1.979c.009.305.03.587.062.843a27.94 27.94 0 0 0-1.957 1.032 4.724 4.724 0 0 0-.595.427l-.657-.719c.273-.222.41-.482.41-.781V9.142h-1.698v-.718h1.697V6.903h-.842v-.709c-.133.174-.269.34-.41.5a5.287 5.287 0 0 0-.532-.708 11.35 11.35 0 0 0 1.92-3.219l.905.25a13.78 13.78 0 0 1-.681 1.355h2.28v.718h-2.714c-.24.382-.496.747-.768 1.094h3.184v.719h-1.45v1.52h1.797v.72h-1.797v2.478c.512-.263 1.128-.586 1.846-.968zm5.774-3v-1.5h-4.311v1.5h4.311zm0-3.677h-4.311v1.49h4.311v-1.49zM54.496 10.653l.557-.625c.686.36 1.363.726 2.032 1.093l1.92-1.874h-4.274v-.72c.157-.42.314-.867.47-1.343H53.79v-.708h1.648a84.7 84.7 0 0 0 .415-1.375h-1.48v-.709h1.685c.144-.51.289-1.041.433-1.593h.954a59.42 59.42 0 0 1-.433 1.593h3.333v.709h-3.531c-.14.472-.28.93-.416 1.375h4.393v.708h-4.622c-.152.465-.305.917-.458 1.354h4.498v.74l-2.355 2.265c.492.275.98.55 1.462.829l-.644.687a64.657 64.657 0 0 0-4.175-2.406zm-4.721-2.865h1.511V5.736h.917v2.052h1.673v.709h-1.673v1.406c.624-.073 1.268-.15 1.933-.23-.033.244-.062.494-.087.75l-1.846.23v2.375h-.917v-2.26c-.9.114-1.796.228-2.688.343l-.137-.802c.892-.09 1.834-.191 2.825-.302v-1.51h-2.54v-.698a19.46 19.46 0 0 0 1.227-2.709H48.61v-.708h1.617c.182-.524.357-1.08.527-1.667l1.016.167a76.04 76.04 0 0 1-.564 1.5h2.67v.708h-2.949a60.58 60.58 0 0 1-1.152 2.698zM68.274 6.934h.942V2.892h.916v4.042h4.833v.76h-2.912c.421 1.952 1.47 3.358 3.147 4.22-.297.27-.54.513-.73.728-1.76-1.132-2.85-2.78-3.272-4.948h-1.066v4.042c.504-.215 1.078-.48 1.723-.792.033.292.078.56.136.802-1.198.556-2.082 1.008-2.652 1.355l-.582-.698c.306-.216.459-.528.459-.938v-3.77h-.942v-.761zM63.44 3.226h4.337V9.83h-.892V3.986h-2.552v5.906h-.893V3.226zm1.723 1.687h.892v2.219c0 1.326-.103 2.358-.31 3.094l.397-.271a76.817 76.817 0 0 1 2.205 2.041l-.793.563a40.184 40.184 0 0 0-1.933-1.969c-.289.806-1.003 1.625-2.143 2.459a7.31 7.31 0 0 0-.682-.657c.942-.583 1.578-1.215 1.908-1.896.306-.624.459-1.645.459-3.062v-2.52zm8.624-1.698.768.5c-1.09 1-2.197 1.907-3.32 2.719a6.217 6.217 0 0 0-.633-.562 24.569 24.569 0 0 0 3.185-2.657z" fill="#9399A6"/>
</svg>
