<svg width="99" height="24" fill="none" xmlns="http://www.w3.org/2000/svg">
    <path d="M9.485 2.844a1.638 1.638 0 0 1 1.42-.143l-.135.72a1.171 1.171 0 0 0-.792 0 .695.695 0 0 0-.412.6.68.68 0 0 0 1.08.616 69.131 69.131 0 0 1-.155-.68l.71-.16.302 1.302a2.47 2.47 0 0 1-1.23.418 1.32 1.32 0 0 1-1.045-.39 1.621 1.621 0 0 1-.403-1.08 1.417 1.417 0 0 1 .655-1.215l.005.012zm3.423.108a1.532 1.532 0 0 1 1.535-.24l-.075.828a1.003 1.003 0 0 0-.514-.151.691.691 0 0 0-.59.307.66.66 0 0 0 .099.81.85.85 0 0 0 .877.154c-.059.277-.12.556-.174.84a1.692 1.692 0 0 1-1.158-.323 1.32 1.32 0 0 1-.495-.917 1.522 1.522 0 0 1 .495-1.306v-.002zm3.642 1.03a1.393 1.393 0 0 1 1.607 1.069c.082.382.01.781-.2 1.111a1.527 1.527 0 0 1-1.27.72 1.395 1.395 0 0 1-1.35-1.66 1.52 1.52 0 0 1 1.213-1.24zm.08.769a.72.72 0 0 0-.544.81.654.654 0 0 0 .72.537.72.72 0 0 0 .623-.66.662.662 0 0 0-.196-.52.65.65 0 0 0-.6-.167h-.002zm-11.07.258c.207-.183.416-.36.623-.543.84.508 1.687 1.006 2.53 1.509-.192.169-.386.337-.58.506L7.85 6.31c-.247.214-.49.433-.74.645.038.103.08.205.12.309-.193.164-.38.336-.575.496L5.56 5.01h.002zm.84.396c.13.296.26.594.395.889l.431-.374c-.274-.173-.548-.35-.826-.515zm11.074 2.684c.818-.449 1.631-.903 2.448-1.353.136.24.266.48.4.72.15.243.22.528.2.813a.864.864 0 0 1-.766.685.644.644 0 0 1-.488-.154c-.256.375-.514.748-.769 1.125-.137-.228-.26-.464-.392-.696l.765-1.08c-.349.193-.696.387-1.045.579-.12-.214-.24-.426-.353-.64v.001zm1.652-.086a.607.607 0 0 0 .21.257.36.36 0 0 0 .51-.297.624.624 0 0 0-.109-.296c-.201.12-.406.227-.611.336zm-15.07-.894a.807.807 0 0 1 .7-.041 1.201 1.201 0 0 1 .72.608 1.016 1.016 0 0 1-.072.867.702.702 0 0 0-.076.169c.212.127.43.24.648.36-.12.211-.24.421-.36.635C4.8 9.256 3.988 8.8 3.17 8.354c.11-.206.225-.411.337-.616.124-.256.314-.473.55-.63h-.001zm.053.932c.198.106.392.22.589.329a.6.6 0 0 0 .102-.316.36.36 0 0 0-.373-.3.433.433 0 0 0-.318.287zm-1.214 2.303a.497.497 0 0 1 .51.174.393.393 0 0 1 .034.302 8.669 8.669 0 0 0 1.452 6.14c1.59.004 3.18.007 4.769.007.223-.675.451-1.348.674-2.021.037-.148.098-.29.181-.418a.565.565 0 0 1 .508-.246.471.471 0 0 1 .36.248.78.78 0 0 1 .066.48c-.275 2.127-.55 4.254-.823 6.381a9.468 9.468 0 0 1-5.422-2.79 9.6 9.6 0 0 1-2.59-5.17 9.194 9.194 0 0 1 0-2.842.33.33 0 0 1 .284-.24l-.003-.005zm17.763.089a.541.541 0 0 1 .61 0c.105.073.107.21.12.324a9.288 9.288 0 0 1-.26 3.76 9.634 9.634 0 0 1-2.928 4.636 9.421 9.421 0 0 1-4.844 2.243l-.828-6.38a.746.746 0 0 1 .09-.512.464.464 0 0 1 .422-.213.722.722 0 0 1 .582.6c.23.693.464 1.386.694 2.08 1.588.005 3.177 0 4.767 0a8.647 8.647 0 0 0 1.45-6.17.342.342 0 0 1 .12-.36l.005-.008zm-16.871.327a.398.398 0 0 1 .52-.222.37.37 0 0 1 .26.423 7.553 7.553 0 0 0 1.368 5.52h-.972a9.201 9.201 0 0 1-1.143-2.935 7.92 7.92 0 0 1-.033-2.79v.004zm15.652-.032a.42.42 0 0 1 .748.025 7.956 7.956 0 0 1-.22 3.57 9.435 9.435 0 0 1-.96 2.16h-.97A7.526 7.526 0 0 0 19.41 11a.422.422 0 0 1 .025-.27l.004-.001zm-14.473.256a.401.401 0 0 1 .513-.273.36.36 0 0 1 .28.42 6.297 6.297 0 0 0 .48 3.48c.31.694.741 1.328 1.273 1.871H6.445a7.111 7.111 0 0 1-1.481-5.5l.002.002zm13.238.117a.367.367 0 0 1 .31-.397.392.392 0 0 1 .48.275 7.099 7.099 0 0 1-1.47 5.5h-1.08a6.29 6.29 0 0 0 1.758-5.379l.002.001zM6.15 11.19a.36.36 0 0 1 .29-.307.435.435 0 0 1 .48.192c.04.093.049.197.023.295a5.106 5.106 0 0 0 .79 3.463 5.252 5.252 0 0 0 1.73 1.65H8.159a.12.12 0 0 1-.104-.038 5.943 5.943 0 0 1-1.65-2.508 5.88 5.88 0 0 1-.25-2.743l-.005-.004zm10.91-.128a.442.442 0 0 1 .69-.036.682.682 0 0 1 .092.348 5.963 5.963 0 0 1-1.93 5.077c-.035.04-.091.03-.138.033-.424 0-.847.006-1.27 0a5.216 5.216 0 0 0 1.878-1.884 5.113 5.113 0 0 0 .64-3.252.391.391 0 0 1 .038-.289v.003z" fill="#9399A6"/>
    <path d="M11.867 6.861c.038-.252.06-.506.11-.755.15 1.08.29 2.15.44 3.224.371-.465.739-.932 1.112-1.397-.052.615-.112 1.228-.164 1.84.683-.438 1.364-.882 2.049-1.32-.442.683-.882 1.366-1.32 2.05l1.931-.229c-.516.384-1.038.76-1.553 1.146.742.16 1.487.309 2.229.473-.764.195-1.534.36-2.3.55.52.375 1.04.75 1.56 1.129-.67-.072-1.34-.151-2.01-.226.443.663.9 1.314 1.34 1.978-.65-.399-1.294-.804-1.94-1.21a.687.687 0 0 0-.867.214.665.665 0 0 0-.11.298l-.393 2.866c-.144-.973-.26-1.95-.402-2.925a.683.683 0 0 0-.97-.455c-.648.406-1.293.816-1.947 1.213.448-.661.902-1.32 1.352-1.979-.675.073-1.348.155-2.023.225a228.85 228.85 0 0 0 1.56-1.13c-.766-.182-1.532-.364-2.298-.544.74-.172 1.487-.311 2.227-.48-.51-.382-1.027-.754-1.535-1.138.64.069 1.28.15 1.92.223-.437-.68-.88-1.356-1.312-2.04.681.431 1.353.877 2.032 1.312-.051-.612-.111-1.224-.162-1.836.376.46.738.93 1.111 1.392l.336-2.469h-.003zM31.983 5.492s-3.443.017-3.443-.032v13.019h3.36v-3.492h1.48s4.025-.183 4.025-4.938c0-4.756-5.422-4.557-5.422-4.557zm-.067 6.252V8.57s2.178-.183 2.178 1.662c0 1.846-2.178 1.51-2.178 1.51v.003zM45.252 5.44H41.51l-4.54 13.068h3.493l.531-1.463h4.574l.465 1.413h3.658L45.252 5.44zm-3.326 8.362 1.297-4.222 1.38 4.222h-2.677zM59.517 9.596l1.414-3.109a7.386 7.386 0 0 0-4.29-1.248 6.48 6.48 0 0 0-6.768 6.868c0 5.736 4.607 6.65 7.117 6.65 1.431.022 2.852-.25 4.174-.798v-6.135h-3.376v3.126a2.186 2.186 0 0 1-1.297.316 2.962 2.962 0 0 1-3.175-3.193 3.178 3.178 0 0 1 3.142-3.325 4.764 4.764 0 0 1 3.06.848zM71.273 9.28l-.15-3.824a8.18 8.18 0 0 0-1.995-.217c-.882 0-6.651.4-6.651 6.734 0 6.335 5.603 6.8 6.933 6.8a3.665 3.665 0 0 0 1.696-.232l.283-3.96c-.616.325-1.3.502-1.996.515a3.084 3.084 0 0 1-3.376-3.026 2.962 2.962 0 0 1 3.194-3.12c.701-.013 1.4.099 2.062.33zM79.22 5.112a6.879 6.879 0 1 0 6.585 6.872 6.733 6.733 0 0 0-6.585-6.872zm0 10.087a3.216 3.216 0 0 1-3.308-3.758 3.217 3.217 0 0 1 6.389.543A3.149 3.149 0 0 1 79.22 15.2zM94.385 12.805a3.43 3.43 0 0 0 2.06-3.293c0-2.542-1.944-4.04-5.237-4.04l-3.757-.016v13.02h3.36v-5.288l2.726 5.287h3.692l-2.844-5.67zm-2.695-1.247h-.831V8.35h.882a1.53 1.53 0 0 1 1.296 1.628 1.489 1.489 0 0 1-1.347 1.58z" fill="#9399A6"/>
</svg>
