<svg width="116" height="48" fill="none" xmlns="http://www.w3.org/2000/svg">
    <path d="M95.478 18.72c-5.16.36-2.88 7.08 2.88 6.72 5.64-.36 2.76-7.08-2.88-6.72z" fill="#F19021"/>
    <path d="M93.318 14.52c-9.24 0-16.68 7.44-16.68 16.68 0 9.24 7.44 16.8 16.68 16.8 9.24 0 16.68-7.44 16.68-16.68.12-9.36-7.44-16.8-16.68-16.8zm0 31.68c-8.28 0-15-6.72-15-15 0-8.28 6.72-15 15-15 8.28 0 15 6.72 15 15 0 8.28-6.72 15-15 15zm-.48-43.32c-3.96 3-3.24 7.56-3.24 7.56S87.078 3.96 83.838 0c-.48 5.16 1.2 11.88 1.2 11.88s-2.04-4.2-7.08-4.44c4.08 2.4 5.76 6.6 6.12 7.8a16.68 16.68 0 0 1 8.16-2.52c-.36-1.08-1.44-5.52.6-9.84z" fill="#F19021"/>
    <path d="M6.918 32.88v3.48h-1.44v-9h3.12c1.08 0 1.8.24 2.4.72.48.48.84 1.2.84 2.04 0 .84-.24 1.56-.84 2.04-.48.48-1.32.72-2.28.72h-1.8zm3.36-2.76c0-.48-.12-.96-.48-1.2-.24-.24-.72-.36-1.32-.36h-1.56v3.12h1.44c1.32 0 1.92-.48 1.92-1.56zm7.44 6.24-2.28-3.6h-1.08v3.6h-1.44v-9h3.24c1.08 0 1.8.24 2.4.72.48.48.84 1.2.84 2.04 0 .72-.24 1.32-.6 1.68-.36.48-.96.72-1.68.84l2.4 3.72h-1.8zm-3.24-4.56h1.56c1.2 0 1.8-.48 1.8-1.56 0-.48-.12-.84-.48-1.2-.24-.24-.72-.36-1.32-.36h-1.56v3.12zm11.52 2.64h-3.84l-.72 1.92h-1.56l3.36-8.88h1.68l3.36 8.88h-1.56l-.72-1.92zm-.36-1.08-1.44-4.2-1.44 4.2h2.88zm9.96-5.28c.72.48 1.2 1.32 1.44 2.16h-1.56c-.24-.48-.48-.84-.96-1.2-.48-.24-1.08-.48-1.56-.48s-1.08.12-1.56.36-.84.6-1.08 1.08c-.24.48-.36 1.08-.36 1.68 0 .6.12 1.2.36 1.8.24.48.6.84 1.08 1.08.48.24 1.08.36 1.56.36.72 0 1.44-.24 1.92-.72s.84-1.08.96-1.92h-3.36V31.2h4.56v1.44c-.12.6-.36 1.32-.72 1.8-.12.84-.72 1.32-1.32 1.56-.6.36-1.32.48-2.04.48-.84 0-1.56-.24-2.28-.6-.72-.36-1.2-.96-1.56-1.68a5.603 5.603 0 0 1 0-4.8c.36-.72.84-1.2 1.56-1.68.72-.36 1.56-.6 2.28-.6 1.08.24 1.92.48 2.64.96zm11.88-.6v8.88h-1.44v-6.72l-2.52 6.72h-1.32l-2.64-6.72v6.72h-1.44v-8.88h1.8l3 7.08 2.88-7.08h1.68zm7.2 6.96h-3.84l-.72 1.92h-1.56l3.36-8.88h1.68l3.36 8.88h-1.56l-.72-1.92zm-.48-1.08-1.44-4.2-1.44 4.2h2.88zm9-6v1.2h-2.52v7.8h-1.44v-7.8h-2.64v-1.2h6.6zm2.16 0v9h-1.44v-9h1.44zm8.28.72c.72.6 1.32 1.44 1.44 2.28h-1.56c-.24-.48-.6-.96-.96-1.32-.48-.36-1.08-.48-1.68-.48-.48 0-.96.12-1.44.36s-.72.72-.96 1.08c-.48 1.08-.48 2.28 0 3.48.24.48.6.84.96 1.08.48.24.96.36 1.44.36.6 0 1.2-.12 1.68-.48s.84-.72.96-1.32h1.56c-.24.96-.72 1.68-1.44 2.28-.72.6-1.68.84-2.76.84-.84 0-1.56-.24-2.28-.6-.6-.36-1.2-.96-1.56-1.68a5.603 5.603 0 0 1 0-4.8c.36-.72.84-1.2 1.56-1.68.72-.36 1.44-.6 2.28-.6 1.08.36 2.04.72 2.76 1.2zm8.4 4.8v3.48h-1.44v-9h3.12c1.08 0 1.8.24 2.4.72.48.48.84 1.2.84 2.04 0 .84-.24 1.56-.84 2.04-.48.48-1.32.72-2.28.72h-1.8zm3.24-2.76c0-.48-.12-.96-.48-1.2-.24-.24-.72-.36-1.32-.36h-1.44v3.12h1.44c1.2 0 1.8-.48 1.8-1.56zm3.96 5.16h3.12v1.08h-4.56v-9h1.44v7.92zm9.84-.84h-3.84l-.72 1.92h-1.56l3.36-8.88h1.68l3.36 8.88h-1.56l-.72-1.92zm-.48-1.08-1.44-4.2-1.44 4.2h2.88zm8.52-6-3 5.76v3.24h-1.44v-3.24l-3-5.76h1.68l2.04 4.2 2.04-4.2h1.68z" fill="#000"/>
</svg>
