<svg width="106" height="40" fill="none" xmlns="http://www.w3.org/2000/svg">
    <g clip-path="url(#a)" fill="#9399A6">
        <path d="M49.225 14.425a5.01 5.01 0 0 1-1.967-.361 4.912 4.912 0 0 1-1.655-1.098 4.787 4.787 0 0 1-1.124-1.616 4.695 4.695 0 0 1-.37-1.92 4.704 4.704 0 0 1 .37-1.92 4.797 4.797 0 0 1 1.124-1.617 4.927 4.927 0 0 1 1.656-1.094 5.024 5.024 0 0 1 1.966-.36h5.694v3.51h-5.694c-.398 0-.779.154-1.06.428a1.446 1.446 0 0 0-.439 1.035c0 .388.158.76.44 1.035.28.274.661.428 1.059.428h1.81c.673 0 1.339.13 1.96.381a5.1 5.1 0 0 1 1.659 1.088c.474.467.848 1.02 1.102 1.628.254.608.382 1.26.377 1.917 0 .655-.132 1.303-.389 1.908a4.967 4.967 0 0 1-1.108 1.617 5.102 5.102 0 0 1-1.659 1.078c-.62.25-1.285.377-1.955.374h-5.695V17.33h5.695c.397 0 .778-.154 1.06-.429.28-.274.438-.646.438-1.035 0-.388-.158-.76-.439-1.034a1.517 1.517 0 0 0-1.06-.429l-1.796.022zM73.882 20.866V4.474h6.894a5.02 5.02 0 0 1 1.966.36c.623.25 1.186.622 1.656 1.094a4.797 4.797 0 0 1 1.123 1.617c.257.608.383 1.262.37 1.92a4.687 4.687 0 0 1-1.222 3.232 4.904 4.904 0 0 1 1.195 3.42 4.924 4.924 0 0 1-1.489 3.308 4.914 4.914 0 0 1-1.655 1.098 5.01 5.01 0 0 1-1.966.36l-6.872-.017zM77.48 7.984v2.927h3.295a1.53 1.53 0 0 0 1.06-.43 1.462 1.462 0 0 0 .439-1.034 1.434 1.434 0 0 0-.44-1.035 1.502 1.502 0 0 0-1.059-.428h-3.295zm0 6.441v2.927h3.273a1.518 1.518 0 0 0 1.063-.425 1.446 1.446 0 0 0-.001-2.076 1.492 1.492 0 0 0-1.063-.426h-3.272z"/>
        <path d="m58.505 15.862 6.469-11.441 9.19 16.388h-4.166l-4.038-7.277-7.455 2.33z"/>
        <path d="m55.78 20.808 1.33-2.44 5.061-1.578-2.227 4.018h-4.165zM88.372 15.862l6.464-11.441 9.194 16.388h-4.164l-4.043-7.277-7.45 2.33z"/>
        <path d="m85.647 20.808 1.331-2.44 5.061-1.578-2.227 4.018h-4.165zM47.82 30.982c-.979 0-1.918-.38-2.611-1.057a3.565 3.565 0 0 1-1.082-2.55c0-.957.39-1.875 1.082-2.552a3.74 3.74 0 0 1 2.612-1.056h4.128v2.546h-4.128c-.215 0-.426.062-.605.178-.18.117-.319.283-.401.477a1.038 1.038 0 0 0 .236 1.158 1.06 1.06 0 0 0 .77.31h1.303c.98 0 1.92.38 2.612 1.056a3.565 3.565 0 0 1 1.082 2.55c0 .957-.389 1.875-1.081 2.552a3.74 3.74 0 0 1-2.613 1.056h-4.128v-2.546h4.128c.216 0 .426-.062.605-.178.18-.117.32-.283.402-.477a1.038 1.038 0 0 0-.237-1.158 1.05 1.05 0 0 0-.77-.31h-1.303zM56.648 30.982v4.668h-2.607V23.767h4.98c.73 0 1.444.211 2.052.608.607.396 1.08.96 1.36 1.619s.353 1.384.21 2.084a3.582 3.582 0 0 1-1.01 1.847c-.339.341-.745.61-1.194.793-.45.181-.932.271-1.419.264h-2.372zm0-4.669v2.122h2.39c.216 0 .427-.061.606-.178.179-.116.318-.282.4-.476a1.038 1.038 0 0 0-.236-1.158 1.037 1.037 0 0 0-.77-.31h-2.39zM79.962 30.982v4.668h-2.608V23.767h4.98c.73-.001 1.445.21 2.053.605a3.623 3.623 0 0 1 1.362 1.618c.28.66.352 1.385.21 2.085a3.578 3.578 0 0 1-1.013 1.846c-.271.271-.584.5-.928.676l2.512 5.053h-2.874l-2.322-4.668h-1.372zm0-4.669v2.122h2.39c.215 0 .426-.061.605-.178.18-.116.319-.282.401-.476a1.038 1.038 0 0 0-.236-1.158 1.053 1.053 0 0 0-.77-.31h-2.39zM92.483 26.313v9.337h-2.608v-9.337h-2.607v-2.546h7.822v2.546h-2.608zM100.01 30.982a3.74 3.74 0 0 1-2.612-1.057 3.565 3.565 0 0 1-1.082-2.55c0-.957.39-1.875 1.082-2.552a3.74 3.74 0 0 1 2.612-1.056h4.129v2.546h-4.129c-.215 0-.426.062-.605.178-.179.117-.319.283-.401.477a1.039 1.039 0 0 0 .237 1.158 1.06 1.06 0 0 0 .769.31h1.304c.98 0 1.919.38 2.612 1.056a3.564 3.564 0 0 1 1.082 2.55c0 .957-.389 1.875-1.082 2.552a3.74 3.74 0 0 1-2.612 1.056h-4.128v-2.546h4.128c.215 0 .426-.062.605-.178.179-.117.319-.283.401-.477.083-.194.104-.408.062-.614a1.055 1.055 0 0 0-.298-.544 1.07 1.07 0 0 0-.77-.31h-1.304zM68.328 26.751l-2.839-.92c-.388.428-.71.91-.955 1.428l2.485.814a3.505 3.505 0 0 1 1.309-1.322zM66.78 30.774a5.26 5.26 0 0 1-.078-.252c-.022-.084-.031-.146-.045-.217a3.337 3.337 0 0 1-.027-1.083l-2.49-.813c-.096.436-.144.88-.145 1.326v.385l2.848.924a2.495 2.495 0 0 1-.064-.27z"/>
        <path d="M74.38 25.521a6.148 6.148 0 0 0-3.8-1.716 6.192 6.192 0 0 0-4.036 1.088l1.634.54 3.074.994c.442.144.85.37 1.203.668.352.297.64.66.85 1.066a3.401 3.401 0 0 1 .196 2.643c-.146.432-.378.831-.683 1.175a3.535 3.535 0 0 1-1.091.83 3.612 3.612 0 0 1-2.707.192l-4.604-1.494-.15-.044h-.022a5.92 5.92 0 0 0 1.364 2.325 6.102 6.102 0 0 0 2.27 1.505 6.226 6.226 0 0 0 5.33-.444 6.032 6.032 0 0 0 1.976-1.859c.505-.758.827-1.62.94-2.517a5.82 5.82 0 0 0-.285-2.666 5.932 5.932 0 0 0-1.455-2.272l-.004-.014zM20 34.014c1.231.195 2.477.301 3.725.318a23.64 23.64 0 0 0 6.826-2.834 29.752 29.752 0 0 1-13.346-3.363 28.98 28.98 0 0 1-10.28-8.966c-.09.863-.135 1.738-.135 2.625 0 2.291.287 4.573.856 6.795a26.245 26.245 0 0 0 12.353 5.425zM5.636 27.67a29.127 29.127 0 0 0 2.06 3.683c.13.194.257.389.393.58-.385-.98-.713-1.982-.982-2.998a23.5 23.5 0 0 1-1.471-1.265z"/>
        <path d="M21.235 34.801a24.304 24.304 0 0 1-1.335-.176 26.845 26.845 0 0 1-11.964-5.036 27.288 27.288 0 0 0 1.525 3.979 24.724 24.724 0 0 0 7.573 1.455c1.405.042 2.81-.032 4.201-.222zM6.845 27.913a27.83 27.83 0 0 1-.453-9.544 27.865 27.865 0 0 1-3.314-6.875A30.679 30.679 0 0 0 4.98 26.15a31.46 31.46 0 0 0 1.866 1.764zM19.08 20.549h-2.063v1.848h2.064a.956.956 0 0 0 .669-.27.914.914 0 0 0-.003-1.309.943.943 0 0 0-.67-.27h.004z"/>
        <path d="M20.48 0A20.83 20.83 0 0 0 9.101 3.37a20.11 20.11 0 0 0-7.543 8.976A19.566 19.566 0 0 0 .394 23.902a19.86 19.86 0 0 0 5.604 10.24 20.635 20.635 0 0 0 10.486 5.474c3.973.771 8.09.375 11.832-1.138a20.383 20.383 0 0 0 9.191-7.367A19.669 19.669 0 0 0 40.96 20c-.008-5.302-2.168-10.385-6.007-14.134C31.113 2.116 25.91.007 20.48 0zm1.81 21.463c.001.412-.08.82-.241 1.202-.16.381-.396.728-.694 1.02a3.22 3.22 0 0 1-1.04.684c-.39.159-.808.24-1.23.242h-4.332V16.68h2.263v1.653h2.078a.956.956 0 0 0 .669-.27.913.913 0 0 0 .273-.654 1.5 1.5 0 0 0-.286-.72 4.948 4.948 0 0 0 1.979-1.101 3.6 3.6 0 0 1 .575 1.817 2.943 2.943 0 0 1-.77 2.047c.5.555.77 1.272.76 2.011h-.004zM16.582 8.696a.906.906 0 0 0 .679.274h1.159c.869 0 1.702.337 2.317.937.615.6.96 1.415.96 2.264 0 .42-.085.836-.25 1.225a3.197 3.197 0 0 1-.71 1.038 3.284 3.284 0 0 1-1.063.694c-.398.16-.824.243-1.254.243h-3.663v-2.259h3.663c.255 0 .5-.099.681-.276a.93.93 0 0 0 .283-.665.93.93 0 0 0-.283-.666.976.976 0 0 0-.681-.276h-1.16a3.318 3.318 0 0 1-2.314-.939 3.163 3.163 0 0 1-.958-2.262c0-.848.345-1.661.958-2.261a3.317 3.317 0 0 1 2.315-.94h3.666v2.246h-3.666a.985.985 0 0 0-.532.163.95.95 0 0 0-.352.423.925.925 0 0 0 .205 1.024v.013zm7.777 3.21 3.952-6.99 5.613 10.013H31.38l-2.467-4.447-4.554 1.423zm2.24.565-1.358 2.458h-2.548l.815-1.49 3.091-.968zM23.39 23.126l3.087-.964-1.358 2.453h-2.544l.815-1.49zm.851-1.535 2.01-3.536 2.716-4.828 6.541 11.42-2.526-.027-2.838-5.12-5.903 2.091zM3.563 30.393a23.108 23.108 0 0 0 4.526 2.604c-.316-.442-.62-.884-.905-1.326a29.29 29.29 0 0 1-2.716-5.203 28.91 28.91 0 0 1-2.906-3.599 32.543 32.543 0 0 1-1.005-1.591 19.055 19.055 0 0 1 2.748-11.26 27.348 27.348 0 0 0 3.205 7.396c.99-6.212 4.062-11.929 8.732-16.256.416-.115.837-.212 1.267-.296C11.293 5.33 7.923 11.5 7.03 18.218a28.328 28.328 0 0 0 10.321 9.294 29.117 29.117 0 0 0 13.608 3.372h.543a20.266 20.266 0 0 0 5.87-6.012 19.754 19.754 0 0 0 2.871-7.82 19.083 19.083 0 0 1-3.16 13.815 29.932 29.932 0 0 1-5.395.627 23.902 23.902 0 0 1-5.518 2.759 27.173 27.173 0 0 0 10.791-3.24c-.28.397-.57.777-.878 1.153a27.504 27.504 0 0 1-12 2.785h-.304c-1.926.46-3.902.69-5.884.69h-.906a25.405 25.405 0 0 1-7.025-1.238 25.813 25.813 0 0 0 4.902 4.355 20.822 20.822 0 0 1-1.942-.659 25.167 25.167 0 0 1-1.91-1.684c.258.41.534.813.815 1.211a19.977 19.977 0 0 1-8.266-7.232z"/>
    </g>
    <defs>
        <clipPath id="a">
            <path fill="#fff" d="M0 0h105.008v40H0z"/>
        </clipPath>
    </defs>
</svg>
