<svg width="127" height="48" fill="none" xmlns="http://www.w3.org/2000/svg">
    <g clip-path="url(#a)">
        <path d="M59.722 17.31a6.013 6.013 0 0 1-2.36-.433 5.898 5.898 0 0 1-1.985-1.317 5.749 5.749 0 0 1-1.35-1.94 5.633 5.633 0 0 1-.443-2.304 5.643 5.643 0 0 1 .445-2.304c.308-.73.767-1.39 1.348-1.94a5.914 5.914 0 0 1 1.987-1.313c.748-.3 1.55-.448 2.358-.433h6.834v4.212h-6.834a1.82 1.82 0 0 0-1.271.515c-.337.33-.527.776-.527 1.241 0 .466.19.913.527 1.242.337.33.795.514 1.271.514h2.173a6.24 6.24 0 0 1 2.352.458 6.12 6.12 0 0 1 1.99 1.305 5.957 5.957 0 0 1 1.323 1.954c.305.73.458 1.511.452 2.3 0 .785-.158 1.564-.466 2.29a5.962 5.962 0 0 1-1.33 1.94 6.125 6.125 0 0 1-1.99 1.294 6.24 6.24 0 0 1-2.347.449h-6.834v-4.244h6.834a1.82 1.82 0 0 0 1.271-.515c.338-.329.527-.775.527-1.241 0-.466-.19-.913-.527-1.242a1.82 1.82 0 0 0-1.271-.514l-2.157.026zM89.311 25.04V5.367h8.274a6.024 6.024 0 0 1 2.358.432c.748.3 1.424.747 1.987 1.314.581.55 1.04 1.21 1.348 1.94.309.73.46 1.514.445 2.304a5.622 5.622 0 0 1-1.467 3.878 5.88 5.88 0 0 1 1.434 4.104 5.906 5.906 0 0 1-1.787 3.97 5.888 5.888 0 0 1-1.986 1.317 6.013 6.013 0 0 1-2.36.434l-8.246-.022zm4.32-15.46v3.512h3.954a1.836 1.836 0 0 0 1.271-.514c.167-.163.3-.356.39-.57a1.72 1.72 0 0 0-.39-1.913 1.836 1.836 0 0 0-1.271-.514H93.63zm0 7.73v3.512h3.927a1.82 1.82 0 0 0 1.276-.51 1.704 1.704 0 0 0 .522-1.246 1.71 1.71 0 0 0-.134-.674 1.744 1.744 0 0 0-.39-.57 1.793 1.793 0 0 0-1.274-.512H93.63z" fill="#fff"/>
        <path d="m70.858 19.034 7.763-13.73 11.027 19.667h-4.997l-4.846-8.732-8.947 2.795z" fill="#fff"/>
        <path d="m67.589 24.97 1.597-2.928 6.073-1.894-2.672 4.822h-4.998zM106.7 19.034l7.757-13.73 11.033 19.667h-4.998l-4.85-8.732-8.942 2.795z" fill="#fff"/>
        <path d="m103.43 24.97 1.597-2.928 6.073-1.894-2.673 4.822h-4.997zM58.04 37.178a4.487 4.487 0 0 1-3.135-1.268 4.278 4.278 0 0 1-1.299-3.06c0-1.149.468-2.25 1.299-3.062a4.487 4.487 0 0 1 3.134-1.268h4.954v3.056H58.04c-.258 0-.51.074-.726.213a1.28 1.28 0 0 0-.481.572 1.245 1.245 0 0 0 .284 1.39 1.273 1.273 0 0 0 .923.371h1.564c1.176 0 2.304.456 3.135 1.268a4.278 4.278 0 0 1 1.298 3.061c0 1.148-.467 2.25-1.298 3.061a4.487 4.487 0 0 1-3.135 1.268H54.65v-3.056h4.954c.259.001.512-.073.727-.213a1.28 1.28 0 0 0 .481-.572 1.247 1.247 0 0 0-.284-1.39 1.263 1.263 0 0 0-.924-.37H58.04zM68.632 37.178v5.602h-3.13V28.52h5.976c.877 0 1.734.254 2.463.73a4.353 4.353 0 0 1 1.633 1.943c.335.79.423 1.661.252 2.5a4.299 4.299 0 0 1-1.213 2.217c-.406.41-.894.733-1.433.951a4.36 4.36 0 0 1-1.702.317h-2.846zm0-5.602v2.546H71.5c.258.001.511-.073.726-.213a1.28 1.28 0 0 0 .482-.572 1.246 1.246 0 0 0-.284-1.39 1.245 1.245 0 0 0-.924-.371h-2.868zM96.607 37.178v5.602h-3.129V28.52h5.976a4.505 4.505 0 0 1 2.464.727 4.344 4.344 0 0 1 1.633 1.941c.336.791.424 1.662.252 2.501a4.288 4.288 0 0 1-1.215 2.216c-.325.326-.701.6-1.113.812l3.015 6.063h-3.45l-2.787-5.602h-1.646zm0-5.602v2.546h2.869c.258.001.51-.073.726-.213.215-.14.382-.34.481-.572.099-.233.125-.49.074-.737a1.26 1.26 0 0 0-.358-.653 1.267 1.267 0 0 0-.923-.371h-2.869zM111.633 31.576V42.78h-3.129V31.576h-3.129V28.52h9.387v3.056h-3.129zM120.666 37.178a4.485 4.485 0 0 1-3.134-1.268 4.276 4.276 0 0 1-1.299-3.06c0-1.149.467-2.25 1.299-3.062a4.485 4.485 0 0 1 3.134-1.268h4.954v3.056h-4.954c-.258 0-.511.074-.726.213-.215.14-.383.34-.481.572a1.25 1.25 0 0 0 .284 1.39 1.274 1.274 0 0 0 .923.371h1.564c1.176 0 2.304.456 3.135 1.268a4.279 4.279 0 0 1 1.298 3.061c0 1.148-.467 2.25-1.298 3.061a4.488 4.488 0 0 1-3.135 1.268h-4.954v-3.056h4.954c.259.001.511-.073.726-.213.215-.14.383-.339.482-.572a1.26 1.26 0 0 0-.284-1.39 1.27 1.27 0 0 0-.924-.37h-1.564zM82.646 32.101l-3.406-1.103a6.988 6.988 0 0 0-1.146 1.713l2.982.977a4.205 4.205 0 0 1 1.57-1.587zM80.788 36.929a6.454 6.454 0 0 1-.092-.303c-.028-.1-.038-.175-.055-.26a4.004 4.004 0 0 1-.032-1.3l-2.988-.975a7.469 7.469 0 0 0-.174 1.591v.462l3.417 1.108a3.002 3.002 0 0 1-.076-.323z" fill="#fff"/>
        <path d="M89.91 30.625a7.378 7.378 0 0 0-4.56-2.059 7.43 7.43 0 0 0-4.843 1.306l1.96.647 3.69 1.194c.53.172 1.02.444 1.443.8.422.357.769.792 1.02 1.28a4.08 4.08 0 0 1 .236 3.172 4.131 4.131 0 0 1-.82 1.41c-.365.413-.81.751-1.31.996a4.336 4.336 0 0 1-3.248.23l-5.524-1.793-.18-.053h-.027a7.1 7.1 0 0 0 1.637 2.79 7.321 7.321 0 0 0 2.725 1.807 7.472 7.472 0 0 0 6.394-.533 7.238 7.238 0 0 0 2.372-2.23 7.036 7.036 0 0 0 1.129-3.022 6.983 6.983 0 0 0-.343-3.199 7.118 7.118 0 0 0-1.746-2.727l-.005-.016z" fill="#fff"/>
        <path d="M24.653 40.816a31.26 31.26 0 0 0 4.47.383 28.364 28.364 0 0 0 8.192-3.401A35.702 35.702 0 0 1 21.3 33.763a34.775 34.775 0 0 1-12.335-10.76 30.202 30.202 0 0 0-.163 3.15c-.001 2.75.344 5.488 1.026 8.154a31.494 31.494 0 0 0 14.825 6.51zM7.416 33.205a34.96 34.96 0 0 0 2.472 4.419c.157.233.31.466.472.695a32.47 32.47 0 0 1-1.179-3.597c-.613-.483-1.2-.992-1.765-1.517z" fill="#E03B28"/>
        <path d="M26.136 41.762a29.094 29.094 0 0 1-1.603-.212 32.214 32.214 0 0 1-14.357-6.043 32.747 32.747 0 0 0 1.83 4.775 29.668 29.668 0 0 0 9.088 1.745 30.452 30.452 0 0 0 5.041-.265zM8.866 33.496a33.397 33.397 0 0 1-.543-11.453 33.439 33.439 0 0 1-3.976-8.25A36.814 36.814 0 0 0 6.628 31.38c.725.743 1.47 1.449 2.238 2.117zM23.55 24.659h-2.478v2.217h2.477a1.148 1.148 0 0 0 .803-.324 1.095 1.095 0 0 0-.004-1.57 1.133 1.133 0 0 0-.804-.323h.005z" fill="#E03B28"/>
        <path d="M25.229 0c-4.861 0-9.612 1.408-13.654 4.045-4.041 2.637-7.191 6.385-9.051 10.77a23.479 23.479 0 0 0-1.398 13.867A23.832 23.832 0 0 0 7.85 40.971a24.764 24.764 0 0 0 12.583 6.568c4.767.926 9.708.45 14.199-1.366 4.49-1.816 8.329-4.892 11.029-8.84A23.602 23.602 0 0 0 49.804 24c-.009-6.363-2.601-12.462-7.208-16.961C37.99 2.539 31.744.009 25.23 0zM27.4 25.756a3.69 3.69 0 0 1-.29 1.442 3.762 3.762 0 0 1-.832 1.224c-.357.351-.781.63-1.248.82-.468.191-.97.29-1.476.291h-5.198v-9.517h2.716V22h2.493a1.147 1.147 0 0 0 .803-.323 1.097 1.097 0 0 0 .327-.786 1.8 1.8 0 0 0-.342-.864 5.936 5.936 0 0 0 2.374-1.321c.422.654.66 1.407.69 2.18.02.903-.31 1.78-.924 2.456.6.667.925 1.527.913 2.414H27.4zm-6.85-15.321a1.086 1.086 0 0 0 .815.329h1.39c1.044 0 2.044.405 2.782 1.125a3.796 3.796 0 0 1 1.152 2.716c0 .504-.102 1.004-.3 1.47-.197.466-.487.889-.852 1.246-.365.356-.799.64-1.276.832a4.015 4.015 0 0 1-1.505.293h-4.395v-2.711h4.395c.307 0 .601-.12.818-.331.217-.212.339-.5.339-.8 0-.299-.122-.586-.339-.798a1.171 1.171 0 0 0-.818-.331h-1.39a3.981 3.981 0 0 1-2.778-1.127 3.796 3.796 0 0 1-1.15-2.714c0-1.018.413-1.994 1.15-2.714a3.981 3.981 0 0 1 2.777-1.127h4.4v2.695h-4.4c-.228.003-.45.07-.638.196a1.14 1.14 0 0 0-.422.507 1.11 1.11 0 0 0 .245 1.228v.016zm9.333 3.851L34.626 5.9l6.736 12.016h-3.053l-2.96-5.337-5.465 1.709zm2.689.68-1.63 2.95h-3.058l.978-1.789 3.71-1.161zM28.72 27.75l3.705-1.157-1.63 2.944h-3.052l.977-1.787zm1.022-1.841 2.412-4.244 3.259-5.793 7.85 13.703-3.032-.032-3.406-6.143-7.083 2.509zM4.928 36.472a27.72 27.72 0 0 0 5.433 3.125 39.43 39.43 0 0 1-1.087-1.592 35.149 35.149 0 0 1-3.26-6.244 34.706 34.706 0 0 1-3.487-4.318 39.124 39.124 0 0 1-1.206-1.91 22.866 22.866 0 0 1 3.297-13.512 32.819 32.819 0 0 0 3.847 8.876c1.19-7.455 4.874-14.315 10.478-19.507a20.42 20.42 0 0 1 1.521-.356C14.205 6.394 10.161 13.8 9.09 21.862a33.994 33.994 0 0 0 12.386 11.153 34.94 34.94 0 0 0 16.329 4.046h.652a24.32 24.32 0 0 0 7.044-7.215 23.705 23.705 0 0 0 3.445-9.384 22.9 22.9 0 0 1-3.792 16.578c-2.13.447-4.297.699-6.474.753a28.683 28.683 0 0 1-6.622 3.31 32.609 32.609 0 0 0 12.95-3.888c-.337.477-.684.934-1.054 1.384a33.006 33.006 0 0 1-14.4 3.343h-.364c-2.312.55-4.683.828-7.062.827H21.04a30.486 30.486 0 0 1-8.43-1.485 30.972 30.972 0 0 0 5.883 5.225c-.79-.225-1.568-.489-2.33-.79a30.184 30.184 0 0 1-2.293-2.021c.31.493.64.976.978 1.453a23.973 23.973 0 0 1-9.92-8.679z" fill="#E03B28"/>
    </g>
    <defs>
        <clipPath id="a">
            <path fill="#fff" transform="translate(.653)" d="M0 0h126.01v48H0z"/>
        </clipPath>
    </defs>
</svg>
