<svg width="56" height="56" viewBox="0 0 56 56" fill="none" xmlns="http://www.w3.org/2000/svg">
    <path fill-rule="evenodd" clip-rule="evenodd" d="M32 38.067c4.41 0 8 3.611 8 8.053 0 4.44-3.59 8.053-8 8.053s-8-3.612-8-8.053c0-4.442 3.59-8.053 8-8.053zm6.35 10.073c-.058.052-.108.105-.17.157-.262.235-.592.434-.952.626-.368.17-.776.331-1.22.404-.44.096-.922.087-1.323.094a15.52 15.52 0 0 0-1.273.07c-.836.081-1.69.254-2.276.593-.288.175-.446.377-.497.602-.042.234.019.526.128.791.223.538.55.98.766 1.282l.037.05c.143.008.285.021.43.021 2.973 0 5.495-1.974 6.35-4.69zm-5.533-8.675a6.283 6.283 0 0 0-.642.595c-.32.33-.682.734-1.058 1.184a37.92 37.92 0 0 1-1.214 1.408c-.216.236-.436.474-.672.7a4.842 4.842 0 0 1-.767.627c-.359.167-.632.294-.945.341-.3.072-.58.068-.838.076-.255-.02-.487-.028-.687-.076a2.837 2.837 0 0 1-.38-.093 6.717 6.717 0 0 0-.274 1.893c0 3.254 2.312 5.974 5.369 6.582-.03-.031-.058-.058-.087-.092a4.12 4.12 0 0 1-.56-.796c-.172-.323-.341-.744-.28-1.265.04-.257.142-.519.303-.735.165-.21.365-.372.572-.507.42-.256.871-.398 1.32-.497a10.2 10.2 0 0 1 1.357-.192c.451-.035.9-.049 1.344-.046.459-.006.835.03 1.205-.027.75-.081 1.401-.401 1.902-.76.327-.223.587-.464.796-.685a6.79 6.79 0 0 0 .079-.98c0-3.42-2.555-6.247-5.843-6.654v-.001zM16 19.945c8.144 0 14.89 6.161 15.876 14.097l.125-.003c-1.741 0-3.395.373-4.888 1.044L25.837 30.2l-4.345-1.346-3.808 4.993 2.344 6.216 1.477.193A12.09 12.09 0 0 0 20 46.12c0 .835.084 1.649.245 2.437l-1.93.781v.169a13.32 13.32 0 0 0 2.026-.518c.195.804.469 1.579.816 2.312a15.82 15.82 0 0 1-5.156.858C7.176 52.16 0 44.933 0 36.053c0-8.881 7.177-16.106 16-16.106v-.001zM9.3 44.14l-2.085 2.32a13.458 13.458 0 0 0 8.787 3.264c.435 0 .867-.027 1.293-.072l.424-.05v-.361l-2.569-3.379L9.3 44.14zm.918-11.222-3.508 4.24 2.71 6.393 5.805 1.709 4.243-4.982-2.343-6.212-6.906-1.148h-.001zm21.781 6.49c-2.809 0-5.213 1.767-6.189 4.252l.234-.011c.183.001.384-.037.603-.049.21-.05.448-.057.67-.14.227-.044.466-.179.647-.25a3.94 3.94 0 0 0 .659-.508c.216-.198.434-.419.647-.642.43-.45.855-.919 1.282-1.338.424-.419.822-.816 1.207-1.12.087-.067.171-.131.254-.192H32v-.001zM35 1.829c11.599 0 21 9.463 21 21.139a21.147 21.147 0 0 1-12.598 19.38 12.064 12.064 0 0 0-1.431-2.952 17.824 17.824 0 0 0 7.36-5.892c-4.69-1.696-14.237-6.273-14.28-15.432a36.347 36.347 0 0 0-4.84.057c0 .19-.012.357-.012.555 0 1.151.08 2.295.22 3.42a19.939 19.939 0 0 0-1.773-1.648 27.074 27.074 0 0 1-.058-1.772c0-.143.007-.268.007-.407-.875.1-1.729.225-2.548.366a19.71 19.71 0 0 0-2.609-1.283 5.942 5.942 0 0 0-1.551-2.748l-.242-.225-1.456-1.28a17.659 17.659 0 0 0-1.583 2.983 20.254 20.254 0 0 0-3.365-.154l-.052.001C18.069 7.716 25.85 1.828 35 1.828zM9.8 26.88H5.962a13.646 13.646 0 0 0-3.543 9.173c0 .169.011.335.023.501l.016.252h3.767l3.575-4.32v-5.607zm26.88-8.684c.145 8.222 9.431 12.424 13.578 13.893a17.809 17.809 0 0 0 2.506-8.596l.008-.526-.007-.141c-2.423-1.32-7.524-3.176-14.168-4.36a29.873 29.873 0 0 0-1.917-.27zm-19.04 4.296-.695 1.463 4.32 4.2 4.575 1.417.367-2.505c-2.15-2.473-5.162-4.158-8.566-4.575h-.001zm-1.64-.11c-3.545 0-6.77 1.38-9.188 3.623l-.286.274h3.515l6.324-2.492.643-1.353c-.333-.023-.668-.052-1.008-.052zM42.49 10.21c-1.602.288-5.14 1.489-5.733 6.356.706.075 1.415.174 2.123.3 3.53.629 9.415 2.083 13.26 3.845l.51.242a17.837 17.837 0 0 0-4.355-9.813c-1.678-.89-3.78-1.294-5.805-.93zM31.386 5.456c-3.96.825-7.435 2.987-9.952 5.987l-.286.346 1.56 1.374c1.127.996 1.87 2.284 2.25 3.668l.081.32a47.642 47.642 0 0 1 3.586-.533c.215-6.051 1.378-9.37 2.76-11.162zm3.662-.373v.014c-1.067 0-4.396.866-4.805 11.384a37.884 37.884 0 0 1 4.911-.036c.502-4.223 3.048-7.115 7.05-7.837a10.554 10.554 0 0 1 3.261-.064 17.56 17.56 0 0 0-10.418-3.46zm-13.94 6.673-.049.157.09-.121-.04-.035v-.001z" fill="#26324D"/>
</svg>
