<svg width="24" height="24" viewBox="0 0 24 24" fill="none" xmlns="http://www.w3.org/2000/svg">
<path d="M11.8456 1.00073C9.6144 1.00073 5.50033 1.57799 3.40536 2.79614C0.647008 12.5754 4.39853 19.2261 11.8456 23.0007C19.2927 19.2261 23.0443 12.5426 20.2859 2.79614C18.189 1.57799 14.0769 1.00073 11.8456 1.00073Z" fill="#9C824A" stroke="#9C824A" stroke-width="0.7161" stroke-miterlimit="254.649"/>
<path d="M11.8454 1.62842C9.65339 1.62842 7.18559 1.90869 3.95283 3.22841C1.54674 11.7651 4.33788 18.6073 11.8454 22.3363C19.3523 18.6073 22.1415 11.7651 19.7354 3.22841C16.5033 1.90869 14.0374 1.62842 11.8454 1.62842Z" fill="#023474" stroke="#023474" stroke-width="0.7161" stroke-miterlimit="254.649"/>
<path d="M11.8349 1.62012C9.65314 1.62012 7.31069 1.94346 5.19709 2.74377C3.00506 11.4842 4.6224 17.8668 11.8471 22.33L11.8349 1.62012ZM11.8477 22.33C19.0724 17.8668 20.6879 11.4842 18.4958 2.74377C16.3822 1.9441 14.0417 1.62012 11.86 1.62012L11.8477 22.33Z" fill="white" stroke="white" stroke-width="0.7161" stroke-miterlimit="254.649"/>
<path d="M11.8475 1.61816C9.6535 1.61816 7.43254 1.94986 5.62814 2.57854C3.35768 11.7401 5.18137 17.926 11.8494 22.1545L11.8475 1.61816Z" fill="#EF0107" stroke="#EF0107" stroke-width="0.7161" stroke-miterlimit="254.649"/>
<path d="M11.8522 1.61816C14.0461 1.61816 16.2671 1.94986 18.0734 2.57854C20.3439 11.7401 18.5202 17.926 11.8496 22.1545L11.8522 1.61816Z" fill="#DB0007" stroke="#DB0007" stroke-width="0.7161" stroke-miterlimit="254.649"/>
<path d="M9.01282 15.4418C8.04473 16.1059 7.27398 16.345 6.37982 16.5822L5.83984 15.7433C6.66202 15.3268 7.51247 14.7476 8.37 13.9087C8.44199 14.7225 8.82126 15.2998 9.01282 15.4418Z" fill="white"/>
<path d="M8.88164 15.4066C7.96305 16.0372 6.68319 16.4762 5.21883 16.6909L4.91992 16.2371C6.17471 15.7672 7.38579 15.0659 8.3256 14.0811C8.46702 14.7117 8.68365 15.1301 8.88164 15.4066Z" fill="#9C824A"/>
<path d="M6.4339 11.554C6.4339 11.9063 6.14977 12.1911 5.7975 12.1911C5.44524 12.1911 5.15918 11.9063 5.15918 11.554C5.15918 11.2018 5.44524 10.917 5.7975 10.917C6.14977 10.917 6.4339 11.2018 6.4339 11.554Z" fill="white"/>
<path d="M6.36621 10.2993V12.7028H8.25932C8.38275 11.8967 8.84044 11.0411 9.87667 10.2993H6.36621Z" fill="white"/>
<path d="M6.4416 12.7028C6.01927 12.7093 5.67086 12.1789 5.66507 11.5155C5.66121 10.8515 5.9987 10.3077 6.42296 10.2993C6.42682 10.2993 6.43132 10.2993 6.4371 10.2993" fill="white"/>
<path d="M6.16613 11.554C6.16613 11.8259 5.96814 12.0444 5.72516 12.0444C5.48217 12.0444 5.28418 11.8259 5.28418 11.554C5.28418 11.282 5.48217 11.0635 5.72516 11.0635C5.96814 11.0635 6.16613 11.282 6.16613 11.554Z" fill="#9C824A"/>
<path d="M6.41699 10.4248V12.5853H8.29597C8.44446 11.8679 8.80894 11.1049 9.71918 10.4248H6.41699Z" fill="#9C824A"/>
<path d="M6.48779 12.5853C6.08988 12.5937 5.76461 12.1154 5.75882 11.5195C5.75497 10.9236 6.07381 10.4332 6.47172 10.4248C6.47557 10.4248 6.48007 10.4248 6.48393 10.4248" fill="#9C824A"/>
<path d="M15.4408 13.2653C15.4408 15.2709 13.8176 16.8953 11.8127 16.8953C9.81027 16.8953 8.18457 15.2709 8.18457 13.2653C8.18457 11.2597 9.81027 9.63525 11.8127 9.63525C13.817 9.63525 15.4408 11.2597 15.4408 13.2653Z" fill="white"/>
<path d="M15.251 13.2653C15.251 15.1662 13.7121 16.7057 11.8125 16.7057C9.9149 16.7057 8.37598 15.1662 8.37598 13.2653C8.37598 11.3671 9.9149 9.82495 11.8125 9.82495C13.7121 9.82495 15.251 11.3645 15.251 13.2653Z" fill="#9C824A"/>
<path d="M14.6806 13.2651C14.6806 14.8503 13.3969 16.1346 11.813 16.1346C10.231 16.1346 8.94727 14.8503 8.94727 13.2651C8.94727 11.6799 10.231 10.3955 11.813 10.3955C13.3969 10.3955 14.6806 11.6799 14.6806 13.2651Z" fill="white"/>
<path d="M14.4908 13.2654C14.4908 14.7452 13.2919 15.9434 11.8128 15.9434C10.3356 15.9434 9.13672 14.7458 9.13672 13.2654C9.13672 11.7856 10.3356 10.5874 11.8128 10.5874C13.2919 10.5874 14.4908 11.785 14.4908 13.2654Z" fill="#9C824A"/>
<path d="M12.9295 13.2647C12.9314 13.8812 12.4306 14.3819 11.8148 14.3838C11.197 14.3838 10.6963 13.8831 10.6963 13.2666V13.2647C10.6963 12.6482 11.1951 12.1475 11.8129 12.1475C12.4287 12.1455 12.9295 12.6463 12.9295 13.2628C12.9295 13.2647 12.9295 13.2647 12.9295 13.2647Z" fill="white"/>
<path d="M12.7977 13.2652C12.7977 13.8097 12.3587 14.2507 11.8149 14.2507C11.271 14.2507 10.8301 13.8116 10.8281 13.2672V13.2652C10.8281 12.7208 11.2691 12.2798 11.8129 12.2798C12.3568 12.2798 12.7977 12.7188 12.7977 13.2633V13.2652Z" fill="#9C824A"/>
<path d="M12.3188 13.2655C12.3188 13.5438 12.0919 13.7708 11.8122 13.7727C11.5339 13.7727 11.3076 13.5458 11.3076 13.2655C11.3076 12.9852 11.5345 12.7602 11.8122 12.7583C12.0925 12.7583 12.3188 12.9852 12.3188 13.2655Z" fill="white"/>
<path d="M12.1791 13.2652C12.1791 13.4671 12.0165 13.6323 11.8127 13.6323C11.6109 13.6323 11.4463 13.4697 11.4463 13.2652C11.4463 13.0634 11.6109 12.8982 11.8127 12.8982C12.0145 12.8982 12.1791 13.0608 12.1791 13.2652Z" fill="#9C824A"/>
<path d="M12.1901 10.5256H11.4277V12.3043H12.1901V10.5256Z" fill="white"/>
<path d="M12.0721 10.27H11.5469V12.5315H12.0721V10.27Z" fill="#9C824A"/>
<path d="M13.9367 11.5298L14.3526 12.1688L12.8612 13.1375L12.4473 12.4985L13.9367 11.5298Z" fill="white"/>
<path d="M14.215 11.4912L14.5011 11.9322L12.606 13.1651L12.3193 12.7216L14.215 11.4912Z" fill="#9C824A"/>
<path d="M10.7435 13.4094L11.151 14.0529L9.6494 15.0056L9.24121 14.3602L10.7435 13.4094Z" fill="white"/>
<path d="M10.9987 13.3721L11.2809 13.8169L9.37366 15.0273L9.09082 14.5819L10.9987 13.3721Z" fill="#9C824A"/>
<path d="M12.1901 14.2854H11.4277V16.0641H12.1901V14.2854Z" fill="white"/>
<path d="M12.0721 14.0325H11.5469V16.292H12.0721V14.0325Z" fill="#9C824A"/>
<path d="M11.0687 14.0962C11.1716 14.183 11.2847 14.2614 11.4274 14.3212L11.4236 15.9083C10.7049 15.8157 10.1604 15.4609 9.74902 14.9563L11.072 14.0968" fill="#EF0107"/>
<path d="M11.0687 14.0962C11.1716 14.183 11.2847 14.2614 11.4274 14.3212L11.4236 15.9083C10.7049 15.8157 10.1604 15.4609 9.74902 14.9563L11.072 14.0968" stroke="#EF0107" stroke-width="0.2813" stroke-miterlimit="254.649"/>
<path d="M12.554 14.1027C12.4492 14.1869 12.3374 14.2679 12.1953 14.3251L12.1972 15.9122C12.9159 15.8197 13.4604 15.4648 13.8724 14.9596L12.5521 14.1021" fill="#DB0007"/>
<path d="M12.554 14.1027C12.4492 14.1869 12.3374 14.2679 12.1953 14.3251L12.1972 15.9122C12.9159 15.8197 13.4604 15.4648 13.8724 14.9596L12.5521 14.1021" stroke="#DB0007" stroke-width="0.2813" stroke-miterlimit="254.649"/>
<path d="M12.9147 13.4362L14.4883 13.2466C14.5005 13.64 14.406 13.9865 14.2717 14.3188L12.9102 13.4369" fill="#DB0007"/>
<path d="M12.917 13.4298C12.9234 13.4054 12.9208 13.3822 12.9311 13.3102L14.4842 13.1084C14.4906 13.1804 14.4861 13.2074 14.4842 13.2402L12.917 13.4298Z" fill="white" stroke="white" stroke-width="0.2813" stroke-miterlimit="254.649"/>
<path d="M15.2158 12.1216H17.2536C17.1899 12.3626 17.1276 12.6082 16.8351 12.7175C16.3678 12.893 15.3971 13.062 15.3971 13.062C15.3785 12.7959 15.3193 12.4346 15.2158 12.1216Z" fill="white"/>
<path d="M13.7969 10.2642L19.1201 10.2706L18.9324 12.2164L15.2966 12.406C15.1012 11.5357 14.4397 10.7051 13.7969 10.2642Z" fill="white"/>
<path d="M13.9863 10.4021L20.7829 10.4085L20.5232 11.9937L15.2495 12.2534C15.0412 11.4653 14.5655 10.8906 13.9863 10.4021Z" fill="#9C824A"/>
<path d="M15.2158 12.1216H17.0922C17.0305 12.3356 16.9874 12.5317 16.711 12.6288C16.272 12.7856 15.3887 12.909 15.3887 12.909C15.3521 12.6513 15.2981 12.3896 15.2158 12.1216Z" fill="#9C824A"/>
<path d="M13.1564 7.43774C13.1564 7.52452 13.1377 7.76172 13.1275 7.82729H14.1823C14.118 7.54702 14.0898 7.15747 14.0814 6.85663C14.0814 6.8772 14.0628 6.25238 14.0628 6.25238C14.0628 6.20931 14.0814 6.1431 14.1078 6.12252C14.145 6.07946 14.1817 6.07946 14.2273 6.07946C14.2723 6.05888 14.3552 6.05889 14.3655 6.22988L14.3925 6.8772C14.4028 7.17997 14.4028 7.59073 14.3655 7.82729H15.3812C15.3728 7.74051 15.3439 7.52452 15.3356 7.46024C15.4635 7.74051 15.7392 7.89093 16.1063 7.89093C16.3249 7.89093 16.4913 7.80608 16.6193 7.71994C16.6193 7.74051 16.6726 7.82729 16.6726 7.82729H18.56C18.4777 7.54702 18.4237 7.15747 18.3954 6.85663L18.1299 4.74174L17.1599 4.56882C17.2422 4.84909 17.2981 5.25921 17.3328 5.53948L17.4813 6.90034C17.5083 7.13754 17.5269 7.39724 17.5269 7.67751V7.69808L17.4897 7.6113C17.4157 7.43838 17.3804 7.22368 17.3514 6.90034L17.3167 6.46772C17.2608 5.77733 16.886 5.47584 16.06 5.47584C15.9244 5.47584 15.576 5.49641 15.3638 5.56263L15.4198 6.33787L15.6403 6.20995C15.8235 6.10067 15.9597 6.0576 16.1243 6.0576C16.2541 6.0576 16.3364 6.10067 16.3737 6.18745C16.2175 6.20995 16.0439 6.25366 15.8505 6.33787C15.558 6.46772 15.3748 6.66378 15.2918 6.87784V6.85727L15.2629 6.14374C15.2462 5.6899 14.9518 5.38906 14.5025 5.38906C14.3025 5.38906 14.1193 5.4527 13.9548 5.56198C13.9445 5.53948 13.9361 5.51891 13.9258 5.49577L13.8886 5.40899L13.0458 5.36592C13.0831 5.51827 13.1384 5.9496 13.1467 6.10003C13.1011 5.88532 12.9822 5.64876 12.7617 5.4752C12.5888 5.36592 12.3683 5.30228 12.1394 5.30228C11.8283 5.30228 11.5069 5.43213 11.2967 5.64876C11.0762 5.86282 10.9669 6.16624 10.9566 6.51079C10.8744 6.42401 10.7651 6.3398 10.6372 6.29673L10.2521 6.10067H10.2335C10.1428 6.0576 10.1325 6.03639 10.1325 6.01582C10.1428 5.97275 10.2335 5.92903 10.353 5.92903C10.5176 5.92903 10.7464 6.01582 10.9296 6.12317L10.9483 5.43278C10.8101 5.36656 10.6185 5.32542 10.3427 5.32542C10.1962 5.32542 9.92234 5.34599 9.68321 5.47584C9.61957 5.51891 9.56364 5.56263 9.51029 5.60569L9.51864 5.40963C9.29816 5.36849 9.0616 5.36849 8.76847 5.64876C8.75818 5.62627 8.73954 5.51891 8.7209 5.47584L7.81452 5.51891C7.87816 5.77669 7.88844 6.14374 7.87045 6.46708L7.8518 6.81356V6.85663C7.84152 7.02955 7.83316 7.22368 7.81452 7.3966C7.74059 7.15747 7.66024 6.83413 7.59403 6.57636L7.1447 4.54761L5.86355 4.7411C5.87191 4.76167 5.89055 4.82788 5.90083 4.89152C5.90919 4.9783 5.90919 5.15122 5.78963 5.51827C5.57942 6.09938 5.28694 6.98584 5.00281 7.61066C4.96553 7.69744 4.8916 7.82729 4.8916 7.82729H5.89055C5.90919 7.67687 5.97283 7.41717 6.03711 7.22304C6.17532 7.22304 6.53144 7.22304 6.69601 7.20054C6.73329 7.35289 6.76993 7.54702 6.78022 7.67687L6.79693 7.82729H8.79547C8.74983 7.50331 8.76847 7.07262 8.78518 6.83349C8.80382 6.55322 8.85911 6.35908 8.97867 6.25238C9.06931 6.1431 9.17023 6.12252 9.24416 6.12252C9.23387 6.51015 9.48136 6.68307 9.70121 6.79042L10.0946 6.98648C10.2328 7.07326 10.2328 7.09383 10.2328 7.1369C10.2245 7.20054 10.1133 7.22368 10.0123 7.22368C9.80213 7.22368 9.518 7.09383 9.20687 6.74928L9.18823 7.65437C9.43572 7.78422 9.74685 7.84786 10.0226 7.84786C10.4797 7.84786 10.9663 7.63316 11.0942 7.22304C11.323 7.65373 11.7717 7.84786 12.2127 7.84786C12.6061 7.84786 12.8986 7.71994 13.1564 7.43774ZM6.2756 6.55322C6.33153 6.4028 6.37652 6.27295 6.4588 6.03574C6.51473 6.27295 6.54109 6.42337 6.56808 6.53265C6.4588 6.55322 6.40288 6.55322 6.2756 6.55322ZM11.8829 6.31601C11.8829 6.01517 11.9922 5.88532 12.1015 5.88532C12.1388 5.88532 12.2211 5.86282 12.2577 6.01517C12.2764 6.07881 12.2847 6.12252 12.2847 6.1431C12.2847 6.22988 12.2397 6.25238 12.1838 6.25238V6.27295C12.1838 6.27295 12.0295 6.31601 11.8829 6.38223C11.8829 6.35973 11.8829 6.33916 11.8829 6.31601ZM12.9275 6.94277C12.734 7.11376 12.5958 7.22304 12.367 7.22304C12.1838 7.20054 12.0745 7.09319 12.0109 6.94277C12.2024 6.87656 12.9443 6.59629 13.1564 6.51015C13.1564 6.68307 13.1647 6.8772 13.1647 6.8772V7.24425L12.9275 6.94277ZM16.3429 7.24425C16.1699 7.24425 16.1327 7.1144 16.1243 7.02955C16.1327 6.94277 16.159 6.81292 16.4354 6.72678C16.4438 6.83413 16.4541 6.92027 16.4541 6.92027V7.00705C16.4624 7.07326 16.4624 7.1369 16.4708 7.20054C16.4354 7.22304 16.3904 7.22304 16.3429 7.24425Z" fill="#9C824A"/>
<path d="M10.7911 5.53874C10.7004 5.51817 10.5622 5.4751 10.3417 5.4751C10.1688 5.4751 9.93998 5.51817 9.76513 5.60495C9.56329 5.7348 9.41672 5.90579 9.40901 6.10185C9.39037 6.40269 9.54722 6.53254 9.77542 6.63989C9.9297 6.72668 10.0782 6.81281 10.1688 6.85653C10.2884 6.92017 10.3977 6.98638 10.3893 7.1368C10.379 7.28722 10.2408 7.3965 10.0126 7.3965C9.82106 7.3965 9.54722 7.26665 9.35308 7.09373L9.34473 7.54756C9.50929 7.63434 9.77542 7.67741 10.0223 7.67741C10.4427 7.67741 10.9659 7.48392 10.9743 7.00759C10.9846 6.64054 10.7268 6.51069 10.5725 6.42648C10.4157 6.36027 10.2595 6.27413 10.1875 6.25356C10.1135 6.21049 9.96698 6.16678 9.97726 5.99386C9.99398 5.84344 10.1688 5.77722 10.352 5.77722C10.5063 5.77722 10.6632 5.82029 10.7827 5.8865" fill="white"/>
<path d="M7.02644 4.74121L6.05384 4.87106C6.07249 5.00091 6.0352 5.25868 5.93428 5.56145C5.73436 6.14257 5.40459 7.11388 5.14746 7.67635H5.753C5.78771 7.48029 5.83335 7.30929 5.92592 7.07209L6.82395 7.04959C6.85866 7.22251 6.92487 7.50343 6.93323 7.67635H7.74897C7.64805 7.43722 7.52013 6.94224 7.43784 6.5964L7.02644 4.74121ZM6.05449 6.70375L6.49546 5.4316L6.76095 6.68318" fill="white"/>
<path d="M9.35359 5.53809L9.33495 5.97071C9.18839 5.94821 9.00518 5.99128 8.85926 6.1417C8.73134 6.27155 8.64906 6.46568 8.63041 6.81152C8.61177 7.09179 8.60342 7.41578 8.62013 7.67548H7.93359C7.97923 7.41578 7.99723 7.11494 8.00559 6.83209L8.02423 6.48754C8.04287 6.20727 8.04287 5.927 7.99723 5.66729L8.60277 5.64672C8.62977 5.7335 8.64841 5.88393 8.63813 6.03435C8.90426 5.62487 9.16139 5.53809 9.35359 5.53809Z" fill="white"/>
<path d="M17.9923 4.87149L17.3682 4.76221C17.4318 5.04441 17.4504 5.23854 17.4877 5.51881L17.6343 6.8771C17.6632 7.15737 17.6902 7.41707 17.6819 7.67677H18.3594C18.2932 7.41707 18.2668 7.15737 18.2398 6.8771" fill="white"/>
<path d="M15.1976 7.67669C15.1623 7.41699 15.1443 7.15729 15.1333 6.87702L15.1063 6.16606C15.0877 5.77651 14.8672 5.56181 14.5008 5.56181C14.3009 5.56181 14.0617 5.62544 13.8599 5.88515C13.8515 5.81893 13.8226 5.64794 13.786 5.56181L13.2383 5.53931C13.2833 5.79901 13.3019 6.05678 13.3103 6.33705L13.3206 6.87702C13.3289 7.15729 13.3206 7.41699 13.3019 7.67669H13.9878C13.9525 7.41699 13.9345 7.15729 13.9242 6.87702L13.9055 6.27277C13.8972 6.05614 14.0624 5.90572 14.2269 5.90572C14.4185 5.90572 14.5111 6.03557 14.5194 6.2297L14.5484 6.87702C14.5567 7.15729 14.5567 7.41699 14.5381 7.67669" fill="white"/>
<path d="M17.3419 7.67723C17.2596 7.4606 17.214 7.20089 17.1953 6.92062L17.158 6.48993C17.1208 5.97246 16.9028 5.62598 16.0582 5.62598C15.9116 5.62598 15.702 5.64848 15.5285 5.68962L15.5555 6.07917C15.7284 5.97182 15.9039 5.88568 16.1244 5.88568C16.3532 5.88568 16.5448 5.99303 16.5634 6.31637C16.3429 6.33887 16.1411 6.38001 15.9122 6.48929C15.657 6.59664 15.3909 6.81327 15.4179 7.15718C15.4449 7.54673 15.7393 7.71965 16.1057 7.71965C16.3899 7.71965 16.5814 7.5898 16.6907 7.45995C16.7093 7.54673 16.7383 7.61037 16.7646 7.67658L17.3419 7.67723ZM16.3423 7.39696C16.1404 7.39696 15.9759 7.28768 15.9675 7.05047C15.9675 6.81327 16.1141 6.61978 16.5814 6.55357L16.6084 6.92062C16.6187 7.05047 16.6187 7.13725 16.6373 7.24461C16.5711 7.33074 16.4619 7.37446 16.3423 7.39696Z" fill="white"/>
<path d="M12.6693 5.60523C12.5131 5.49595 12.3293 5.45288 12.1377 5.45288C11.6884 5.45288 11.0931 5.77686 11.1118 6.59711C11.1201 7.43792 11.7629 7.69762 12.2116 7.69762C12.605 7.69762 12.8442 7.5472 13.0357 7.35307L12.8975 7.15701C12.7966 7.24379 12.632 7.37364 12.3659 7.37364C12.0818 7.35307 11.9005 7.15701 11.7996 6.85617L13.0441 6.40233C13.0074 5.99285 12.8609 5.75565 12.6693 5.60523ZM12.2386 6.40297L11.7443 6.59646C11.734 6.50968 11.7257 6.42354 11.7257 6.31619C11.7257 5.81929 11.9995 5.73251 12.0921 5.73251C12.2386 5.71194 12.3659 5.79872 12.4135 5.97164C12.4675 6.16577 12.4488 6.33934 12.2386 6.40297Z" fill="white"/>
<path d="M9.30762 12.022L9.7261 11.385L11.2129 12.3582L10.7951 12.9972L9.30762 12.022Z" fill="white"/>
<path d="M9.16895 11.8033L9.45757 11.3623L11.3468 12.601L11.0582 13.0426L9.16895 11.8033Z" fill="#9C824A"/>
<path d="M12.4824 14.0511L12.9003 13.4121L14.3878 14.3866L13.9693 15.0262L12.4824 14.0511Z" fill="white"/>
<path d="M12.3447 13.8326L12.6327 13.3916L14.522 14.6303L14.234 15.0694L12.3447 13.8326Z" fill="#9C824A"/>
</svg>
