<svg width="48" height="48" viewBox="0 0 48 48" fill="none" xmlns="http://www.w3.org/2000/svg">
<path d="M23.7603 31.1223L13.8003 21.1871C12.9603 20.3492 12.9603 18.9128 13.9203 18.1946C14.8803 17.3567 16.4403 17.4764 17.2803 18.3143L23.7603 24.8978L30.6003 18.3143C31.5603 17.4764 33.0003 17.4764 33.9603 18.3143C34.9203 19.1522 34.9203 20.4689 34.0803 21.3068L23.7603 31.1223Z" fill="#151D2D"/>
<path d="M23.7603 31.1223L13.8003 21.1871C12.9603 20.3492 12.9603 18.9128 13.9203 18.1946C14.8803 17.3567 16.4403 17.4764 17.2803 18.3143L23.7603 24.8978L30.6003 18.3143C31.5603 17.4764 33.0003 17.4764 33.9603 18.3143C34.9203 19.1522 34.9203 20.4689 34.0803 21.3068L23.7603 31.1223Z" fill="#151D2D"/>
</svg>
