<svg width="56" height="56" viewBox="0 0 56 56" fill="none" xmlns="http://www.w3.org/2000/svg">
    <path d="m16.308 36.591-4.636-5.125-4.637 5.125 4.636 5.126 4.637-5.126zM32.662 36.591l-4.636-5.125-4.637 5.125 4.637 5.126 4.636-5.126zM49.016 36.591l-4.636-5.125-4.637 5.125 4.636 5.126 4.637-5.126z" fill="#26324D"/>
    <path fill-rule="evenodd" clip-rule="evenodd" d="M33.839 20.383h19.226a2 2 0 0 1 2 2v28.185a2 2 0 0 1-2 2H3.049a2 2 0 0 1-2-2V22.383a2 2 0 0 1 2-2H33.84zM6.004 47.903h11.398V25.048H6.004v22.855zm27.752 0H22.358V25.048h11.398v22.855zm4.956 0H50.11V25.048H38.712v22.855z" fill="#26324D"/>
    <path d="m23.34 13.904 4.799-2.375 4.8 2.375-.917-5.03 3.883-3.563-5.366-.734L28.139 0l-2.4 4.577-5.366.734 3.883 3.563-.917 5.03zM38.5 14.543l-.62 3.575 3.245-1.688 3.245 1.688-.62-3.575 2.625-2.532-3.628-.522-1.622-3.253-1.622 3.253-3.628.521 2.625 2.533zM11.63 18.118l3.245-1.688 3.245 1.688-.62-3.575 2.625-2.532-3.628-.522-1.622-3.253-1.622 3.253-3.628.521 2.625 2.533-.62 3.575z" fill="#26324D"/>
</svg>
