<svg width="48" height="48" viewBox="0 0 48 48" fill="none" xmlns="http://www.w3.org/2000/svg">
<path d="M42.7144 14.8009H33.5152V9.93073C33.5152 7.9466 31.8918 6.23303 29.9077 6.23303H6.00791C4.02377 6.23303 2.40039 7.85641 2.40039 9.93073V29.0506C2.40039 31.0347 4.02377 32.7483 6.00791 32.7483H9.07429V38.9712C9.07429 39.6927 9.61542 40.3241 10.4271 40.3241C10.7879 40.3241 11.1486 40.1437 11.4192 39.8731L18.4538 32.6581H20.8889V32.8385C20.8889 34.4618 22.1515 35.7245 23.7749 35.7245H32.8839L38.4755 41.4063C38.6559 41.5867 38.9265 41.7671 39.2872 41.7671C39.9186 41.7671 40.3695 41.2259 40.3695 40.6848V35.7245H42.8046C44.3378 35.7245 45.6004 34.4618 45.6004 32.8385V17.6869C45.6004 16.1537 44.2476 14.8009 42.7144 14.8009ZM29.7273 30.1328H18.0029C17.6421 30.1328 17.3716 30.3132 17.101 30.4936L11.6897 35.995V31.3053C11.6897 30.5838 11.1486 30.0426 10.4271 30.0426H6.18828C5.55697 30.0426 5.01584 29.5015 5.01584 28.8702V10.1111C5.01584 9.4798 5.55697 8.93867 6.18828 8.93867H29.8175C30.4488 8.93867 30.99 9.4798 30.99 10.1111V28.9604C30.8998 29.5917 30.4488 30.1328 29.7273 30.1328Z" fill="#F7D00E"/>
<path d="M27.5623 12.1855H8.17188V14.8912H27.5623V12.1855Z" fill="#F7D00E"/>
<path d="M27.5623 18.1378H8.17188V20.8435H27.5623V18.1378Z" fill="#F7D00E"/>
<path d="M27.5623 24.0903H8.17188V26.796H27.5623V24.0903Z" fill="#F7D00E"/>
</svg>
