<svg width="25" height="24" viewBox="0 0 25 24" fill="none" xmlns="http://www.w3.org/2000/svg">
    <g clip-path="url(#a)">
        <path d="M12.108.5C5.755.5.583 5.633.583 12s5.172 11.5 11.525 11.5c6.353 0 11.476-5.133 11.476-11.5S18.412.5 12.107.5zm6.994 6.96L11.123 18.81l-6.205-5.725c-.542-.494-.542-1.333-.05-1.876.493-.543 1.33-.543 1.872-.05l3.99 3.703 6.205-8.934c.394-.592 1.23-.79 1.822-.395.59.395.788 1.234.394 1.826-.05.05-.05.05-.05.1z" fill="#2EB74F"/>
    </g>
    <defs>
        <clipPath id="a">
            <path fill="#fff" transform="translate(.083)" d="M0 0h24v24H0z"/>
        </clipPath>
    </defs>
</svg>
