<svg width="48" height="48" viewBox="0 0 48 48" fill="none" xmlns="http://www.w3.org/2000/svg">
<path d="M24 48C37.2548 48 48 37.2548 48 24C48 10.7452 37.2548 0 24 0C10.7452 0 0 10.7452 0 24C0 37.2548 10.7452 48 24 48Z" fill="#FF1612"/>
<path fill-rule="evenodd" clip-rule="evenodd" d="M30.1329 10.8L28.9329 12.4L26.9329 11.7334L28.1329 13.4667L26.9329 15.0667L28.7996 14.4L29.9996 16.1334V14.1334L31.9996 13.6L29.9996 12.9334L30.1329 10.8ZM36.9329 17.3334L34.9329 18L33.7329 16.4V18.4L31.7329 19.0667L33.7329 19.7334V21.7334L34.9329 20L36.9329 20.6667L35.7329 19.0667L36.9329 17.3334ZM37.4663 26.4H35.4663L34.7996 24.4L34.1329 26.4H31.9996L33.5996 27.6L32.9329 29.6L34.6663 28.4L36.2663 29.6L35.5996 27.6L37.4663 26.4ZM32.1329 32.6667L30.1329 32V30L28.9329 31.7334L26.9329 31.0667L28.1329 32.6667L26.9329 34.4L28.9329 33.7334L30.1329 35.3334V33.3334L32.1329 32.6667ZM15.4663 13.4667L13.5996 19.3334H7.59961L12.5329 22.9334L10.6663 28.6667L15.5996 25.0667L20.5329 28.6667L18.6663 22.9334L23.5996 19.3334H17.3329L15.4663 13.4667Z" fill="#FEDF00"/>
</svg>
