<svg width="48" height="48" viewBox="0 0 48 48" fill="none" xmlns="http://www.w3.org/2000/svg">
<path d="M1.7991 14.7601C1.5591 15.3601 1.3191 16.0801 1.0791 16.8001H4.7991L1.7991 14.7601Z" fill="#01247D"/>
<path d="M46.1991 33.2401C46.4391 32.5201 46.6791 31.9201 46.9191 31.2001H43.0791L46.1991 33.2401Z" fill="#01247D"/>
<path d="M6.95898 40.9201C9.71898 43.6801 13.079 45.7201 16.799 46.9201V34.3201L6.95898 40.9201Z" fill="#01247D"/>
<path d="M16.799 1.08008C12.959 2.28008 9.59898 4.32008 6.95898 7.08008L16.799 13.6801V1.08008Z" fill="#01247D"/>
<path d="M46.9192 16.8001C46.6792 16.0801 46.4392 15.4801 46.1992 14.7601L43.1992 16.8001H46.9192Z" fill="#01247D"/>
<path d="M31.1992 46.9201C34.9192 45.7201 38.2792 43.6801 41.0392 40.9201L31.1992 34.3201V46.9201Z" fill="#01247D"/>
<path d="M1.0791 31.2001C1.3191 31.9201 1.5591 32.6401 1.7991 33.2401L4.9191 31.2001H1.0791Z" fill="#01247D"/>
<path d="M41.0392 7.08008C38.2792 4.32008 34.9192 2.28008 31.1992 1.08008V13.6801L41.0392 7.08008Z" fill="#01247D"/>
<path d="M47.6392 28.2001H28.1992V47.6401C29.2792 47.4001 30.2392 47.1601 31.1992 46.9201V34.3201L41.0392 40.9201C42.1192 39.8401 43.1992 38.5201 44.0392 37.2001L34.9192 31.2001H40.6792L45.5992 34.4401C45.8392 34.0801 45.9592 33.6001 46.1992 33.2401L43.0792 31.2001H46.9192C47.2792 30.2401 47.5192 29.2801 47.6392 28.2001Z" fill="white"/>
<path d="M16.8004 1.08011V13.6801L6.96035 7.08011C5.88035 8.16011 4.92035 9.36011 4.08035 10.6801L13.2004 16.8001H7.44035L2.40035 13.4401C2.16035 13.9201 1.92035 14.2801 1.80035 14.7601L4.80035 16.8001H1.08035C0.720351 17.7601 0.480352 18.8401 0.360352 19.8001H19.8004V0.360107C18.7204 0.480107 17.7604 0.720107 16.8004 1.08011Z" fill="white"/>
<path d="M0.360352 28.2001C0.600352 29.2801 0.840351 30.2401 1.08035 31.2001H4.92035L1.80035 33.2401C2.40035 34.6801 3.12035 36.0001 3.96035 37.2001L13.0804 31.2001H16.8004V32.5201L5.88035 39.8401C6.24035 40.2001 6.60035 40.6801 6.96035 41.0401L16.8004 34.4401V47.0401C17.7604 47.4001 18.8404 47.6401 19.8004 47.7601V28.2001H0.360352Z" fill="white"/>
<path d="M46.9192 16.8001H43.1992L46.1992 14.7601C45.5992 13.3201 44.8792 11.8801 44.0392 10.6801L34.7992 16.8001H31.1992V15.3601L41.9992 8.16011C41.6392 7.80011 41.3992 7.44011 41.0392 7.08011L31.1992 13.6801V1.08011C30.2392 0.720107 29.1592 0.480107 28.1992 0.360107V19.8001H47.6392C47.5192 18.7201 47.2792 17.7601 46.9192 16.8001Z" fill="white"/>
<path d="M47.64 19.8H28.2V0.36C26.88 0.12 25.44 0 24 0C22.56 0 21.12 0.12 19.8 0.36V19.8H0.36C0.12 21.12 0 22.56 0 24C0 25.44 0.12 26.88 0.36 28.2H19.8V47.64C21.12 47.88 22.56 48 24 48C25.44 48 26.88 47.88 28.2 47.64V28.2H47.64C47.88 26.88 48 25.44 48 24C48 22.56 47.88 21.12 47.64 19.8Z" fill="#CF142B"/>
<path d="M34.9199 31.2001L44.0399 37.2001C44.6399 36.3601 45.1199 35.4001 45.5999 34.4401L40.6799 31.2001H34.9199Z" fill="#CF142B"/>
<path d="M31.1992 16.8H34.7992L44.0392 10.68C43.4392 9.84003 42.8392 9.00003 42.1192 8.16003L31.3192 15.36V16.8H31.1992Z" fill="#CF142B"/>
<path d="M16.799 31.2001H13.079L3.95898 37.2001C4.55898 38.0401 5.15898 38.8801 5.87898 39.7201L16.799 32.4001V31.2001Z" fill="#CF142B"/>
<path d="M13.1994 16.7999L3.95941 10.6799C3.35941 11.5199 2.87941 12.4799 2.39941 13.4399L7.43942 16.7999H13.1994Z" fill="#CF142B"/>
</svg>
