<svg width="166" height="40" fill="none" xmlns="http://www.w3.org/2000/svg">
    <path d="M150.174 16.46h-.845v-2.383h-.767v-.692h2.457v.692h-.845v2.384zM155.395 16.46h-.844l.076-2.383-.768 2.383h-.691l-.767-2.383.076 2.383h-.844v-3.152h1.305l.614 1.999.538-2h1.382v3.153h-.077zM52.738 26.38h-3.532v-5.23H44.6v5.23h-3.532V13.076H44.6v4.998h4.607v-4.998h3.532V26.38zM58.42 24.073l-.614 2.306H54.12l3.993-13.302h5.374l4.07 13.302h-3.609l-.69-2.306H58.42zm2.38-8.305-1.612 5.767h3.301L60.8 15.768zM68.785 13.077h7.218c1.228 0 2.15.23 2.917.692.691.462 1.075 1.384 1.075 2.691 0 .77-.077 1.461-.307 2-.23.538-.768.922-1.766 1.076v.077c.922.077 1.536.384 1.843.846.307.461.46 1.153.46 1.999 0 1.46-.306 2.46-.92 2.999-.615.538-1.69.768-3.226.768h-7.294V13.078zm5.836 5.306h.307c.46 0 .767-.077 1.075-.154.307-.077.46-.385.46-1 0-.461-.076-.769-.23-1-.154-.153-.46-.23-.998-.23h-2.918v2.384h2.304zm.153 5.074c.538 0 .998 0 1.382-.153.384-.077.538-.462.538-1.154 0-.615-.154-1-.461-1.076a4.806 4.806 0 0 0-1.229-.154h-2.61v2.537h2.38zM84.91 24.073l-.615 2.306h-3.686l3.993-13.302h5.375l4.07 13.302h-3.61l-.69-2.306h-4.838zm2.38-8.305-1.613 5.767h3.301l-1.689-5.767zM108.174 26.38h-5.989l-3.762-10.227h-.154l.154 10.226h-3.455V13.077h5.989l3.762 10.073h.154l-.154-10.073h3.532V26.38h-.077zM113.472 18.383h5.682v2.46h-5.682v2.614h6.143v2.922h-9.752V13.077h9.598V16h-6.066v2.384h.077zM121.304 13.077h6.68c1.689 0 2.917.308 3.608.846.691.538 1.075 1.768 1.075 3.537 0 1-.076 1.768-.307 2.384-.23.615-.921 1.076-2.15 1.307v.154c.845.076 1.459.307 1.843.768.384.462.614 1.077.614 1.846v2.383h-3.685v-1.768c0-.538-.077-.923-.307-1.23-.231-.308-.615-.462-1.152-.462h-2.611v3.537h-3.608V13.077zm6.373 6.767c.614 0 1.075-.154 1.151-.462.154-.307.231-.769.231-1.307 0-.615-.077-1.153-.231-1.46-.153-.308-.614-.462-1.382-.462h-2.61v3.69h2.841zM134.127 18.998v-.77c0-.23 0-.537.076-.768 0-.308.077-.538.077-.769.23-1.46.922-2.46 1.996-2.922 1.075-.461 2.304-.692 3.532-.692h.461c2.304 0 3.916.385 4.837 1.154.922.768 1.382 2.383 1.382 4.767 0 2.46-.23 4.306-.767 5.613-.538 1.307-2.304 1.922-5.298 1.922h-1.382c-.999-.077-1.92-.23-2.841-.615-.922-.384-1.459-1.076-1.843-2.23a4.347 4.347 0 0 1-.23-1.384c0-.461-.077-.923-.077-1.384v-1c.077-.384.077-.615.077-.922zm3.608.769v.769c0 .922.077 1.691.307 2.152.231.462.845.77 1.92.77 1.228 0 1.996-.231 2.303-.616.308-.384.461-1.153.461-2.306V18.69c0-.923-.153-1.538-.384-1.922-.23-.384-.844-.615-1.843-.615-1.382 0-2.226.154-2.457.538-.153.308-.23 1.307-.307 3.076 0-.077 0-.077 0 0z" fill="#9399A6"/>
    <path fill-rule="evenodd" clip-rule="evenodd" d="M21.257 5.926a.689.689 0 0 0 .691-.692V3.312a.689.689 0 0 0-.69-.692.689.689 0 0 0-.692.692v1.922c0 .385.308.692.691.692zM18.57 7.695a.689.689 0 0 0 .691-.692V5.08a.689.689 0 0 0-.691-.692.689.689 0 0 0-.691.692v1.922c.077.384.384.692.69.692zM18.57 3.235a.689.689 0 0 0 .691-.692.689.689 0 0 0-.691-.692.689.689 0 0 0-.691.692c.077.385.384.692.69.692zM23.869 8.156a.689.689 0 0 0 .69-.692.689.689 0 0 0-.69-.692.689.689 0 0 0-.691.692c.076.462.384.692.69.692z" fill="#9399A6"/>
    <path fill-rule="evenodd" clip-rule="evenodd" d="M29.166 13.077a.689.689 0 0 0-.69.692v.385c0 .384-.308.615-.692.615a.689.689 0 0 1-.69-.692v-1.615a.689.689 0 0 0-.692-.692.689.689 0 0 0-.69.692.689.689 0 0 1-.692.692.689.689 0 0 1-.69-.692V9.694a.689.689 0 0 0-.692-.692.689.689 0 0 0-.691.692v1.076a.689.689 0 0 1-.691.693.689.689 0 0 1-.691-.692V7.771a.689.689 0 0 0-.691-.692.689.689 0 0 0-.691.692v2.614a.689.689 0 0 1-.691.692.689.689 0 0 1-.691-.692v-1a.689.689 0 0 0-.691-.692.689.689 0 0 0-.691.692v2a.689.689 0 0 1-.691.692.689.689 0 0 1-.691-.692V8.618a.689.689 0 0 0-.691-.692.689.689 0 0 0-.691.692v4.229a.689.689 0 0 1-.691.692.689.689 0 0 1-.691-.692v-1.154a.689.689 0 0 0-.691-.692.689.689 0 0 0-.692.692v3.153a.689.689 0 0 1-.69.692.689.689 0 0 1-.692-.692v-1a.689.689 0 0 0-.69-.692c.46 0 .153.308.153.692V26.38l9.982 5.767 9.981-5.767V13.77c-.077-.384-.384-.692-.768-.692zm-4.53 11.303h-3.148v-2.383H18.34v2.383h-3.148v-7.458h3.148v2.537h3.148v-2.537h3.148v7.458z" fill="#9399A6"/>
</svg>
