<svg width="24" height="25" fill="none" xmlns="http://www.w3.org/2000/svg">
    <path fill-rule="evenodd" clip-rule="evenodd" d="M13.14 10.861v12.42h-2.16v-12.42c.36.12.72.18 1.08.18.36 0 .72-.06 1.08-.18zM15.3 4.081c-.24-.42-.48-.78-.72-.96-.72-.6-1.5-.96-2.46-.96-.9 0-1.74.3-2.4.9-.3.24-.54.54-.78.96-.24.42-.36 1.02-.36 1.68 0 .66.12 1.2.36 1.62.24.42.48.78.72.96.72.6 1.5.9 2.46.9s1.74-.3 2.46-.9c.3-.24.54-.54.78-.96.24-.42.36-.96.36-1.62-.12-.66-.24-1.2-.42-1.62zm-1.92 2.94c-.36.3-.78.48-1.32.48-.48 0-.9-.18-1.26-.48s-.54-.78-.54-1.32c0-.6.18-1.02.54-1.32.36-.3.78-.48 1.26-.48s.9.18 1.32.48c.36.3.54.78.54 1.32s-.18.96-.54 1.32z" fill="#FCAF17"/>
</svg>
