<svg width="24" height="24" fill="none" xmlns="http://www.w3.org/2000/svg">
    <path d="M11.894.745A10.923 10.923 0 0 0 .972 11.668v.013a10.314 10.314 0 0 0 .874 4.374A11.62 11.62 0 0 0 4.58 19.79l-.24.182.284.12-.007.309.272-.147.24.198.055-.305.303-.062-.204-.233.14-.275-.308.014-.129-.281-.18.25-.04-.01a11.423 11.423 0 0 1-2.64-3.617 10.47 10.47 0 0 1-.855-4.007h.775c-.01.526.054 1.052.19 1.56l-.09.017.133.16-.099.182h.208l.082.19.12-.165.2.054-.052-.2.169-.12-.189-.085.009-.208-.185.095-.03-.027a5.334 5.334 0 0 1-.172-1.448h1.647a7.117 7.117 0 0 0 1.56 4.491l-.12.08.182.098-.022.206.19-.082.146.147.056-.2.205-.022-.12-.168.11-.175-.207-.01L5.9 16.1l-.12.13a6.92 6.92 0 0 1-1.497-4.3h11.011a3.655 3.655 0 0 0-1.903-2.81l.032.128-.339-.095-.214.278-.136-.325h-.352l.168-.308-.223-.271.347-.06.073-.345.263.233.315-.156-.019.35.32.148-.168.12a4.02 4.02 0 0 1 2.133 3.109h1.99a5.54 5.54 0 0 0-2.5-4.441l.067.233-.519-.12-.31.434-.225-.48-.533.028.24-.48-.354-.399.522-.111.091-.526.413.337.467-.255v.532l.492.207-.348.27a5.865 5.865 0 0 1 2.805 4.782h1.42a8.04 8.04 0 0 0-1.725-4.531 6.976 6.976 0 0 0-5.413-2.422l.17.463-.6-.097-.315.522-.3-.532-.6.08.229-.567-.44-.424.586-.174.056-.608.502.349.512-.334.04.609.579.192-.252.229a7.21 7.21 0 0 1 5.492 2.531 8.266 8.266 0 0 1 1.8 4.714h.592a8.076 8.076 0 0 0-1.536-4.612 8.476 8.476 0 0 0-4.08-2.983v.226l-.258-.141-.226.186-.05-.29-.287-.06.195-.22-.13-.263.291.015.12-.265.171.24.286-.07-.08.283.129.1a8.643 8.643 0 0 1 4.164 3.074 8.47 8.47 0 0 1 1.586 4.78h2.316v-.26A10.922 10.922 0 0 0 11.894.745z" fill="#9399A6"/>
    <path d="M7.742 15.037v2.019c0 .14-.033.245-.1.317a.33.33 0 0 1-.253.107.32.32 0 0 1-.25-.11.468.468 0 0 1-.095-.314v-1.998c0-.138.032-.242.095-.312a.326.326 0 0 1 .25-.105c.103 0 .187.035.254.105.066.07.1.167.1.291zm-.345-.72a.373.373 0 0 1-.25-.09.319.319 0 0 1-.103-.254c0-.099.035-.18.105-.243a.359.359 0 0 1 .248-.097c.09 0 .17.03.24.087.07.058.105.143.105.253a.323.323 0 0 1-.102.254.357.357 0 0 1-.243.09zM10.95 14.293h-.829v2.724c0 .157-.035.274-.104.35a.354.354 0 0 1-.272.113.361.361 0 0 1-.276-.115c-.07-.076-.105-.192-.105-.348v-2.724h-.829c-.13 0-.226-.028-.289-.084a.295.295 0 0 1-.094-.228.29.29 0 0 1 .097-.23.432.432 0 0 1 .286-.085h2.415c.132 0 .229.03.292.087a.291.291 0 0 1 .097.228c0 .094-.032.17-.097.228-.065.056-.162.084-.292.084zM13.357 16.232h-1.366a.938.938 0 0 0 .095.42.67.67 0 0 0 .248.273.662.662 0 0 0 .343.092c.084 0 .16-.009.228-.028a.797.797 0 0 0 .202-.092c.065-.042.124-.088.179-.135.054-.048.125-.113.212-.195a.23.23 0 0 1 .154-.046c.071 0 .13.02.174.06a.21.21 0 0 1 .066.165.46.46 0 0 1-.074.223.895.895 0 0 1-.225.243c-.1.077-.225.14-.376.192a1.61 1.61 0 0 1-.52.076c-.448 0-.797-.127-1.046-.383s-.373-.603-.373-1.041c0-.207.03-.398.092-.573.061-.178.15-.33.268-.456.118-.126.263-.222.435-.289.172-.068.363-.102.573-.102.273 0 .507.058.701.174.196.114.343.262.44.445.097.182.146.368.146.558 0 .175-.05.29-.151.342a.954.954 0 0 1-.425.077zm-1.366-.396h1.267c-.017-.24-.082-.417-.195-.535a.572.572 0 0 0-.44-.18.561.561 0 0 0-.43.183c-.11.119-.178.296-.202.532zM17.028 16.616c0 .087-.026.18-.08.279a.944.944 0 0 1-.237.284c-.106.088-.24.16-.402.215a1.709 1.709 0 0 1-.547.081c-.431 0-.768-.125-1.01-.376-.243-.252-.364-.59-.364-1.013 0-.286.056-.54.167-.76.11-.22.27-.39.48-.508.21-.122.46-.182.752-.182.181 0 .347.026.497.08.152.052.28.12.384.204a.946.946 0 0 1 .24.268.517.517 0 0 1 .084.264.277.277 0 0 1-.094.212.316.316 0 0 1-.225.087.239.239 0 0 1-.146-.043.78.78 0 0 1-.128-.146 1.046 1.046 0 0 0-.269-.292.6.6 0 0 0-.353-.097.602.602 0 0 0-.498.243c-.127.16-.19.38-.19.66 0 .131.016.252.049.363.032.11.08.203.14.282a.621.621 0 0 0 .51.235.64.64 0 0 0 .358-.097c.1-.065.189-.164.266-.297a.683.683 0 0 1 .138-.184.262.262 0 0 1 .181-.067.27.27 0 0 1 .213.098.311.311 0 0 1 .084.207zM18.19 14.027v1.036a1.52 1.52 0 0 1 .258-.243.924.924 0 0 1 .281-.133c.103-.03.213-.046.33-.046a.96.96 0 0 1 .471.113.8.8 0 0 1 .325.327c.05.084.083.177.1.281.017.103.025.221.025.356v1.338c0 .14-.032.245-.097.317a.32.32 0 0 1-.253.107c-.23 0-.345-.141-.345-.424v-1.18c0-.223-.034-.394-.1-.514-.067-.12-.193-.181-.379-.181a.569.569 0 0 0-.338.107.634.634 0 0 0-.222.29c-.038.103-.056.288-.056.554v.924c0 .138-.032.244-.095.317a.322.322 0 0 1-.258.107c-.23 0-.346-.141-.346-.424v-3.029c0-.141.03-.247.09-.317a.319.319 0 0 1 .256-.108c.11 0 .197.036.258.108.063.071.095.177.095.317zM7.663 19.353v2.153h1.215c.097 0 .17.024.222.071a.229.229 0 0 1 .078.178.227.227 0 0 1-.076.177c-.051.045-.126.067-.224.067H7.43c-.13 0-.225-.03-.283-.087-.056-.058-.085-.151-.085-.28v-2.279c0-.121.027-.212.081-.272a.278.278 0 0 1 .216-.091c.09 0 .163.03.218.09.057.06.085.15.085.273zM10.928 21.738a1.73 1.73 0 0 1-.387.235 1.086 1.086 0 0 1-.418.076.807.807 0 0 1-.373-.082.621.621 0 0 1-.247-.229.589.589 0 0 1-.086-.31c0-.151.047-.28.143-.386a.717.717 0 0 1 .393-.214l.26-.054a7.79 7.79 0 0 0 .678-.163c-.006-.146-.036-.252-.088-.32-.051-.068-.158-.102-.32-.102-.14 0-.247.02-.318.058a.524.524 0 0 0-.181.176c-.05.078-.086.13-.107.155-.02.024-.065.036-.134.036a.241.241 0 0 1-.161-.058.198.198 0 0 1-.067-.154c0-.096.035-.19.103-.282a.736.736 0 0 1 .321-.226c.146-.06.326-.089.543-.089.242 0 .433.03.571.087a.523.523 0 0 1 .293.27c.058.124.087.288.087.493l-.002.329-.002.3c0 .104.016.212.05.325a.993.993 0 0 1 .053.216c0 .057-.027.109-.081.156a.266.266 0 0 1-.18.068c-.056 0-.112-.026-.167-.078a1.221 1.221 0 0 1-.176-.233zm-.036-.797c-.081.03-.199.062-.353.095-.154.032-.26.057-.32.073a.418.418 0 0 0-.169.09.23.23 0 0 0-.08.188c0 .084.031.155.094.214a.353.353 0 0 0 .249.087c.108 0 .209-.023.3-.07a.483.483 0 0 0 .204-.186c.05-.084.075-.22.075-.412v-.079zM12.446 19.305v.841c.103-.107.209-.19.316-.246a.836.836 0 0 1 .4-.087.84.84 0 0 1 .801.509c.077.164.115.359.115.585 0 .167-.021.32-.064.46a1.078 1.078 0 0 1-.184.361.843.843 0 0 1-.674.321.924.924 0 0 1-.24-.03.724.724 0 0 1-.325-.182 2.51 2.51 0 0 1-.145-.157v.054c0 .104-.025.183-.075.237a.25.25 0 0 1-.19.078.24.24 0 0 1-.187-.078c-.046-.054-.069-.133-.069-.237V19.33c0-.112.022-.196.067-.252a.228.228 0 0 1 .19-.087.24.24 0 0 1 .195.083.348.348 0 0 1 .069.232zm.026 1.636c0 .22.05.389.15.507.1.117.232.175.395.175a.45.45 0 0 0 .357-.18c.1-.12.151-.293.151-.518 0-.145-.02-.27-.062-.375a.538.538 0 0 0-.178-.242.433.433 0 0 0-.268-.087.474.474 0 0 0-.28.087.562.562 0 0 0-.194.248.957.957 0 0 0-.071.385zM16.294 21.329a.68.68 0 0 1-.11.391.687.687 0 0 1-.33.247c-.144.055-.32.082-.526.082-.198 0-.368-.03-.51-.09a.744.744 0 0 1-.312-.227.462.462 0 0 1-.1-.274.221.221 0 0 1 .228-.22c.057 0 .101.014.132.042a.46.46 0 0 1 .09.12.607.607 0 0 0 .201.22c.08.048.187.072.323.072.11 0 .2-.024.27-.073.072-.05.107-.106.107-.17 0-.096-.037-.167-.11-.211a1.338 1.338 0 0 0-.362-.127 3.128 3.128 0 0 1-.464-.148.772.772 0 0 1-.285-.205.47.47 0 0 1-.107-.313c0-.11.033-.215.1-.313a.672.672 0 0 1 .29-.234c.13-.06.284-.089.466-.089.143 0 .27.015.383.045.115.03.21.069.285.119.077.05.135.105.174.165.04.06.06.12.06.178a.204.204 0 0 1-.064.155c-.042.04-.102.06-.18.06a.225.225 0 0 1-.145-.048.987.987 0 0 1-.136-.145.498.498 0 0 0-.147-.13.464.464 0 0 0-.23-.048c-.1 0-.182.022-.248.065-.066.042-.099.094-.099.157 0 .058.024.106.073.144a.618.618 0 0 0 .195.09c.082.025.196.054.34.09.17.04.31.09.417.149a.68.68 0 0 1 .246.205.446.446 0 0 1 .085.269z" fill="#9399A6"/>
</svg>
