<svg width="32" height="32" viewBox="0 0 32 32" fill="none" xmlns="http://www.w3.org/2000/svg">
    <path d="M15.52 10.107v4h1.794v-4a2.327 2.327 0 0 0 1.42-2.14 2.327 2.327 0 0 0-2.32-2.3 2.333 2.333 0 0 0-2.32 2.32 2.325 2.325 0 0 0 1.426 2.14v-.02zM.667 15.907v15.426h30.667V15.907H.667zm8.767 11.666H5.487v-7.906H7.28v6.126h2.154v1.8-.02zm3.606-.053h-1.8v-7.933h1.8v7.933zm5.334-.127h-1.56l-2.7-7.813h1.9l1.56 4.513 1.5-4.513H21l-2.626 7.813zm8.126-6h-2.56v1.24h2.394v1.8H23.96v1.234h2.56v1.8h-4.353V19.62h4.353v1.793l-.02-.02zM19.347 11.667l1.273 1.266.633-.666a6.154 6.154 0 0 0 0-8.667l-.633-.667-1.273 1.274.666.666a4.347 4.347 0 0 1 0 6.14l-.666.654zM11.58 12.333l.634.667 1.273-1.267-.667-.666a4.293 4.293 0 0 1-1.273-3.074 4.278 4.278 0 0 1 1.273-3.066l.667-.667L12.214 3l-.634.667a6.098 6.098 0 0 0-1.8 4.34 6.1 6.1 0 0 0 1.8 4.326z" fill="#D4D6DB"/>
    <path d="m22.92 13.367-.667.666 1.273 1.274.634-.667a9.433 9.433 0 0 0 0-13.333L23.526.64l-1.273 1.273.667.667a7.647 7.647 0 0 1 0 10.787zM9.28 15.273 10.554 14l-.667-.667a7.6 7.6 0 0 1-2.233-5.4A7.587 7.587 0 0 1 9.887 2.54l.667-.667L9.28.6l-.666.667a9.374 9.374 0 0 0-2.76 6.666 9.334 9.334 0 0 0 2.76 6.667l.666.673z" fill="#D4D6DB"/>
</svg>
