<svg width="24" height="24" viewBox="0 0 24 24" fill="none" xmlns="http://www.w3.org/2000/svg">
<path d="M12.0107 1.19604C6.01169 1.19604 1.13574 6.07199 1.13574 12.071C1.13574 18.0701 6.01169 22.946 12.0107 22.946C18.0098 22.946 22.8857 18.0701 22.8857 12.071C22.8857 6.07199 18.0098 1.19604 12.0107 1.19604Z" fill="#00285E"/>
<path d="M21.7489 12.071C21.7489 6.68824 17.3934 2.33276 12.0107 2.33276C6.62796 2.33276 2.25879 6.68824 2.25879 12.071C2.25879 17.4537 6.62796 21.8091 11.997 21.8091C17.3934 21.8091 21.7489 17.4537 21.7489 12.071Z" fill="white"/>
<path d="M18.2156 12.071C18.2156 8.64684 15.4353 5.86646 12.0111 5.86646C8.58702 5.86646 5.80664 8.64684 5.80664 12.071C5.80664 15.4951 8.58702 18.2755 12.0111 18.2755C15.4353 18.2755 18.2156 15.4951 18.2156 12.071Z" fill="#6CADDF"/>
<path d="M12.011 18.755C8.32667 18.755 5.32715 15.7555 5.32715 12.0574C5.32715 8.35937 8.32667 5.37354 12.011 5.37354C15.6954 5.37354 18.7086 8.37306 18.7086 12.0574C18.6949 15.7555 15.6954 18.755 12.011 18.755ZM12.011 5.75704C8.53212 5.75704 5.69695 8.59221 5.69695 12.0711C5.69695 15.55 8.53212 18.3852 12.011 18.3852C15.4899 18.3852 18.3251 15.55 18.3251 12.0711C18.3251 8.59221 15.4899 5.75704 12.011 5.75704Z" fill="#00285E"/>
<path d="M12.0109 22.494C6.25839 22.494 1.58789 17.8098 1.58789 12.071C1.58789 6.33214 6.25839 1.64795 12.0109 1.64795C17.7634 1.64795 22.4339 6.33214 22.4339 12.071C22.4339 17.8235 17.7634 22.494 12.0109 22.494ZM12.0109 1.86709C6.38166 1.86709 1.80703 6.44171 1.80703 12.071C1.80703 17.7002 6.38166 22.2748 12.0109 22.2748C17.6402 22.2748 22.2148 17.7002 22.2148 12.071C22.2148 6.44171 17.6402 1.86709 12.0109 1.86709Z" fill="#6CADDF"/>
<path d="M3.31387 11.839L3.13582 11.8801L3.09473 11.7021L3.38235 11.6199H3.53301V12.6334H3.31387V11.839Z" fill="#6CADDF"/>
<path d="M3.7793 12.3451C3.7793 12.2218 3.83408 12.1533 3.94365 12.0985C3.86148 12.0575 3.82039 11.989 3.82039 11.8794C3.82039 11.7287 3.95735 11.6055 4.17649 11.6055C4.39564 11.6055 4.5326 11.7287 4.5326 11.8794C4.5326 11.989 4.49151 12.0575 4.40933 12.0985C4.50521 12.1533 4.57369 12.2218 4.57369 12.3314C4.57369 12.5231 4.40933 12.6327 4.19019 12.6327C3.97105 12.6327 3.7793 12.5231 3.7793 12.3451ZM4.34085 12.3314C4.34085 12.2492 4.27237 12.2081 4.1628 12.2081C4.06692 12.2081 3.98474 12.2492 3.98474 12.3314C3.98474 12.3999 4.05323 12.4547 4.1628 12.4547C4.27237 12.4547 4.34085 12.3999 4.34085 12.3314ZM4.31346 11.9068C4.31346 11.8383 4.25867 11.7835 4.17649 11.7835C4.09432 11.7835 4.03953 11.8383 4.03953 11.9068C4.03953 11.9753 4.09432 12.0301 4.17649 12.0301C4.25867 12.0301 4.31346 11.9753 4.31346 11.9068Z" fill="#6CADDF"/>
<path d="M19.8174 12.2079C19.7626 12.249 19.6941 12.2764 19.612 12.2764C19.3928 12.2764 19.2559 12.1531 19.2559 11.9477C19.2559 11.7422 19.4202 11.5916 19.6394 11.5916C19.7763 11.5916 19.8585 11.6189 19.927 11.7011C19.9955 11.7696 20.0503 11.8792 20.0503 12.0846C20.0503 12.4133 19.8996 12.6325 19.612 12.6325C19.4613 12.6325 19.3654 12.5914 19.2833 12.5092L19.4065 12.3449C19.475 12.3996 19.5435 12.427 19.6257 12.427C19.7626 12.4407 19.8037 12.2901 19.8174 12.2079ZM19.8174 11.9477C19.8174 11.8518 19.7489 11.7833 19.6394 11.7833C19.5298 11.7833 19.475 11.8518 19.475 11.934C19.475 12.0298 19.5435 12.0846 19.6531 12.0846C19.7489 12.0983 19.8174 12.0298 19.8174 11.9477Z" fill="#6CADDF"/>
<path d="M20.749 12.3997H20.2559L20.2148 12.2353L20.7627 11.5916H20.9545V12.2079H21.0914V12.386H20.9545V12.6051H20.7353L20.749 12.3997ZM20.749 12.2216V11.9066L20.4751 12.2216H20.749Z" fill="#6CADDF"/>
<path d="M12.0104 18.3852C8.53146 18.3852 5.69629 15.5501 5.69629 12.0712C5.69629 8.59225 8.53146 5.75708 12.0104 5.75708C15.4893 5.75708 18.3244 8.59225 18.3244 12.0712C18.3244 15.5501 15.4893 18.3852 12.0104 18.3852ZM12.0104 5.98992C8.65473 5.98992 5.92913 8.71552 5.92913 12.0712C5.92913 15.4268 8.65473 18.1524 12.0104 18.1524C15.366 18.1524 18.0916 15.4268 18.0916 12.0712C18.0916 8.71552 15.366 5.98992 12.0104 5.98992Z" fill="white"/>
<path fill-rule="evenodd" clip-rule="evenodd" d="M11.8871 6.63354C8.76427 6.63354 6.97003 7.04444 6.97003 7.04444C6.97003 7.04444 6.25781 9.78373 6.66871 13.2763C6.83306 14.7419 8.03835 17.9057 11.9966 18.9878C15.9549 17.9057 17.1465 14.7419 17.3246 13.2763C17.7355 9.77004 17.0232 7.04444 17.0232 7.04444C17.0232 7.04444 15.229 6.63354 12.1062 6.63354C12.0925 6.63354 11.8871 6.63354 11.8871 6.63354Z" fill="#00285E"/>
<path fill-rule="evenodd" clip-rule="evenodd" d="M16.7769 12.4546C16.7358 13.5229 16.5715 16.6868 11.9969 18.4399C7.44964 16.7416 7.2168 13.4544 7.2168 12.4546H16.7769Z" fill="#97C1E7"/>
<path fill-rule="evenodd" clip-rule="evenodd" d="M16.6401 12.2902C16.7634 9.66043 16.3114 7.52378 16.3114 7.52378C16.3114 7.52378 14.5993 7.19507 11.997 7.19507C9.38095 7.19507 7.6415 7.55118 7.6415 7.55118C7.6415 7.55118 7.17582 9.68783 7.29909 12.2765L16.6401 12.2902Z" fill="white"/>
<path d="M12.134 18.344L7.29915 12.4956C7.1211 13.7009 8.09355 17.262 12.134 18.344Z" fill="#6CADDF"/>
<path d="M8.7373 12.4683L13.2161 17.8647C13.668 17.6455 13.9968 17.4401 14.3255 17.1798L10.4083 12.4683H8.7373Z" fill="#6CADDF"/>
<path d="M11.8467 12.4683L15.1612 16.4539C15.4899 16.0841 15.7639 15.7554 15.9556 15.3993L13.5176 12.4683H11.8467Z" fill="#6CADDF"/>
<path d="M16.6954 12.4683H15.0381L16.4214 14.1392C16.668 13.6188 16.6954 12.7559 16.6954 12.4683Z" fill="#6CADDF"/>
<path d="M13.9423 14.6595C13.9286 14.6185 13.9012 14.5911 13.8601 14.5774L13.5862 14.4815C13.5588 14.4678 13.5451 14.4815 13.5177 14.4815C13.4903 14.3856 13.4492 14.3034 13.367 14.2486C13.3533 14.2486 13.3396 14.2349 13.3396 14.2213C13.326 14.2076 13.2986 14.1939 13.2849 14.1939C13.2438 14.1802 13.2164 14.1665 13.1753 14.1528C13.0931 14.1254 13.0109 14.098 12.9151 14.0295C12.8192 13.961 12.7781 13.8925 12.737 13.8378C12.7233 13.8241 12.7096 13.8104 12.7096 13.7967C12.6822 13.7556 12.6411 13.7145 12.6137 13.6871C12.5453 13.646 12.4631 13.6186 12.3809 13.6186C12.3535 13.6186 12.3398 13.6186 12.3261 13.6186C12.3261 13.5912 12.3261 13.5501 12.2987 13.5227L12.1344 13.2899C12.107 13.2625 12.0659 13.2351 12.0248 13.2351C11.9837 13.2351 11.9426 13.2488 11.9289 13.2762L11.7509 13.509C11.7235 13.5364 11.7235 13.5775 11.7235 13.6049C11.7098 13.6049 11.6961 13.6049 11.6824 13.6049C11.6002 13.6049 11.518 13.6323 11.4495 13.6734C11.4358 13.6734 11.4221 13.6871 11.4221 13.7008C11.4084 13.7145 11.3948 13.7282 11.3811 13.7419C11.3537 13.7693 11.34 13.7967 11.3126 13.8378C11.2578 13.9062 11.2167 13.9747 11.1071 14.0432C11.0113 14.1117 10.9428 14.1391 10.8743 14.1528C10.8606 14.1528 10.8469 14.1665 10.8332 14.1665C10.7921 14.1802 10.7373 14.1939 10.6962 14.2349C10.6141 14.2897 10.5593 14.3856 10.5319 14.4815C10.5045 14.4678 10.4771 14.4678 10.436 14.4815L10.1621 14.5774C10.121 14.5911 10.0936 14.6185 10.0799 14.6595C10.0662 14.7006 10.0799 14.7417 10.0936 14.7691L10.2579 15.002C10.2853 15.0293 10.299 15.043 10.3401 15.0567C10.299 15.1526 10.2853 15.2622 10.3127 15.3581C10.3127 15.3718 10.3264 15.3855 10.3264 15.3855C10.3264 15.4128 10.3401 15.4265 10.3538 15.4539C10.3812 15.4813 10.3949 15.5224 10.4223 15.5498C10.4771 15.6183 10.5182 15.6868 10.5593 15.81C10.6004 15.9196 10.5867 16.0018 10.5867 16.0703C10.5867 16.084 10.5867 16.1114 10.5867 16.1251C10.5867 16.1798 10.5867 16.2209 10.6141 16.2757C10.6414 16.3716 10.7099 16.4538 10.7921 16.4949C10.7784 16.5223 10.7647 16.536 10.7784 16.5634V16.851C10.7784 16.8921 10.8058 16.9332 10.8332 16.9469C10.8606 16.9742 10.9017 16.9742 10.9428 16.9742L11.2304 16.8921C11.2578 16.8921 11.2715 16.8647 11.2852 16.851C11.3674 16.9332 11.4906 16.9742 11.6002 16.9605C11.6276 16.9605 11.6413 16.9605 11.6687 16.9469C11.7098 16.9332 11.7372 16.9195 11.7783 16.9195C11.8604 16.8921 11.9426 16.8647 12.0659 16.8647C12.1891 16.8647 12.2576 16.8921 12.3261 16.9058C12.3398 16.9058 12.3535 16.9195 12.3672 16.9195C12.4083 16.9469 12.4631 16.9469 12.5179 16.9469C12.6137 16.9469 12.7233 16.9058 12.7918 16.8373C12.8055 16.8647 12.8192 16.8647 12.8466 16.8784L13.1205 16.9605C13.1616 16.9742 13.2027 16.9605 13.2438 16.9469C13.2712 16.9195 13.2986 16.8921 13.2986 16.851V16.5634C13.2986 16.536 13.2986 16.5223 13.2849 16.4949C13.367 16.4538 13.4355 16.3716 13.4629 16.2757C13.4629 16.262 13.4629 16.2483 13.4766 16.2346C13.4766 16.2072 13.4903 16.1935 13.4903 16.1662C13.4903 16.1251 13.4903 16.0977 13.4903 16.0566C13.4903 15.9744 13.4903 15.8922 13.5314 15.769C13.5725 15.6594 13.6136 15.6046 13.6547 15.5361C13.6684 15.5224 13.6821 15.5087 13.6821 15.495C13.7095 15.4539 13.7368 15.4128 13.7505 15.3581C13.7779 15.2622 13.7779 15.1389 13.7232 15.0567C13.7505 15.043 13.7642 15.0293 13.7916 15.0156L13.956 14.7828C13.956 14.7417 13.956 14.7006 13.9423 14.6595Z" fill="#00285E"/>
<path d="M11.8467 15.2759C11.8467 15.1801 11.9152 15.1116 12.011 15.1116C12.1069 15.1116 12.1754 15.1801 12.1754 15.2759C12.1754 15.3718 12.1069 15.4403 12.011 15.4403C11.9152 15.4403 11.8467 15.3581 11.8467 15.2759Z" fill="#FFC758"/>
<path d="M11.9973 13.9063C11.9699 13.8105 11.9014 13.7146 11.8329 13.6735L11.9973 13.4543L12.1616 13.6735C12.0794 13.7283 12.0247 13.8105 11.9973 13.9063ZM10.6961 14.8514C10.6139 14.7966 10.5591 14.7144 10.518 14.6322L10.2578 14.7144L10.4085 14.9336C10.5043 14.8788 10.6002 14.8514 10.6961 14.8514ZM11.2029 16.358C11.1207 16.4265 11.0385 16.4539 10.9289 16.4539V16.7278L11.1892 16.6456C11.1618 16.5635 11.1618 16.4539 11.2029 16.358ZM12.7917 16.358C12.8328 16.4539 12.8328 16.5498 12.7917 16.6456L13.0519 16.7278V16.4539C12.9834 16.4539 12.8875 16.4265 12.7917 16.358ZM13.2847 14.8651C13.3943 14.8651 13.4765 14.8925 13.5587 14.9473L13.723 14.7281L13.4628 14.6322C13.4354 14.7144 13.3806 14.7966 13.2847 14.8651ZM11.6686 16.3717C11.5453 16.3717 11.4494 16.2758 11.4494 16.1526C11.4494 16.1389 11.4357 16.1252 11.422 16.1389C11.3398 16.2347 11.285 16.3169 11.285 16.4265C11.285 16.5771 11.4083 16.7004 11.559 16.7004C11.5727 16.7004 11.5864 16.7004 11.5864 16.7004C11.6001 16.7004 11.6138 16.7004 11.6275 16.7004C11.737 16.673 11.8329 16.6182 12.011 16.6182C12.1616 16.6182 12.2438 16.6593 12.326 16.6867C12.3534 16.7004 12.3945 16.7141 12.4356 16.7141C12.5862 16.7141 12.7095 16.5908 12.7095 16.4402C12.7095 16.3306 12.641 16.2484 12.5725 16.1526C12.5725 16.1389 12.5451 16.1526 12.5451 16.1663C12.5451 16.2895 12.4493 16.3854 12.326 16.3854C12.2301 16.3854 12.1205 16.3032 11.9973 16.3032C11.9014 16.2895 11.7644 16.3717 11.6686 16.3717ZM11.5316 16.0704C11.5316 16.1663 11.6138 16.2484 11.7096 16.2484C11.7233 16.2484 11.737 16.2484 11.7507 16.2484H11.7644C11.8329 16.221 11.8877 16.2073 11.9973 16.2073C12.1068 16.2073 12.1616 16.2347 12.2301 16.2484C12.2575 16.2484 12.2712 16.2621 12.2986 16.2621C12.3945 16.2621 12.4766 16.1799 12.4766 16.0841C12.4766 16.0567 12.4766 16.0293 12.4629 16.0156C12.4629 16.0019 12.4493 15.9882 12.4493 15.9882C12.4493 15.9882 12.1479 15.5636 12.1342 15.5636C12.1205 15.5362 12.0931 15.5499 12.0931 15.5636C12.0794 15.5636 12.0384 15.5773 12.011 15.5773C11.9836 15.5773 11.9562 15.5773 11.9425 15.5636C11.9151 15.5499 11.9014 15.5499 11.9014 15.5636C11.8877 15.5773 11.6686 15.8786 11.6001 15.9745C11.5453 15.9882 11.5316 16.0156 11.5316 16.0704ZM12.9423 15.9334C12.9012 16.0567 12.778 16.1115 12.6684 16.0704C12.6547 16.0704 12.641 16.0704 12.6547 16.0978C12.7232 16.1936 12.778 16.2895 12.8875 16.3169C13.0245 16.358 13.1889 16.2895 13.23 16.1389C13.23 16.1252 13.23 16.1252 13.23 16.1115C13.23 16.0978 13.23 16.0841 13.2436 16.0704C13.2573 15.9608 13.23 15.8512 13.2847 15.6869C13.3258 15.5499 13.3943 15.4814 13.4491 15.4129C13.4765 15.3856 13.4902 15.3582 13.5039 15.3171C13.545 15.1801 13.4765 15.0157 13.3258 14.9747C13.23 14.9473 13.1204 14.9747 13.0108 15.0157C12.9971 15.0157 12.9971 15.0294 13.0108 15.0431C13.1341 15.0842 13.1889 15.2075 13.1478 15.3171C13.1204 15.3992 13.0108 15.4814 12.9697 15.6047C12.9423 15.6869 12.9834 15.8375 12.9423 15.9334ZM12.6136 15.9745C12.7095 16.0019 12.8191 15.9471 12.8465 15.8512C12.8465 15.8375 12.8465 15.8238 12.8465 15.8101V15.7964C12.8465 15.728 12.8328 15.6595 12.8738 15.5636C12.9149 15.454 12.956 15.4129 12.9971 15.3582C13.0108 15.3445 13.0245 15.3171 13.0245 15.3034C13.0519 15.2075 12.9971 15.1116 12.9012 15.0705C12.8738 15.0705 12.8465 15.0568 12.8328 15.0705C12.8191 15.0705 12.8054 15.0705 12.8054 15.0705C12.8054 15.0705 12.3123 15.2349 12.2849 15.2349C12.2575 15.2486 12.2575 15.2623 12.2575 15.276C12.2575 15.2897 12.2575 15.3308 12.2438 15.3582C12.2438 15.3856 12.2164 15.4129 12.2027 15.4266C12.189 15.4403 12.1753 15.454 12.189 15.4677C12.2027 15.4814 12.4219 15.7827 12.4903 15.8786C12.5314 15.9334 12.5725 15.9608 12.6136 15.9745ZM12.9149 14.5775C13.0108 14.6459 13.0382 14.7829 12.956 14.8788C12.9423 14.8925 12.956 14.9062 12.9697 14.9062C13.093 14.8788 13.1889 14.8377 13.2573 14.7555C13.3532 14.6322 13.3258 14.4679 13.2026 14.372C13.2026 14.372 13.1889 14.3583 13.1752 14.3583C13.1615 14.3446 13.1478 14.3446 13.1341 14.3446C13.0382 14.3035 12.9286 14.2898 12.778 14.1803C12.6547 14.0844 12.6136 14.0159 12.5588 13.9474C12.5451 13.92 12.5177 13.8926 12.4903 13.8652C12.3671 13.7694 12.189 13.7968 12.1068 13.92C12.0521 14.0022 12.0521 14.1118 12.0521 14.235C12.0521 14.2487 12.0658 14.2487 12.0794 14.235C12.1479 14.1392 12.2849 14.1118 12.3808 14.194C12.4493 14.2487 12.504 14.3857 12.5999 14.4405C12.6821 14.509 12.8328 14.5364 12.9149 14.5775ZM12.8601 14.9062C12.9149 14.824 12.9012 14.7144 12.8191 14.6459C12.8191 14.6459 12.8054 14.6322 12.7917 14.6185H12.778C12.7095 14.5912 12.6547 14.5912 12.5588 14.5227C12.4629 14.4542 12.4356 14.3994 12.4082 14.3583C12.3945 14.3446 12.3808 14.3309 12.3671 14.3172C12.2849 14.2624 12.1753 14.2761 12.1068 14.3583C12.0931 14.3857 12.0794 14.3994 12.0794 14.4268C12.0794 14.4405 12.0794 14.4542 12.0794 14.4542C12.0794 14.4542 12.0794 14.9747 12.0794 14.9884C12.0794 15.0157 12.1068 15.0157 12.1205 15.0157C12.1342 15.0157 12.1753 15.0431 12.189 15.0431C12.2164 15.0568 12.2301 15.0842 12.2438 15.0979C12.2575 15.1116 12.2712 15.1253 12.2849 15.1253C12.3123 15.1116 12.6684 15.002 12.778 14.961C12.7917 14.9747 12.8328 14.9473 12.8601 14.9062ZM11.6138 14.194C11.7096 14.1255 11.8466 14.1529 11.9151 14.235C11.9288 14.2487 11.9425 14.2487 11.9425 14.235C11.9425 14.1118 11.9425 14.0022 11.8877 13.92C11.8055 13.7968 11.6275 13.7694 11.5042 13.8652C11.4905 13.8652 11.4905 13.8789 11.4768 13.8789C11.4631 13.8789 11.4494 13.8926 11.4494 13.9063C11.3809 13.9885 11.3261 14.0844 11.1892 14.194C11.0659 14.2898 10.97 14.3035 10.9015 14.3172C10.8742 14.3309 10.8331 14.3446 10.8057 14.3583C10.6824 14.4542 10.655 14.6185 10.7509 14.7418C10.8194 14.824 10.9152 14.8651 11.0385 14.8925C11.0522 14.8925 11.0522 14.8788 11.0522 14.8651C10.9837 14.7692 11.0111 14.6322 11.0933 14.5638C11.1618 14.509 11.3124 14.509 11.3946 14.4405C11.4768 14.3994 11.5453 14.2487 11.6138 14.194ZM11.9151 14.3583C11.8603 14.2761 11.737 14.2624 11.6549 14.3172C11.6412 14.3172 11.6412 14.3309 11.6275 14.3446C11.6275 14.3446 11.6275 14.3446 11.6138 14.3583C11.5727 14.4131 11.5453 14.4679 11.4494 14.5364C11.3535 14.6049 11.2987 14.6049 11.2303 14.6322C11.2029 14.6322 11.1892 14.6459 11.1755 14.6596C11.0933 14.7144 11.0796 14.824 11.1344 14.9199C11.1481 14.9473 11.1755 14.961 11.1892 14.961C11.2029 14.961 11.2029 14.9747 11.2166 14.9747C11.2166 14.9747 11.7096 15.139 11.737 15.139C11.7644 15.139 11.7781 15.1253 11.7781 15.1116C11.7918 15.0979 11.8055 15.0705 11.8329 15.0568C11.8603 15.0431 11.874 15.0294 11.9014 15.0294C11.9288 15.0294 11.9425 15.0157 11.9425 15.0021C11.9425 14.9884 11.9425 14.6049 11.9425 14.4953C11.9562 14.4405 11.9425 14.3994 11.9151 14.3583ZM10.8468 15.3034C10.8057 15.1801 10.8742 15.0705 10.9837 15.0294C10.9974 15.0294 10.9974 15.0021 10.9837 15.0021C10.8605 14.961 10.7646 14.9199 10.6687 14.961C10.5317 15.002 10.4496 15.1664 10.4907 15.3034C10.4907 15.3171 10.4907 15.3171 10.5043 15.3308C10.5043 15.3445 10.518 15.3582 10.5317 15.3719C10.5865 15.4677 10.6687 15.5362 10.7235 15.7143C10.7646 15.8512 10.7509 15.9471 10.7509 16.0293C10.7509 16.0567 10.7509 16.0978 10.7646 16.1389C10.8057 16.2758 10.97 16.358 11.107 16.3169C11.2029 16.2895 11.2714 16.1936 11.3398 16.0978C11.3398 16.0841 11.3398 16.0704 11.3261 16.0841C11.2029 16.1252 11.0933 16.0567 11.0522 15.9471C11.0248 15.8649 11.0659 15.728 11.0248 15.6184C10.9974 15.5088 10.8742 15.3992 10.8468 15.3034ZM11.0933 15.0842C10.9974 15.1116 10.9426 15.2212 10.97 15.3171C10.97 15.3308 10.97 15.3445 10.9837 15.3445C10.9837 15.3445 10.9837 15.3582 10.9974 15.3582C11.0385 15.4129 11.0796 15.454 11.1207 15.5636C11.1618 15.6732 11.1481 15.728 11.1481 15.7964C11.1481 15.8238 11.1481 15.8375 11.1618 15.8649C11.1892 15.9608 11.2987 16.0156 11.3946 15.9882C11.422 15.9882 11.4357 15.9608 11.4631 15.9471C11.4631 15.9471 11.4768 15.9334 11.4905 15.9197C11.4905 15.9197 11.7918 15.4951 11.8055 15.4814C11.8192 15.454 11.8055 15.4403 11.7918 15.4403C11.7781 15.4403 11.7644 15.3992 11.7507 15.3719C11.7507 15.3445 11.737 15.3171 11.737 15.3034C11.737 15.2897 11.737 15.2623 11.7096 15.2623C11.6822 15.2623 11.3261 15.139 11.2166 15.0979C11.1892 15.0705 11.1344 15.0705 11.0933 15.0842Z" fill="#EE3124"/>
<path d="M13.5313 9.66036L14.6544 9.27686C14.6544 9.27686 14.5585 9.74254 14.5859 10.0986C14.6133 10.5643 14.8873 10.9204 14.8873 10.9204L13.5039 11.3998L13.5313 9.66036Z" fill="#FFC758"/>
<path d="M14.8865 10.9205C14.8865 10.9205 14.64 10.5644 14.5989 10.1672C14.5715 9.86586 14.5989 9.59193 14.6537 9.27691C14.6126 9.49606 14.4209 10.085 13.9141 10.6466C13.7086 10.8657 13.6265 11.0712 13.5854 11.2081L13.558 8.5647C13.558 8.5647 13.2978 8.66057 13.2704 8.66057C13.243 8.67427 13.2293 8.68797 13.2293 8.70166C13.2293 8.71536 13.2156 8.72906 13.2019 8.72906C13.1745 8.72906 13.0238 8.79754 12.9143 8.82493C12.8869 8.82493 12.9006 8.85232 12.9143 8.85232C13.0375 8.85232 13.2156 8.82493 13.243 8.82493C13.2704 8.82493 13.2841 8.81123 13.2841 8.79754C13.2841 8.77014 13.3115 8.75645 13.3251 8.75645C13.3388 8.75645 13.4347 8.74275 13.4895 8.72906L13.4621 11.5779H13.5854V11.3725L14.8865 10.9205Z" fill="#D4A11E"/>
<path d="M9.91481 11.4822C9.91481 11.4822 9.70936 11.3316 9.65457 11.0302C9.59979 10.7289 9.75045 10.5646 9.75045 10.5646L11.1064 10.0989C11.1064 10.0989 11.0242 10.3728 11.1064 10.6741C11.2023 11.0576 11.4077 11.3179 11.4077 11.3179C11.4077 11.3179 10.9146 11.222 10.4216 11.2905C9.96959 11.3453 9.91481 11.4822 9.91481 11.4822Z" fill="#FFC758"/>
<path d="M8.35352 11.1396C8.35352 11.1396 8.51787 10.6739 9.01095 10.1671C9.39445 9.78364 9.62729 9.67407 9.62729 9.67407C9.62729 9.67407 9.40814 9.98909 9.32597 10.4959C9.27118 10.8109 9.32597 11.2218 9.32597 11.2218C9.32597 11.2218 9.06573 11.167 8.77811 11.1396C8.54527 11.1122 8.35352 11.1396 8.35352 11.1396Z" fill="#FFC758"/>
<path d="M9.64106 9.67407C9.64106 9.67407 9.42191 9.98909 9.33973 10.4959C9.28495 10.8109 9.33973 11.2218 9.33973 11.2218C9.33973 11.2218 9.27125 11.2081 9.12059 11.1807C8.53164 11.0437 9.64106 9.67407 9.64106 9.67407Z" fill="#D4A11E"/>
<path d="M10.4359 10.0439L10.4222 8.82495C10.3949 8.83865 10.162 8.92083 10.1346 8.92083C10.1072 8.93452 10.0935 8.94822 10.0935 8.96192C10.0935 8.97561 10.0798 8.98931 10.0661 8.98931C10.0387 8.98931 9.88808 9.04409 9.77851 9.08518C9.75112 9.08518 9.76481 9.11258 9.77851 9.11258C9.90178 9.11258 10.0798 9.08518 10.1072 9.08518C10.1346 9.08518 10.1483 9.07149 10.1483 9.05779C10.1483 9.0304 10.1757 9.0167 10.1894 9.0167C10.2031 9.0167 10.299 9.00301 10.3538 9.00301L10.3401 10.0439H10.4359Z" fill="#D4A11E"/>
<path d="M12.0246 8.94816H12.1205V7.77026C12.1205 7.77026 11.8603 7.86614 11.8329 7.86614C11.8055 7.87984 11.7918 7.89353 11.7918 7.90723C11.7918 7.92092 11.7781 7.93462 11.7644 7.93462C11.737 7.93462 11.5863 7.98941 11.4768 8.0305C11.4494 8.0305 11.4631 8.05789 11.4768 8.05789C11.6 8.05789 11.7781 8.0305 11.8055 8.0305C11.8329 8.0305 11.8466 8.0168 11.8466 8.0031C11.8466 7.97571 11.874 7.96201 11.8876 7.96201C11.9013 7.96201 11.9835 7.94832 12.052 7.94832L12.0246 8.94816Z" fill="#D4A11E"/>
<path d="M11.7784 8.04424C11.8058 8.04424 11.8195 8.03055 11.8195 8.01685C11.8195 8.00315 11.8332 7.98946 11.8469 7.98946L11.8195 7.87988C11.7921 7.89358 11.7784 7.90728 11.7784 7.92097C11.7784 7.93467 11.7647 7.94837 11.751 7.94837L11.7784 8.04424Z" fill="#FFC758"/>
<path d="M10.0928 9.0989C10.1202 9.0989 10.1339 9.08521 10.1339 9.07151C10.1339 9.05781 10.1476 9.04412 10.1613 9.04412L10.1339 8.94824C10.1065 8.96194 10.0928 8.97564 10.0928 8.98933C10.0928 9.00303 10.0791 9.01672 10.0654 9.01672L10.0928 9.0989Z" fill="#FFC758"/>
<path d="M13.2295 8.83865C13.2569 8.83865 13.2706 8.82495 13.2706 8.81126C13.2706 8.79756 13.2843 8.78386 13.298 8.78386L13.2706 8.68799C13.2432 8.70168 13.2295 8.71538 13.2295 8.72908C13.2295 8.74277 13.2158 8.75647 13.2021 8.75647L13.2295 8.83865Z" fill="#FFC758"/>
<path d="M11.4078 11.3179C11.4078 11.3179 11.1887 11.0028 11.1065 10.6604C11.038 10.3728 11.1065 10.0989 11.1065 10.0989C11.1065 10.0989 10.9695 10.5919 10.6134 10.8659C10.3806 11.0576 9.79164 11.2357 9.92861 11.4822C9.956 11.4548 10.0108 11.3863 10.2436 11.3316C10.271 11.3316 10.2984 11.3179 10.3395 11.3179V11.7151H10.4628V11.2905C10.9011 11.2494 11.4078 11.3179 11.4078 11.3179Z" fill="#D4A11E"/>
<path d="M9.77774 10.4822C9.77774 10.4822 9.61338 10.3863 9.64077 10.085C9.66817 9.76995 9.81883 9.63299 9.81883 9.61929L10.8735 9.26318C10.8735 9.26318 10.7913 9.42754 10.8461 9.66038C10.9145 9.94801 11.0926 10.1124 11.0926 10.1124C11.0926 10.1124 10.5584 10.1124 10.0791 10.2767C9.85992 10.3452 9.77774 10.4822 9.77774 10.4822Z" fill="#FFC758"/>
<path d="M10.4084 9.81107C10.7097 9.56453 10.8741 9.24951 10.8741 9.24951C10.8741 9.24951 10.833 9.45496 10.8604 9.63301C10.9152 9.93433 11.0932 10.0987 11.0932 10.0987C11.0932 10.0987 10.6686 10.0987 10.203 10.2357C9.90164 10.3178 9.80576 10.4411 9.77837 10.4822C9.6688 10.2494 10.0934 10.0713 10.4084 9.81107Z" fill="#D4A11E"/>
<path d="M11.6135 11.5505C11.6135 11.5505 11.3259 11.3314 11.2574 10.9205C11.1889 10.6055 11.4081 10.3726 11.4081 10.3726L13.0516 9.79736C13.0516 9.79736 12.9558 10.1672 13.0516 10.5096C13.1475 10.9068 13.5036 11.3862 13.5036 11.3862C13.5036 11.3862 12.8188 11.1944 12.2298 11.2629C11.6546 11.3588 11.6135 11.5505 11.6135 11.5505Z" fill="#FFC758"/>
<path d="M11.2713 8.93468C11.2576 8.68814 11.4356 8.4827 11.4356 8.469L12.6135 8.05811C12.6135 8.05811 12.5313 8.24986 12.5587 8.40052C12.5998 8.71554 12.7779 8.8662 12.7779 8.8662C12.7779 8.8662 12.3122 8.8388 11.7643 9.03056C11.463 9.14013 11.4219 9.27709 11.4219 9.27709C11.4219 9.27709 11.285 9.2497 11.2713 8.93468Z" fill="#FFC758"/>
<path d="M12.2026 8.61964C12.4217 8.42789 12.6271 8.07178 12.6271 8.07178C12.6271 8.07178 12.545 8.26353 12.5724 8.41419C12.6135 8.71551 12.7778 8.87987 12.7778 8.87987C12.7778 8.87987 12.271 8.87987 11.7917 9.04423C11.5862 9.11271 11.4493 9.23598 11.4356 9.29076C11.3671 9.05792 11.9149 8.87987 12.2026 8.61964Z" fill="#D4A11E"/>
<path d="M11.4495 10.3041C11.4495 10.3041 11.2852 10.1123 11.2441 9.79733C11.2167 9.48231 11.3947 9.34534 11.4084 9.34534L12.7781 8.86597C12.7781 8.86597 12.737 8.96184 12.7781 9.24947C12.8055 9.48231 13.0383 9.79733 13.0383 9.79733C13.0383 9.79733 12.2987 9.82472 11.8604 9.98908C11.5591 10.1123 11.4495 10.3041 11.4495 10.3041Z" fill="#FFC758"/>
<path d="M12.3532 9.5097C12.6545 9.24947 12.7778 8.86597 12.7778 8.86597C12.7778 8.86597 12.7367 9.08511 12.7778 9.24947C12.8462 9.55079 13.0654 9.79733 13.0654 9.79733C13.0654 9.79733 12.4217 9.81102 11.9697 9.96168C11.6684 10.0576 11.4766 10.2493 11.4492 10.2904C11.3807 10.0439 12.0519 9.76993 12.3532 9.5097Z" fill="#D4A11E"/>
<path d="M13.5306 11.4272C13.5306 11.4272 13.1608 10.9478 13.0512 10.5233C12.9828 10.2356 13.0376 9.92061 13.0512 9.81104C13.0102 9.9617 12.8595 10.4411 12.5034 10.7835C12.1473 11.1122 11.4625 11.2629 11.6131 11.5642C11.6405 11.5231 11.7227 11.3998 11.9966 11.3313V11.7148H12.1336V11.304C12.7362 11.2081 13.5306 11.4272 13.5306 11.4272Z" fill="#D4A11E"/>
<path fill-rule="evenodd" clip-rule="evenodd" d="M14.1751 12.3313C14.2573 12.3176 14.3395 12.2902 14.4764 12.2628C14.4764 12.2628 14.4628 12.2491 14.4491 12.2491C14.3121 12.0985 14.3258 11.9341 14.4217 11.8519C14.723 11.5643 14.723 11.3589 14.723 11.3589C14.723 11.3589 13.9697 11.5095 12.9835 11.5643C12.915 11.5643 12.6959 11.6739 12.6274 11.6739C12.4905 11.6739 12.3535 11.6876 12.2028 11.6876C10.3401 11.7013 9.81965 11.5643 9.20331 11.4547C8.58696 11.3315 8.31303 11.2219 8.31303 11.2219L8.28564 11.2904C8.28564 11.2904 8.77871 11.4821 9.12113 11.6465C9.18961 11.6876 9.49093 12.1259 9.58681 12.2628H7.38167C7.25841 9.72899 7.75148 7.64713 7.75148 7.64713C7.75148 7.64713 9.44984 7.29102 11.9974 7.29102V7.01709C9.29918 7.01709 7.49125 7.40059 7.49125 7.40059C7.49125 7.40059 6.71055 10.1673 7.12144 13.4818C7.29949 14.8515 8.4363 17.4264 11.9837 18.6317L12.1344 18.4126L11.9837 18.1934C8.64175 17.0703 7.6556 14.8104 7.49125 13.5092C7.45016 13.2216 7.42276 12.934 7.40907 12.66H11.9974V12.2765H9.64159C9.69638 12.1122 9.86074 12.0574 10.0662 12.1122C10.2853 12.167 10.4908 12.2217 10.6962 12.2081C11.203 12.1807 11.1208 12.0437 11.1756 12.0437C11.6961 12.0711 11.8878 12.2081 12.3398 12.1944C12.7507 12.1944 12.9014 12.0711 12.9287 12.0711C13.4355 12.0711 13.6273 12.3039 14.134 12.345C14.1477 12.3313 14.1614 12.3313 14.1751 12.3313Z" fill="#FFC758"/>
<path fill-rule="evenodd" clip-rule="evenodd" d="M16.4898 7.38692C16.4898 7.38692 14.6956 7.00342 11.9974 7.00342V7.27735C14.5449 7.27735 16.2296 7.63346 16.2296 7.63346C16.2296 7.63346 16.7226 9.71532 16.5994 12.2492H14.3805C14.2025 12.0848 14.3121 11.852 14.3668 11.7972C14.6271 11.5643 14.6271 11.4 14.6271 11.4C14.6271 11.4 14.0244 11.5506 13.0383 11.5917C12.9698 11.5917 12.6959 11.715 12.6274 11.715C12.4904 11.715 12.2987 11.7287 12.148 11.7287C10.8605 11.7287 10.2305 11.7013 9.12109 11.4685C9.14849 11.4959 9.14849 11.5096 9.17588 11.537C9.17588 11.5506 9.66895 11.6739 9.66895 11.6739C9.73744 11.7698 9.83331 11.8383 9.95658 11.9068C10.1346 12.0026 10.4086 12.0848 10.614 12.0985C11.1208 12.1259 11.0249 11.9341 11.066 11.9341C11.5865 11.9205 11.9152 12.1122 12.3672 12.0985C12.7781 12.0985 12.7917 11.9615 12.8328 11.9615C13.2437 11.9341 13.6546 12.1122 14.0107 12.2355H11.9837V12.619H16.5583C16.5309 12.9066 16.5172 13.1805 16.4761 13.4682C16.3117 14.7693 15.3256 17.0292 11.9837 18.1523V18.5906C15.531 17.399 16.6815 14.8241 16.8459 13.4408C17.2705 10.1673 16.4898 7.38692 16.4898 7.38692Z" fill="#D4A11E"/>
<path d="M3.69727 8.59203L3.87532 8.23593L4.7245 8.16744L4.29991 7.44153L4.47796 7.09912L5.97088 7.87982L5.80652 8.20853L4.82038 7.70177L5.24497 8.45507L4.39579 8.53725L5.35454 9.04402L5.19018 9.37273L3.69727 8.59203Z" fill="#00285E"/>
<path d="M5.39551 5.93501L5.62835 5.68848L7.35411 6.33221L7.09387 6.61984L6.71037 6.46918L6.2173 6.98964L6.38165 7.35945L6.12142 7.63338L5.39551 5.93501ZM6.39535 6.33221L5.84749 6.11307L6.09403 6.64723L6.39535 6.33221Z" fill="#00285E"/>
<path d="M6.73828 4.70231L7.02591 4.52425L8.2449 5.00363L7.71073 4.12705L8.02575 3.9353L8.88863 5.37343L8.6284 5.53779L7.36832 5.04472L7.92988 5.96238L7.61486 6.15413L6.73828 4.70231Z" fill="#00285E"/>
<path d="M9.01133 4.41467C8.87437 3.94899 9.10721 3.46961 9.61398 3.33264C9.9153 3.23677 10.1344 3.29156 10.3262 3.40113L10.1755 3.72984C10.0112 3.64766 9.87421 3.62027 9.70985 3.66136C9.43592 3.74354 9.31266 4.01747 9.38114 4.30509C9.46332 4.57902 9.72355 4.75708 9.99748 4.6749C10.1892 4.62011 10.2714 4.51054 10.3673 4.35988L10.6549 4.52424C10.5316 4.75708 10.381 4.92144 10.0797 5.00361C9.60028 5.14058 9.1346 4.88035 9.01133 4.41467Z" fill="#00285E"/>
<path d="M11.0244 3.05867L11.3942 3.04497L11.4216 3.7161L12.0927 3.7024L12.079 3.03127L12.4488 3.01758L12.4899 4.71594H12.1201L12.1064 4.04481L11.4216 4.05851L11.449 4.74333H11.0655L11.0244 3.05867Z" fill="#00285E"/>
<path d="M14.6406 4.9351L14.9419 4.78444C15.0241 4.96249 15.1337 5.09945 15.3118 5.18163C15.4487 5.25012 15.5583 5.22272 15.5994 5.14054C15.6405 5.05836 15.5994 4.98988 15.3802 4.81183C15.1063 4.59268 14.9556 4.41463 15.0926 4.11331C15.2159 3.83938 15.5309 3.7572 15.8459 3.89417C16.0651 3.99004 16.2294 4.1544 16.3253 4.34615L16.0377 4.5242C15.9418 4.35984 15.8322 4.25027 15.709 4.19549C15.5857 4.1407 15.4898 4.16809 15.4487 4.23658C15.4076 4.33245 15.4487 4.40093 15.6816 4.59268C15.9555 4.81183 16.0788 5.01728 15.9555 5.27751C15.8185 5.57883 15.5035 5.64731 15.1748 5.49665C14.9419 5.38708 14.7502 5.19533 14.6406 4.9351Z" fill="#00285E"/>
<path d="M17.0923 5.04476L16.6951 4.72974L16.9005 4.45581L18.0099 5.30499L17.8045 5.57892L17.3936 5.2639L16.5718 6.33223L16.2842 6.11308L17.0923 5.04476Z" fill="#00285E"/>
<path d="M19.7635 7.44165L20.1059 8.12647C20.2018 8.31822 20.2292 8.49628 20.1744 8.64694C20.1333 8.77021 20.0374 8.87978 19.8867 8.94826C19.6402 9.07153 19.4211 9.01674 19.2567 8.85239L18.9006 9.49612L18.7088 9.11262L19.0239 8.55106L18.8869 8.29083L18.4075 8.53737L18.2432 8.20865L19.7635 7.44165ZM19.3663 8.46888C19.4485 8.63324 19.5854 8.68803 19.7087 8.61955C19.8457 8.55106 19.873 8.4141 19.7909 8.24974L19.6265 7.92103L19.2019 8.14017L19.3663 8.46888Z" fill="#00285E"/>
<path d="M13.5038 4.1955L14.1339 4.31877L14.2982 4.03114L13.586 3.86678L13.6545 3.53807L14.5311 3.72982L14.6133 3.4011L13.3532 3.14087L12.9971 4.78445L14.2571 5.05838L14.3256 4.72966L13.4354 4.53791L13.5038 4.1955Z" fill="#00285E"/>
<path d="M18.517 5.81152L17.2158 6.89354L18.0513 7.86599L18.2978 7.66055L17.7089 6.96203L17.9828 6.72919L18.3937 7.22226L18.7361 7.11269L18.2431 6.51004L18.5033 6.3046L19.0785 6.98942L19.3388 6.77028L18.517 5.81152Z" fill="#00285E"/>
<path d="M9.14844 20.1793C9.14844 19.6863 9.51824 19.2891 10.0524 19.2891C10.3811 19.2891 10.5729 19.3986 10.7372 19.5493L10.5044 19.8232C10.3674 19.7 10.2442 19.6315 10.0661 19.6315C9.77848 19.6315 9.57303 19.8643 9.57303 20.1656C9.57303 20.4533 9.77848 20.7135 10.0661 20.7135C10.2579 20.7135 10.3811 20.6313 10.5181 20.5081L10.7509 20.7546C10.5729 20.9463 10.3811 21.0559 10.0387 21.0559C9.53194 21.0696 9.14844 20.6724 9.14844 20.1793Z" fill="#00285E"/>
<path d="M11.1074 19.3164H11.4909V21.0285H11.1074V19.3164Z" fill="#00285E"/>
<path d="M12.3535 19.6725H11.833V19.3164H13.2574V19.6725H12.737V21.0422H12.3672L12.3535 19.6725Z" fill="#00285E"/>
<path d="M14.0793 20.3573L13.4219 19.3164H13.8602L14.2711 20.0012L14.682 19.3164H15.1065L14.4491 20.3436V21.0285H14.0656L14.0793 20.3573Z" fill="#00285E"/>
</svg>
