<svg width="24" height="25" fill="none" xmlns="http://www.w3.org/2000/svg">
    <path d="M12.06 2.101c-5.82 0-10.62 4.74-10.62 10.62 0 1.08.18 2.1.48 3.12.18-.3.36-.54.6-.84.72-1.08 1.5-2.16 2.16-3.3l.54-.84c.18-.3.3-.54.48-.84.36-.54.66-1.14 1.02-1.68.18-.3.3-.6.48-.84.18-.3.3-.6.48-.84.12-.3.3-.6.42-.84l.42-.9.06-.06c.24-.48.84-.66 1.26-.42.36.18.54.6.54.96 0 .48-.12 1.02-.12 1.56-.06.42-.06.96-.12 1.5-.06 1.02-.06 2.1-.06 3.12s.06 2.04.18 3.06c.06.48.12 1.02.24 1.44.12.48.24.9.42 1.26.06.18.18.3.24.36s0 0 .06 0h.18l.06-.06c.12-.06.3-.24.42-.42.3-.36.6-.72.84-1.14.3-.42.54-.84.78-1.32.48-.9.96-1.8 1.44-2.76.24-.48.42-.96.66-1.44.24-.48.42-.96.6-1.44s.78-.72 1.26-.54c.3.12.54.42.6.72 0 .12 0 .3.06.42l.06.42c.06.3.06.6.12.9.12.6.24 1.14.36 1.74.18.6.36 1.14.6 1.68s.54 1.08.9 1.5c.06.12.06.24-.06.36-.12.06-.24.06-.3 0-.48-.42-.9-.9-1.26-1.44-.36-.54-.66-1.08-.96-1.68-.18-.36-.36-.78-.54-1.14-.12.24-.24.48-.3.72-.48.96-.96 1.92-1.5 2.88-.24.48-.54.96-.84 1.38-.3.48-.6.9-1.02 1.38-.18.24-.42.48-.72.66-.06.06-.18.12-.24.18s-.12.06-.18.12l-.12.06h-.18c-.06 0-.12.06-.18.06-.12 0-.24.06-.36.06-.24 0-.54 0-.78-.12-.24-.06-.48-.24-.66-.36-.36-.3-.54-.6-.72-.9-.3-.6-.48-1.2-.6-1.74s-.18-1.08-.24-1.68c-.12-1.08-.18-2.16-.18-3.24v-1.56c-.18.36-.36.72-.6 1.08-.18.3-.3.6-.48.9l-.48.9c-.66 1.2-1.38 2.34-2.04 3.48-.48.72-.9 1.5-1.38 2.22 1.92 2.88 5.16 4.8 8.88 4.8 5.88 0 10.62-4.74 10.62-10.62-.06-5.88-4.8-10.62-10.68-10.62z" fill="url(#a)"/>
    <defs>
        <linearGradient id="a" x1="17.384" y1="3.532" x2="6.771" y2="21.915" gradientUnits="userSpaceOnUse">
            <stop stop-color="#0099D8"/>
            <stop offset="1" stop-color="#4AAF65"/>
        </linearGradient>
    </defs>
</svg>
