<svg width="135" height="40" fill="none" xmlns="http://www.w3.org/2000/svg">
    <path d="M16.439 11.648c-1.8-.5-3.499-1-5.098-1.2-.9 1.2-1.6 2.6-2.3 4.099-.699 1.5-1.199 2.999-1.599 4.498 1.2 1 2.7 2 4.299 2.999.6-1.7 1.3-3.499 2.099-5.298.8-1.9 1.7-3.599 2.599-5.098zM28.934 29.94c-1.4-.199-2.899-.599-4.698-1.199-.9 1.5-1.8 2.8-2.699 3.999 1.5.3 2.999.5 4.498.6 1-1.1 2-2.2 2.9-3.4zM12.14 28.641c1.3.9 2.6 1.6 4 2.2 1.399.6 2.898 1.2 4.297 1.599 1-1.2 1.9-2.6 2.8-3.998-1.8-.6-3.5-1.3-5.099-2-1.599-.7-3.298-1.6-4.898-2.499-.4 1.7-.8 3.299-1.1 4.698zM22.738 6.55l-.3.3c-.1.1-.2.2-.3.4 1.4.4 2.799.9 4.098 1.499 1.3.6 2.5 1.2 3.799 2.1 0-.3.1-.6.1-.8.1-.8.1-1.6.1-2.4-1.7-1.2-3.699-2.099-5.798-2.599-.6.4-1.1.9-1.7 1.5zM31.733 25.043c.6-1.4 1.2-2.9 1.6-4.299-1.2-1-2.6-1.999-3.999-2.799-.6 1.8-1.3 3.5-1.999 5.099-.7 1.699-1.6 3.298-2.5 4.898 1.6.5 3.3.9 4.8 1.2.699-1.3 1.399-2.6 2.098-4.1zM35.033 14.947c.5.5.9 1.1 1.3 1.599-.1-.4-.2-.7-.3-1.1-.3-.9-.7-1.799-1.1-2.599.1.8.1 1.5.1 2.1zM28.735 16.546c.5-1.7.9-3.299 1.2-4.798-1.3-.8-2.6-1.6-3.999-2.2-1.4-.7-2.899-1.199-4.298-1.599-1 1.2-1.9 2.6-2.8 3.999 1.8.6 3.5 1.3 5.099 1.999 1.7.9 3.299 1.7 4.798 2.599zM33.933 11.748c0-.2-.1-.5-.1-.7-.8-1.1-1.7-2-2.7-2.799 0 .6 0 1.2-.1 1.8 0 .4-.1.9-.199 1.299 1.2.8 2.3 1.7 3.199 2.699 0-.8 0-1.6-.1-2.3zM15.64 17.846c-.8 1.799-1.5 3.598-2 5.198 1.5.9 3.2 1.699 4.999 2.599 1.6.7 3.299 1.4 5.198 2.099.9-1.6 1.8-3.199 2.599-4.998.8-1.7 1.4-3.399 2.099-5.198-1.5-.9-3.199-1.8-4.998-2.6-1.9-.8-3.599-1.499-5.198-1.999-1 1.3-1.8 2.9-2.7 4.899zM33.533 19.745c.3-1.5.5-2.999.6-4.499-1-1.099-2.2-2.099-3.4-2.998-.2 1.4-.599 2.899-1.199 4.698 1.4 1 2.8 1.9 3.999 2.799zM26.335 34.24c-.6.5-1.1.999-1.7 1.399.4-.1.9-.2 1.3-.4.9-.3 1.8-.7 2.6-1.1-.6.1-1.1.1-1.7.1h-.5zM31.234 30.24c-.2 0-.3 0-.5-.1-.3 0-.5-.1-.8-.1-.8 1.1-1.699 2.2-2.699 3.2.8 0 1.5-.1 2.3-.2.3 0 .6-.1.9-.2.999-.8 1.998-1.6 2.798-2.6h-.2c-.6.1-1.2.1-1.8 0zM19.339 33.84c.2-.2.3-.4.5-.5 0 0 0-.1.1-.1-1.4-.4-2.8-.9-4-1.5-1.299-.6-2.598-1.3-3.798-2.099v.1c0 .3-.1.5-.1.7-.1.8-.1 1.6-.1 2.399 1.7 1.3 3.599 2.099 5.698 2.599.4-.3 1-.9 1.7-1.6zM34.632 21.944l-.3-.3c-.1-.1-.2-.2-.4-.3-.4 1.4-.899 2.8-1.499 4.099-.6 1.4-1.3 2.599-2.099 3.798h.1c.2 0 .5.1.7.1.6.1 1.2.1 1.799.1h.7c1.2-1.7 2.099-3.598 2.499-5.598-.3-.7-.8-1.3-1.5-1.899zM36.232 18.145c-.4-.6-.8-1.2-1.3-1.799-.1 1.5-.3 2.799-.7 4.198.3.3.6.6.9.8.5.4.9.9 1.3 1.4.2-1.3.2-2.6.1-3.799 0-.4-.1-.6-.3-.8zM20.838 33.44c-.3.4-.6.7-.9 1-.5.499-.9.899-1.399 1.299.8.1 1.6.2 2.5.2.399 0 .899 0 1.299-.1.3-.2.5-.3.7-.4.7-.4 1.299-.9 1.799-1.3-1.3-.1-2.7-.3-3.999-.7zM6.043 17.745c.4-1.299.8-2.599 1.4-3.898.6-1.3 1.3-2.599 1.999-3.699-.4 0-.7-.1-1-.1-.8-.1-1.5-.1-2.199-.1-1.2 1.7-2.099 3.6-2.499 5.598.4.5.9 1 1.5 1.6.3.2.5.4.8.6zM6.943 8.749c.8-1.1 1.6-2.1 2.5-2.999-.8 0-1.5.1-2.3.2-.1 0-.2 0-.3.1-1 .7-1.999 1.5-2.698 2.5.5 0 1 0 1.599.099.4 0 .8.1 1.2.1zM6.143 19.345l-1-1c-.2 1-.2 2.1-.1 3.2.1.1.1.199.2.299.3.5.7 1 1.2 1.5.1-1.1.2-2.2.5-3.3-.3-.2-.6-.5-.8-.699zM19.138 6.25c.9.1 1.7.3 2.6.5.3-.3.499-.6.799-.9.4-.4.8-.8 1.2-1.1-1.2-.2-2.4-.2-3.6-.1-.1.1-.2.1-.3.2-.499.3-.899.6-1.398 1-1.4-.3-2.7-.5-3.999-.5-1.1 1-2.2 2.3-3.199 3.699 1.5.3 3.299.7 4.998 1.3 1-1.6 1.9-2.9 2.9-4.1zM7.443 20.445c-.4 1.699-.6 3.298-.6 4.798l.9.9c0 .8.1 1.599.2 2.398 0 .2.1.4.1.6.799 1.2 1.799 2.3 2.998 3.199 0-.7 0-1.4.1-2.1 0-.399.1-.899.2-1.399-.3-.1-.6-.3-.8-.5.2-1.499.6-3.098 1.2-4.898-1.6-1-2.999-1.999-4.298-2.998zM86.613 23.444c-.9 1.5-2.399 2.3-4.198 2.3-2.8 0-4.898-2.1-4.898-4.999 0-2.899 2.099-5.098 4.898-5.098 1.4 0 2.599.5 3.498 1.4l-.6.7c-.7-.7-1.699-1.2-2.898-1.2-2.3 0-3.899 1.799-3.899 4.198 0 2.4 1.7 4.198 3.899 4.198 1.4 0 2.599-.7 3.298-1.699v-2.1h-3.098v-.899h3.998v3.199zM87.912 25.642l3.999-10.096 3.998 10.096h-1l-.8-1.999h-4.398l-.8 2h-.999zm2.1-2.898h3.798l-1.9-4.699-1.899 4.699zM97.209 25.642l1.1-10.096 3.998 6.198 4.098-6.198 1 10.096h-1l-.699-7.397-3.399 5.198-3.399-5.198-.8 7.397h-.899zM110.104 15.746v9.896h-.9v-9.896h.9zM119.901 15.746v10.096l-6.698-7.997v7.698h-.899V15.446l6.697 7.897v-7.597h.9zM130.996 23.443c-.9 1.5-2.399 2.3-4.198 2.3-2.799 0-4.899-2.1-4.899-4.999 0-2.899 2.1-5.098 4.899-5.098 1.399 0 2.599.5 3.498 1.4l-.6.7a4.064 4.064 0 0 0-2.898-1.2c-2.3 0-3.899 1.8-3.899 4.198 0 2.4 1.699 4.199 3.899 4.199 1.399 0 2.599-.7 3.298-1.7v-2.099h-3.099v-.9h3.999v3.2zM45.728 14.947c-2.999 0-5.198 2.299-5.198 5.398 0 3.098 2.2 5.398 5.198 5.398 3 0 5.198-2.3 5.198-5.398 0-3.2-2.099-5.398-5.198-5.398zm0 9.196c-2.099 0-3.598-1.6-3.598-3.798 0-2.2 1.5-3.799 3.598-3.799 2.1 0 3.599 1.6 3.599 3.799s-1.5 3.798-3.599 3.798zM55.325 15.246h-3.199v10.297h1.2v-3.999h1.999c1.8 0 3.298-1.4 3.298-3.199s-1.399-3.098-3.298-3.098zm0 4.899h-2v-3.2h2c.9 0 1.7.6 1.7 1.6s-.7 1.6-1.7 1.6zM65.32 21.844c0 1.3-.9 2.3-2.099 2.3-1.2 0-2.099-1-2.099-2.3v-6.698h-1.4v6.698c0 2.1 1.7 3.799 3.8 3.799 2.098 0 3.798-1.7 3.798-3.799v-6.698h-2v6.698zM72.019 19.445c-.1 0-.2-.1-.3-.1-1-.4-1.6-.7-1.6-1.6 0-1.199 1.3-1.199 1.5-1.199.6 0 1.2.2 1.9.7l.3.2.899-1.2-.3-.2c-.6-.5-1.6-1-2.799-1-1.8 0-3.099 1.1-3.099 2.8 0 2.099 1.5 2.599 2.7 3.098l.2.1c1.199.4 1.898.8 1.898 1.8 0 1.3-1.399 1.4-1.799 1.4-.9 0-1.6-.3-2.199-.8l-.3-.2-1 1.2.2.199c.9.8 1.9 1.2 3.2 1.2 1.699 0 3.398-.9 3.398-3 0-2.198-1.4-2.898-2.799-3.398z" fill="#9399A6"/>
</svg>
