<svg width="32" height="32" viewBox="0 0 32 32" fill="none" xmlns="http://www.w3.org/2000/svg">
    <path d="M15.873 3.412c-6.422.041-11.631 2.868-11.616 6.3.015 3.432 5.342 6.213 11.866 6.203 6.523-.01 11.712-2.832 11.616-6.295-.097-3.463-5.44-6.248-11.866-6.208zm1.68 9.56v1.104h-2v-1.018a14.577 14.577 0 0 1-3.479-.454l.59-1.268c1.105.309 2.246.465 3.392.464 1.162 0 1.95-.24 1.94-.678-.01-.437-.666-.667-2.174-.931-2.185-.382-3.677-.917-3.692-1.966 0-.952 1.227-1.701 3.392-1.94V5.266h1.98v.952c.992 0 1.98.115 2.944.342l-.555 1.227a11.641 11.641 0 0 0-2.928-.351c-1.32 0-1.737.31-1.732.61.005.301.723.581 2.455.922 2.43.449 3.417 1.019 3.442 2.037.026 1.019-1.232 1.747-3.574 1.966z" fill="#D4D6DB"/>
    <path d="M15.833 1.146C7.089 1.212 0 5.052 0 9.726c0 4.675 7.236 8.454 16.169 8.454 8.932 0 16.016-3.845 15.827-8.58-.188-4.737-7.425-8.52-16.163-8.454zm.31 15.705c-7.511 0-13.627-3.198-13.637-7.13-.01-3.931 5.978-7.185 13.352-7.236 7.374-.051 13.49 3.147 13.638 7.13.148 3.982-5.856 7.23-13.353 7.236z" fill="#D4D6DB"/>
    <path d="M16.165 19.31H15.4c-7.13-.172-13.057-2.764-14.845-6.243H.083c.835 4.263 7.715 7.588 16.082 7.588s14.992-3.315 15.756-7.588h-.443c-1.772 3.585-7.909 6.244-15.313 6.244z" fill="#D4D6DB"/>
    <path d="M16.165 21.745H15.4C8.271 21.57 2.344 18.979.556 15.5H.083c.835 4.263 7.715 7.583 16.082 7.583S31.157 19.769 31.92 15.5h-.443c-1.772 3.585-7.909 6.244-15.313 6.244z" fill="#D4D6DB"/>
    <path d="M16.165 24.153H15.4c-7.13-.173-13.057-2.76-14.845-6.244H.083c.835 4.263 7.715 7.588 16.082 7.588s14.992-3.315 15.756-7.588h-.443c-1.772 3.6-7.909 6.244-15.313 6.244z" fill="#D4D6DB"/>
    <path d="M16.165 26.578H15.4c-7.13-.173-13.057-2.765-14.845-6.244H.083c.835 4.263 7.715 7.588 16.082 7.588s14.992-3.315 15.756-7.588h-.443c-1.772 3.6-7.909 6.244-15.313 6.244z" fill="#D4D6DB"/>
    <path d="M16.165 29H15.4c-7.13-.172-13.057-2.765-14.845-6.243H.083c.835 4.263 7.715 7.588 16.082 7.588s14.992-3.32 15.756-7.588h-.443c-1.772 3.596-7.909 6.244-15.313 6.244z" fill="#D4D6DB"/>
</svg>
