<svg width="97" height="40" fill="none" xmlns="http://www.w3.org/2000/svg">
    <path d="M79.408 15.6c-4.3.3-2.4 5.9 2.4 5.6 4.7-.3 2.3-5.9-2.4-5.6z" fill="#9399A6"/>
    <path d="M77.608 12.1c-7.7 0-13.9 6.2-13.9 13.9s6.2 14 13.9 14 13.9-6.2 13.9-13.9c.1-7.8-6.2-14-13.9-14zm0 26.4c-6.9 0-12.5-5.6-12.5-12.5s5.6-12.5 12.5-12.5 12.5 5.6 12.5 12.5-5.6 12.5-12.5 12.5zm-.4-36.1c-3.3 2.5-2.7 6.3-2.7 6.3s-2.1-5.4-4.8-8.7c-.4 4.3 1 9.9 1 9.9s-1.7-3.5-5.9-3.7c3.4 2 4.8 5.5 5.1 6.5 2.1-1.3 4.4-2 6.8-2.1-.3-.9-1.2-4.6.5-8.2z" fill="#9399A6"/>
    <path d="M5.607 27.4v2.9h-1.2v-7.5h2.6c.9 0 1.5.2 2 .6.4.4.7 1 .7 1.7s-.2 1.3-.7 1.7c-.4.4-1.1.6-1.9.6h-1.5zm2.8-2.3c0-.4-.1-.8-.4-1-.2-.2-.6-.3-1.1-.3h-1.3v2.6h1.2c1.1 0 1.6-.4 1.6-1.3zm6.2 5.2-1.9-3h-.9v3h-1.2v-7.5h2.7c.9 0 1.5.2 2 .6.4.4.7 1 .7 1.7 0 .6-.2 1.1-.5 1.4-.3.4-.8.6-1.4.7l2 3.1h-1.5zm-2.7-3.8h1.3c1 0 1.5-.4 1.5-1.3 0-.4-.1-.7-.4-1-.2-.2-.6-.3-1.1-.3h-1.3v2.6zm9.6 2.2h-3.2l-.6 1.6h-1.3l2.8-7.4h1.4l2.8 7.4h-1.3l-.6-1.6zm-.3-.9-1.2-3.5-1.2 3.5h2.4zm8.3-4.4c.6.4 1 1.1 1.2 1.8h-1.3c-.2-.4-.4-.7-.8-1-.4-.2-.9-.4-1.3-.4s-.9.1-1.3.3c-.4.2-.7.5-.9.9-.2.4-.3.9-.3 1.4 0 .5.1 1 .3 1.5.2.4.5.7.9.9.4.2.9.3 1.3.3.6 0 1.2-.2 1.6-.6.4-.4.7-.9.8-1.6h-2.8V26h3.8v1.2c-.1.5-.3 1.1-.6 1.5-.1.7-.6 1.1-1.1 1.3-.5.3-1.1.4-1.7.4-.7 0-1.3-.2-1.9-.5-.6-.3-1-.8-1.3-1.4-.6-1.3-.6-2.7 0-4 .3-.6.7-1 1.3-1.4.6-.3 1.3-.5 1.9-.5.9.2 1.6.4 2.2.8zm9.9-.5v7.4h-1.2v-5.6l-2.1 5.6h-1.1l-2.2-5.6v5.6h-1.2v-7.4h1.5l2.5 5.9 2.4-5.9h1.4zm6 5.8h-3.2l-.6 1.6h-1.3l2.8-7.4h1.4l2.8 7.4h-1.3l-.6-1.6zm-.4-.9-1.2-3.5-1.2 3.5h2.4zm7.5-5v1h-2.1v6.5h-1.2v-6.5h-2.2v-1h5.5zm1.8 0v7.5h-1.2v-7.5h1.2zm6.9.6c.6.5 1.1 1.2 1.2 1.9h-1.3c-.2-.4-.5-.8-.8-1.1-.4-.3-.9-.4-1.4-.4-.4 0-.8.1-1.2.3-.4.2-.6.6-.8.9-.4.9-.4 1.9 0 2.9.2.4.5.7.8.9.4.2.8.3 1.2.3.5 0 1-.1 1.4-.4.4-.3.7-.6.8-1.1h1.3c-.2.8-.6 1.4-1.2 1.9s-1.4.7-2.3.7c-.7 0-1.3-.2-1.9-.5-.5-.3-1-.8-1.3-1.4-.6-1.3-.6-2.7 0-4 .3-.6.7-1 1.3-1.4.6-.3 1.2-.5 1.9-.5.9.3 1.7.6 2.3 1zm7 4v2.9h-1.2v-7.5h2.6c.9 0 1.5.2 2 .6.4.4.7 1 .7 1.7s-.2 1.3-.7 1.7c-.4.4-1.1.6-1.9.6h-1.5zm2.7-2.3c0-.4-.1-.8-.4-1-.2-.2-.6-.3-1.1-.3h-1.2v2.6h1.2c1 0 1.5-.4 1.5-1.3zm3.3 4.3h2.6v.9h-3.8v-7.5h1.2v6.6zm8.2-.7h-3.2l-.6 1.6h-1.3l2.8-7.4h1.4l2.8 7.4h-1.3l-.6-1.6zm-.4-.9-1.2-3.5-1.2 3.5h2.4zm7.1-5-2.5 4.8v2.7h-1.2v-2.7l-2.5-4.8h1.4l1.7 3.5 1.7-3.5h1.4z" fill="#9399A6"/>
</svg>
