<svg width="33" height="33" viewBox="0 0 33 33" fill="none" xmlns="http://www.w3.org/2000/svg">
<path fill-rule="evenodd" clip-rule="evenodd" d="M30.0766 15.6301C29.9483 15.8924 29.9483 16.1934 30.0766 16.4558L31.2654 18.8879C31.9273 20.242 31.4029 21.8561 30.0714 22.5625L27.6802 23.8313C27.4222 23.9682 27.2454 24.2117 27.1949 24.4993L26.7271 27.1656C26.4667 28.6502 25.0941 29.6478 23.6013 29.4366L20.921 29.0575C20.6318 29.0169 20.3457 29.1097 20.1358 29.3127L18.1901 31.1948C17.6486 31.7188 16.9533 31.9808 16.2583 31.9808C15.5631 31.9809 14.8682 31.7189 14.3265 31.1948L12.3809 29.3127C12.1709 29.1097 11.8847 29.0165 11.5956 29.0575L8.91528 29.4366C8.78149 29.4556 8.64838 29.4648 8.51721 29.4648C7.18535 29.4649 6.0265 28.5171 5.78943 27.1656L5.32175 24.4992C5.27126 24.2117 5.09439 23.9681 4.8364 23.8313L2.44511 22.5625C1.11369 21.8561 0.589239 20.2421 1.25115 18.8879L2.44001 16.4559C2.56826 16.1936 2.56826 15.8926 2.44001 15.6302L1.25122 13.1982C0.589301 11.8441 1.11375 10.2299 2.44518 9.52356L4.83646 8.25476C5.09439 8.11786 5.27126 7.87437 5.32175 7.58675L5.78943 4.92047C6.04985 3.4359 7.42261 2.43817 8.91522 2.64941L11.5956 3.02855C11.8848 3.06927 12.1709 2.97644 12.3808 2.77336L14.3265 0.891027C15.4097 -0.157066 17.1068 -0.157004 18.1902 0.891027L20.1358 2.77317C20.3456 2.97619 20.6317 3.06921 20.921 3.02837L23.6013 2.64922C25.0935 2.43811 26.4667 3.43571 26.7271 4.92029L27.1948 7.58668C27.2453 7.87425 27.4222 8.1178 27.6802 8.25464L30.0714 9.52343C31.4029 10.2299 31.9273 11.8439 31.2654 13.198L30.0766 15.6301ZM15.9519 11.1404C15.9519 9.28194 14.4398 7.76991 12.5813 7.76991C10.7228 7.76991 9.21081 9.28194 9.21081 11.1404C9.21081 12.9989 10.7228 14.5109 12.5813 14.5109C14.4398 14.5109 15.9519 12.9989 15.9519 11.1404ZM10.8416 22.7595C10.6621 22.939 10.4269 23.0287 10.1917 23.0287C9.95646 23.0287 9.72113 22.939 9.54171 22.7595C9.18273 22.4005 9.18273 21.8185 9.54171 21.4595L21.6749 9.32633C22.0338 8.96735 22.6159 8.96735 22.9749 9.32633C23.3338 9.6853 23.3338 10.2673 22.9749 10.6263L10.8416 22.7595ZM16.5646 20.9455C16.5646 22.804 18.0766 24.316 19.9351 24.316C21.7936 24.316 23.3056 22.804 23.3056 20.9455C23.3056 19.087 21.7936 17.575 19.9351 17.575C18.0766 17.575 16.5646 19.087 16.5646 20.9455Z" fill="white"/>
<path d="M19.9352 19.4136C19.0904 19.4136 18.4031 20.1008 18.4031 20.9456C18.4031 21.7904 19.0903 22.4776 19.9352 22.4776C20.7799 22.4776 21.4672 21.7904 21.4672 20.9456C21.4672 20.1008 20.7799 19.4136 19.9352 19.4136Z" fill="white"/>
<path d="M12.5813 9.6084C11.7366 9.6084 11.0493 10.2957 11.0493 11.1404C11.0493 11.9852 11.7366 12.6725 12.5813 12.6725C13.4261 12.6725 14.1134 11.9852 14.1134 11.1404C14.1133 10.2957 13.4261 9.6084 12.5813 9.6084Z" fill="white"/>
</svg>
