<svg width="80" height="16" fill="none" xmlns="http://www.w3.org/2000/svg">
    <path d="M30.88 10.8h-1.76v-.96c-.48.72-1.36 1.04-2.64 1.04-.8 0-1.36-.16-1.84-.4-.48-.24-.64-.56-.64-1.04V6.4h1.92v2.88c0 .32.16.56.4.64.24.08.56.16.8.16.4 0 .8-.08 1.28-.32.4-.16.64-.64.64-1.2V6.4h1.92v4.4h-.08zM34.56 5.92h-1.92V4.88h1.92v1.04zm0 4.88h-1.92V6.4h1.92v4.4zM41.2 9.2l1.68.08c-.24.56-.64.96-1.2 1.2-.64.24-1.36.4-2.24.4-1.2 0-2.08-.24-2.72-.64-.64-.48-.96-.96-.96-1.6 0-.64.32-1.2 1.04-1.6.72-.4 1.6-.64 2.72-.64 1.84 0 2.96.48 3.28 1.52L41.12 8c-.16-.56-.64-.8-1.52-.8-.64 0-1.12.16-1.44.48-.32.32-.4.64-.4 1.04 0 .48.16.8.48 1.04.32.24.72.32 1.28.32.88-.08 1.44-.32 1.68-.88zM51.76 10.8h-2L47.6 8.56 45.76 9.6v1.12h-1.84V4.88h1.84v3.68c.16-.08.32-.16.4-.24l3.28-1.92h2.08l-2.56 1.44 2.8 2.96zM54.72 10.8h-2.08V4.88h4.72c1.36 0 2.32.16 2.96.56.64.32.96.72.96 1.2 0 .56-.32.96-1.04 1.28-.72.32-1.6.48-2.64.48h-2.88v2.4zm0-3.28h2.48c.64 0 1.12-.08 1.44-.24.32-.16.48-.4.48-.64s-.16-.48-.48-.64c-.32-.16-.88-.24-1.68-.24h-2.24v1.76zM69.44 10.8H67.6c-.16-.24-.24-.56-.32-.88-.48.64-1.44.96-2.88.96-.88 0-1.52-.16-2-.4-.48-.24-.8-.56-.8-.96C61.6 8.48 63.28 8 66.72 8h.56v-.32c0-.48-.56-.64-1.76-.64s-1.84.24-2 .64l-1.6-.16c.08-.4.48-.64 1.12-.88.64-.24 1.6-.32 2.8-.32.64 0 1.2 0 1.6.08.4.08.8.16 1.04.32s.48.24.56.4c.08.16.16.4.16.8v2c0 .24.08.56.24.88zm-2.16-2.24c-2.48 0-3.68.32-3.68.88 0 .16.16.32.4.48.24.16.64.16 1.12.16.72 0 1.28-.08 1.68-.32.4-.24.56-.48.56-.8v-.4h-.08zM76.96 6.4l-3.28 4.96c-.24.32-.48.56-.8.72-.32.16-.88.24-1.52.24h-1.12v-.8h.88c.4 0 .72 0 .88-.08.16-.08.32-.16.48-.4.08-.16.16-.24.16-.32 0 0-.08-.08-.16-.24L69.6 6.4h2l2.08 2.88 1.76-2.88h1.52zM12.4 2.8c-5.28 0-9.6 2.24-9.6 5.04s4.32 5.04 9.6 5.04c.64 0 1.2 0 1.76-.08v-1.76H12.4c-3.2 0-5.76-1.36-5.76-3.12s2.56-3.2 5.76-3.2c3.2 0 5.76 1.44 5.76 3.2v4c2.32-.88 3.84-2.4 3.84-4 0-2.88-4.32-5.12-9.6-5.12z" fill="#9399A6"/>
    <path d="M14.08 9.68V14l3.76-2.32-3.76-2z" fill="#9399A6"/>
</svg>
