<svg width="80" height="16" fill="none" xmlns="http://www.w3.org/2000/svg">
    <path d="M20.08 9.2c-.16.32-.32.56-.56.72l.48.56-.64.56-.56-.64c-.24.08-.4.16-.56.24-.24.08-.56.08-.88.08-.72 0-1.2-.24-1.6-.64-.48-.48-.64-1.2-.48-2.16.32-.8.72-1.52 1.36-2.08.56-.4 1.12-.64 1.76-.64.64 0 1.2.24 1.6.64.48.48.56 1.2.48 2.08-.08.56-.24.96-.4 1.28zM18 9.84c.08 0 .16-.08.24-.08l-.48-.48.64-.56.48.48.24-.48c.08-.16.16-.4.16-.64.08-.56.08-1.04-.16-1.36-.16-.32-.48-.48-.96-.48-.4 0-.8.16-1.12.48-.32.32-.48.8-.64 1.36-.16.72 0 1.28.32 1.52.24.24.48.32.8.32.24 0 .32 0 .48-.08zM21.68 5.44h1.12l-.56 3.2c-.08.4-.08.64 0 .8.08.32.32.48.8.48.48 0 .72-.16.96-.48.08-.16.16-.4.24-.8l.56-3.2h1.12l-.56 3.28c-.08.56-.24.96-.48 1.28-.4.56-1.04.88-2 .88-.88 0-1.44-.32-1.68-.88-.08-.32-.16-.72 0-1.28l.48-3.28zM26.96 10.72h-1.12l.88-5.28h1.12l-.88 5.28zM29.2 6c.48-.4 1.04-.64 1.68-.64.88 0 1.44.32 1.76.88.16.32.24.64.16.96h-1.12c0-.24-.08-.48-.16-.56-.16-.24-.4-.32-.8-.32s-.72.16-1.04.48c-.24.32-.48.8-.56 1.36-.08.56-.08 1.04.16 1.36.16.32.48.48.8.48.4 0 .72-.16.96-.4.16-.16.24-.32.4-.64h1.12c-.16.56-.48 1.04-.96 1.44-.48.4-.96.56-1.6.56-.72 0-1.28-.24-1.6-.72-.32-.48-.48-1.12-.32-2 .16-1.04.56-1.76 1.12-2.24zM34 5.44h1.04l-.4 2.16 2.4-2.16h1.44L36 7.6l1.76 3.12h-1.44l-1.2-2.32-.64.56-.32 1.76h-1.04L34 5.44zM44.8 5.44l-.16.96h-1.52l-.72 4.32h-1.04L42 6.4h-1.52l.16-.96h4.16zM48.56 5.6c.16.08.32.24.4.4.08.16.16.32.16.48v.56c-.08.24-.16.48-.32.72s-.4.4-.72.48c.24.08.4.24.4.4.08.16.08.48 0 .8l-.08.32c0 .24-.08.4-.08.48 0 .16.08.24.16.32v.16h-1.2v-.8l.08-.48c.08-.32 0-.56-.08-.64-.08-.08-.32-.16-.56-.16h-1.04l-.32 2.08h-1.04l.88-5.28h2.4c.56 0 .8.08.96.16zm-2.32.72L46 7.76h1.2c.24 0 .4 0 .56-.08.24-.08.32-.32.4-.56.08-.32 0-.56-.16-.64-.08-.08-.24-.08-.48-.08h-1.28v-.08zM51.841 5.44h1.2l.96 5.28h-1.2l-.16-1.12h-1.84l-.56 1.12h-1.12l2.72-5.28zm-.64 3.28h1.28l-.32-2.08-.96 2.08zM55.36 5.44h1.12l1.44 3.68.64-3.68h.96l-.88 5.28H57.6l-1.44-3.76-.64 3.76h-.96l.8-5.28zM60.64 9.04c0 .24 0 .4.08.56.16.24.4.32.88.32.24 0 .48 0 .64-.08.32-.08.48-.32.56-.64 0-.16 0-.32-.16-.4-.16-.08-.32-.16-.64-.24l-.56-.16c-.56-.16-.88-.24-1.04-.4-.32-.24-.4-.64-.32-1.12.08-.48.32-.88.72-1.2.4-.32.88-.48 1.52-.48.56 0 .96.16 1.28.48.32.32.48.72.4 1.28h-1.04c0-.32-.08-.56-.32-.64-.16-.08-.32-.16-.64-.16s-.48.08-.72.16c-.16.08-.32.24-.32.48 0 .16 0 .32.16.4.08.08.32.16.64.24l.88.24c.4.08.64.24.8.4.24.24.32.64.24 1.04-.08.48-.32.88-.72 1.2-.4.32-.96.48-1.6.48-.64 0-1.2-.16-1.52-.48-.32-.32-.48-.72-.4-1.28h1.2zM65.12 5.44h3.6l-.16.96H66l-.16 1.2h2.24l-.16.88h-2.24l-.4 2.24h-1.04l.88-5.28zM72.96 6.4h-2.72l-.16 1.12h2.48l-.16.88h-2.48l-.24 1.36h2.8l-.16.96h-3.84l.88-5.28h3.76l-.16.96zM77.281 5.6c.16.08.32.24.4.4.08.16.16.32.16.48v.56c-.08.24-.16.48-.32.72s-.4.4-.72.48c.24.08.4.24.4.4 0 .16.08.48 0 .8l-.08.32c0 .24-.08.4-.08.48 0 .16.08.24.16.32v.16h-1.2v-.8l.08-.48c.08-.32 0-.56-.08-.64-.08-.08-.32-.16-.56-.16h-1.04l-.32 2.08h-1.04l.88-5.28h2.4c.48 0 .72.08.96.16zm-2.4.72-.24 1.44h1.12c.24 0 .4 0 .56-.08.24-.08.32-.32.4-.56.08-.32 0-.56-.16-.64-.08-.08-.24-.08-.48-.08h-1.2v-.08zM14.32 6.56c.08 0 .08.08.16.16 0-.08.08-.08.16-.16l-.16-.16c-.08.08-.08.16-.16.16zM14.48 9.6c0-.08.08-.08.16-.16-.08 0-.08-.08-.16-.16l-.16.16c.08.08.08.16.16.16zM14.32 7.52c.08 0 .08.08.16.16 0-.08.08-.08.16-.16-.08 0-.08-.08-.16-.16-.08.08-.08.16-.16.16zM12.48 6.8l.24-.24-.24-.24-.24.24c.16.08.24.16.24.24zM14.32 8.56c.08 0 .08.08.16.16l.08-.08v-.08l-.08-.08c-.08 0-.08 0-.16.08zM11.52 6.88c.08-.16.16-.24.32-.32a.625.625 0 0 1-.32-.32c-.08.16-.24.32-.4.32.24.08.4.16.4.32zM11.52 8.16c-.08.16-.24.32-.4.32.16 0 .32.16.4.32.08-.16.16-.24.32-.32-.16 0-.24-.16-.32-.32zM12.48 8.32l-.24.24.24.24.24-.24-.24-.24zM12.48 7.76l.24-.24-.24-.24-.24.24c.16.08.24.16.24.24zM13.28 9.52c.08.08.16.08.16.16.08-.08.08-.16.16-.16-.08-.08-.16-.08-.16-.16l-.16.16zM13.28 7.52c.08.08.16.08.16.16.08-.08.08-.16.16-.16-.08-.08-.16-.08-.16-.16 0 .08-.08.16-.16.16zM13.28 6.56c.08.08.16.08.16.16.08-.08.08-.16.16-.16 0 0-.08-.08-.08-.16-.08.08-.16.16-.24.16zM11.52 7.92c.08-.16.16-.24.32-.32a.625.625 0 0 1-.32-.32c-.08.16-.24.32-.4.32.24 0 .4.08.4.32zM13.28 8.56c.08.08.16.08.16.16.08-.08.08-.16.16-.16-.08-.08-.16-.08-.16-.16l-.16.16zM12.48 9.28l-.24.24.24.24.24-.24-.24-.24zM11.52 9.2c-.08.16-.24.32-.4.32.16 0 .32.16.4.32.08-.16.16-.24.32-.32-.16-.08-.24-.24-.32-.32z" fill="#9399A6"/>
    <path d="M14.96 5.52c-.24 0-.4.08-.48.24-.08-.16-.24-.24-.48-.24s-.4.16-.48.32c-.08-.16-.24-.24-.48-.24s-.4.16-.48.32c-.16-.24-.32-.32-.48-.32-.24 0-.4.16-.48.4-.16-.24-.32-.4-.56-.4-.24 0-.48.24-.48.48s.16.48.4.48c-.24 0-.4.24-.4.48s.16.48.4.48c-.24 0-.4.24-.4.48s.16.48.4.48c-.24 0-.4.24-.4.48s.16.48.4.48c-.24 0-.4.24-.4.48s.24.48.48.48.4-.16.48-.32c.08.24.24.4.48.4s.4-.08.48-.32c.08.16.32.32.48.32.16 0 .4-.08.48-.24.08.16.32.32.48.32.16 0 .4-.08.48-.24.08.16.32.24.48.24h.08c-.24-.48-.48-1.12-.48-2l-.08.08-.16-.16c.08 0 .08-.08.16-.16l.08.08c.08-1.36.8-2.4 1.28-2.96a.44.44 0 0 0-.4.24c0-.08-.24-.16-.4-.16zm-3.44.72c.08.16.16.24.32.32-.16.08-.24.16-.32.32-.08-.16-.24-.32-.4-.32.24 0 .4-.16.4-.32zm0 .96c.08.16.16.24.32.32-.16.08-.24.16-.32.32-.08-.16-.24-.32-.4-.32.24 0 .4-.08.4-.32zm0 2.64c-.08-.16-.24-.32-.4-.32.16 0 .32-.16.4-.32.08.16.16.24.32.32-.16 0-.24.16-.32.32zm0-.96c-.08-.16-.24-.32-.4-.32.16 0 .32-.16.4-.32.08.16.16.24.32.32-.16 0-.24.16-.32.32zm.96-2.56.24.24-.24.24-.24-.24c.16 0 .24-.08.24-.24zm0 .96.24.24-.24.24-.24-.24c.16 0 .24-.08.24-.24zm0 2.48-.24-.24.24-.24.24.24c-.08 0-.16.08-.24.24zm0-.96-.24-.24.24-.24.24.24c-.08 0-.16.08-.24.24zm1.04.88c-.08-.08-.08-.16-.16-.16.08-.08.16-.08.16-.16.08.08.08.16.16.16-.08 0-.16.08-.16.16zm0-.96c-.08-.08-.08-.16-.16-.16.08-.08.16-.08.16-.16.08.08.08.16.16.16-.08 0-.16.08-.16.16zm0-.96c-.08-.08-.08-.16-.16-.16.08-.08.16-.08.16-.16.08.08.08.16.16.16-.08 0-.16.08-.16.16zm0-.96c-.08-.08-.08-.16-.16-.16.08-.08.16-.08.16-.16.08.08.08.16.16.16-.08 0-.16.08-.16.16zm.96 2.56c0 .08.08.08.16.16-.08 0-.08.08-.16.16-.08-.08-.08-.16-.16-.16l.16-.16zm0-1.68c-.08 0-.08-.08-.16-.16.08 0 .08-.08.16-.16 0 .08.08.08.16.16l-.16.16zm0-.96-.16-.16c.08 0 .08-.08.16-.16 0 .08.08.08.16.16-.08.08-.16.08-.16.16z" fill="#9399A6"/>
    <path d="M10.08 5.68c-.24 0-.48.24-.48.48s.24.48.48.48.48-.24.48-.48c0-.32-.24-.48-.48-.48z" fill="#9399A6"/>
    <path d="M10.08 6.64c-.24 0-.48.24-.48.48s.24.48.48.48.48-.24.48-.48c0-.32-.24-.48-.48-.48zM10.08 7.6c-.24 0-.48.24-.48.48s.24.48.48.48.48-.24.48-.48-.24-.48-.48-.48z" fill="#9399A6"/>
    <path d="M10.08 9.52a.48.48 0 1 0 0-.96.48.48 0 0 0 0 .96zM10.08 10.48a.48.48 0 1 0 0-.96.48.48 0 0 0 0 .96zM9.12 5.68c-.24 0-.4.16-.4.4 0 .24.16.4.4.4.24 0 .4-.16.4-.4 0-.24-.16-.4-.4-.4zM9.12 6.64c-.24 0-.4.16-.4.4 0 .24.16.4.4.4.24 0 .4-.16.4-.4 0-.16-.16-.4-.4-.4zM9.12 8.48a.4.4 0 1 0 0-.8.4.4 0 0 0 0 .8zM9.12 9.44a.4.4 0 1 0 0-.8.4.4 0 0 0 0 .8zM9.12 10.4a.4.4 0 1 0 0-.8.4.4 0 0 0 0 .8zM8.16 5.76c-.24 0-.4.16-.4.4 0 .24.16.4.4.4.24 0 .4-.16.4-.4 0-.24-.16-.4-.4-.4zM8.16 6.72c-.24 0-.4.16-.4.4 0 .24.16.4.4.4.24 0 .4-.16.4-.4 0-.24-.16-.4-.4-.4zM8.16 7.68c-.24 0-.4.16-.4.4 0 .24.16.4.4.4.24 0 .4-.16.4-.4 0-.24-.16-.4-.4-.4zM8.16 8.64c-.24 0-.4.16-.4.4 0 .24.16.4.4.4.24 0 .4-.16.4-.4 0-.24-.16-.4-.4-.4zM8.16 9.6c-.24 0-.4.16-.4.4 0 .24.16.4.4.4.24 0 .4-.16.4-.4 0-.24-.16-.4-.4-.4zM7.2 5.76c-.16 0-.32.16-.32.32 0 .24.16.32.32.32s.32-.16.32-.32-.16-.32-.32-.32zM7.2 6.72c-.16 0-.32.16-.32.32s.16.32.32.32.32-.16.32-.32-.16-.32-.32-.32zM7.2 7.68c-.16 0-.32.16-.32.32s.16.32.32.32.32-.16.32-.32-.16-.32-.32-.32zM7.2 8.72c-.16 0-.32.16-.32.32s.16.32.32.32.32-.16.32-.32-.16-.32-.32-.32zM7.2 9.68c-.16 0-.32.16-.32.32s.16.32.32.32.32-.16.32-.32-.16-.32-.32-.32zM6.24 5.84c-.16 0-.24.16-.24.24-.08.16.08.32.24.32.16 0 .24-.16.24-.32s-.08-.24-.24-.24zM6.24 6.8c-.16 0-.24.16-.24.24 0 .16.16.24.24.24.16.08.24-.08.24-.24 0-.16-.08-.24-.24-.24zM6.24 8.32a.24.24 0 1 0 0-.48.24.24 0 0 0 0 .48zM6.24 9.28a.24.24 0 1 0 0-.48.24.24 0 0 0 0 .48zM6.24 10.24a.24.24 0 1 0 0-.48.24.24 0 0 0 0 .48zM5.28 5.84c-.16 0-.24.08-.24.24 0 .16.08.24.24.24.16 0 .24-.08.24-.24-.08-.08-.16-.24-.24-.24zM5.28 6.88c-.16 0-.24.08-.24.24 0 .16.08.24.24.24.16 0 .16-.16.16-.32s-.08-.16-.16-.16zM5.28 8.32a.24.24 0 1 0 0-.48.24.24 0 0 0 0 .48zM5.28 9.28a.24.24 0 1 0 0-.48.24.24 0 0 0 0 .48zM5.28 10.24a.24.24 0 1 0 0-.48.24.24 0 0 0 0 .48zM4.32 5.92c-.08 0-.16.08-.16.16s.08.16.16.16.16-.08.16-.16-.08-.16-.16-.16zM4.32 7.2a.16.16 0 1 0 0-.32.16.16 0 0 0 0 .32zM4.32 8.24a.16.16 0 1 0 0-.32.16.16 0 0 0 0 .32zM4.32 9.2a.16.16 0 1 0 0-.32.16.16 0 0 0 0 .32zM4.32 10.16a.16.16 0 1 0 0-.32.16.16 0 0 0 0 .32zM3.28 6s-.08 0-.08.08.08.08.08.08l.08-.08C3.44 6 3.36 6 3.28 6zM3.28 6.96l-.08.08.08.16.08-.08s0-.16-.08-.16zM3.28 7.92s-.08.08-.08.16.08.08.08.08l.08-.08s0-.16-.08-.16zM3.28 9.12a.08.08 0 1 0 0-.16.08.08 0 0 0 0 .16zM3.28 10.08a.08.08 0 1 0 0-.16.08.08 0 0 0 0 .16zM2.32 6.08c0 .08 0 .08 0 0 .08.08.08.08.08 0h-.08zM2.32 7.04c0 .08 0 .08 0 0 .08.08.08.08.08 0h-.08zM2.32 8.08c.08.08.16 0 .16 0-.08-.08-.08-.08-.16 0 0-.08 0-.08 0 0zM2.32 9.04c.08.08.16 0 .16 0s-.08-.08-.16 0c0-.08 0-.08 0 0zM2.32 10s0 .08 0 0c.08.08.16 0 .16 0-.08-.08-.08-.08-.16 0 0-.08 0-.08 0 0z" fill="#9399A6"/>
</svg>
